<?xml version="1.0" encoding="UTF-8"?>
<svg width="35px" height="35px" viewBox="0 0 35 35" version="1.1" xmlns="http://www.w3.org/2000/svg" xmlns:xlink="http://www.w3.org/1999/xlink">
    <title>icon/cardtaxes</title>
    <defs>
        <filter color-interpolation-filters="auto" id="filter-1">
            <feColorMatrix in="SourceGraphic" type="matrix" values="0 0 0 0 1.000000 0 0 0 0 1.000000 0 0 0 0 1.000000 0 0 0 1.000000 0"></feColorMatrix>
        </filter>
        <filter color-interpolation-filters="auto" id="filter-2">
            <feColorMatrix in="SourceGraphic" type="matrix" values="0 0 0 0 1.000000 0 0 0 0 0.392157 0 0 0 0 0.000000 0 0 0 1.000000 0"></feColorMatrix>
        </filter>
    </defs>
    <g id="Web" stroke="none" stroke-width="1" fill="none" fill-rule="evenodd">
        <g id="Albali-Card-page" transform="translate(-881.000000, -1774.000000)">
            <g id="Group-2" transform="translate(165.000000, 1738.000000)" filter="url(#filter-1)">
                <g transform="translate(716.000000, 33.000000)">
                    <g id="icon/cardtaxes" transform="translate(0.000000, 2.000000)" filter="url(#filter-2)">
                        <g>
                            <path d="M29.0416667,1.0625 C31.9756794,1.0625 34.3541667,3.44098727 34.3541667,6.375 C34.3541667,9.30901273 31.9756794,11.6875 29.0416667,11.6875 C27.8455615,11.6875 26.7417812,11.2922102 25.853835,10.62514 L25.8541667,27.625 C25.8541667,31.6299274 22.6886974,34.8955198 18.7232399,35.0562963 L18.4166667,35.0625 L1.41666667,35.0625 L1.24696181,35.0517397 C0.00245949074,34.8891059 0.0590277778,32.9375 1.41666667,32.9375 C4.25603383,32.9375 6.57513781,30.7099885 6.72180282,27.9071413 L6.72916667,27.625 L6.72916667,19.125 C6.72916667,18.5381975 7.20486412,18.0625 7.79166667,18.0625 C8.329569,18.0625 8.77411219,18.462218 8.84446729,18.980825 L8.85416667,19.125 L8.85416667,27.625 C8.85416667,29.6788089 8.02169612,31.5381839 6.67577335,32.8841067 L6.62008333,32.9375 L18.4166667,32.9375 C21.2560338,32.9375 23.5751378,30.7099885 23.7218028,27.9071413 L23.7291667,27.625 L23.7291667,6.375 L23.7335978,6.15601914 C23.7786705,5.04432937 24.1653641,4.02066182 24.7915267,3.18716837 L14.1666667,3.1875 C13.5798641,3.1875 13.1041667,2.71180255 13.1041667,2.125 C13.1041667,1.58709767 13.5038847,1.14255447 14.0224917,1.07219937 L14.1666667,1.0625 Z M20.5416667,24.4375 C21.1284692,24.4375 21.6041667,24.9131975 21.6041667,25.5 C21.6041667,26.0379023 21.2044487,26.4824455 20.6858416,26.5528006 L20.5416667,26.5625 L12.0416667,26.5625 C11.4548641,26.5625 10.9791667,26.0868025 10.9791667,25.5 C10.9791667,24.9620977 11.3788847,24.5175545 11.8974917,24.4471994 L12.0416667,24.4375 L20.5416667,24.4375 Z M20.5416667,20.1875 C21.1284692,20.1875 21.6041667,20.6631975 21.6041667,21.25 C21.6041667,21.7879023 21.2044487,22.2324455 20.6858416,22.3028006 L20.5416667,22.3125 L12.0416667,22.3125 C11.4548641,22.3125 10.9791667,21.8368025 10.9791667,21.25 C10.9791667,20.7120977 11.3788847,20.2675545 11.8974917,20.1971994 L12.0416667,20.1875 L20.5416667,20.1875 Z M20.5416667,15.9375 C21.1284692,15.9375 21.6041667,16.4131975 21.6041667,17 C21.6041667,17.5379023 21.2044487,17.9824455 20.6858416,18.0528006 L20.5416667,18.0625 L16.2916667,18.0625 C15.7048641,18.0625 15.2291667,17.5868025 15.2291667,17 C15.2291667,16.4620977 15.6288847,16.0175545 16.1474917,15.9471994 L16.2916667,15.9375 L20.5416667,15.9375 Z M7.79166667,1.06308919 C8.45255743,1.06308919 9.05742797,1.43431336 9.36096352,2.03211377 L9.36096352,2.03211377 L10.7071667,4.74583333 L13.7340741,5.18304526 C14.3222697,5.26753772 14.8224592,5.64379526 15.0713942,6.17914383 L15.0713942,6.17914383 L15.1448429,6.36330362 C15.352585,6.99513945 15.1806146,7.69012705 14.7037383,8.15068583 L14.7037383,8.15068583 L12.5134167,10.2736667 L13.0294394,13.2663461 C13.1309293,13.8593453 12.917764,14.4573621 12.4767983,14.8519061 L12.4767983,14.8519061 L12.3214918,14.9755987 C11.7823527,15.3575029 11.0745228,15.4045992 10.4915908,15.098564 L10.4915908,15.098564 L7.79025,13.6878333 L5.09804394,15.0974899 C4.57155884,15.3738883 3.94556816,15.3633801 3.43320976,15.0805361 L3.43320976,15.0805361 L3.2669246,14.9761882 C2.72107403,14.5903167 2.44537741,13.9252341 2.55838138,13.2649639 L2.55838138,13.2649639 L3.07416667,10.2736667 L0.89105263,8.15217704 C0.460477092,7.73633205 0.278123558,7.1318076 0.398635603,6.55073431 L0.398635603,6.55073431 L0.450098486,6.35820276 C0.659834051,5.73101286 1.20578847,5.27605084 1.85843479,5.18315198 L1.85843479,5.18315198 L4.87333333,4.74725 L6.22665849,2.02357384 C6.49598068,1.49323941 7.01285803,1.13951439 7.59532965,1.07407273 L7.59532965,1.07407273 Z M20.5416667,11.6875 C21.1284692,11.6875 21.6041667,12.1631975 21.6041667,12.75 C21.6041667,13.2879023 21.2044487,13.7324455 20.6858416,13.8028006 L20.5416667,13.8125 L16.2916667,13.8125 C15.7048641,13.8125 15.2291667,13.3368025 15.2291667,12.75 C15.2291667,12.2120977 15.6288847,11.7675545 16.1474917,11.6971994 L16.2916667,11.6875 L20.5416667,11.6875 Z M7.79166667,3.64791667 L6.68865988,5.87099881 C6.43610722,6.37832419 5.95346966,6.73189989 5.38073187,6.82168135 L5.38073187,6.82168135 L2.93391667,7.174 L4.70062814,8.89178817 C5.06546011,9.24553975 5.25478036,9.73874255 5.22504101,10.2424771 L5.22504101,10.2424771 L5.20353528,10.4316194 L4.78408333,12.8633333 L6.97381276,11.7184371 C7.42157783,11.4819098 7.94629839,11.4523438 8.41032472,11.6281755 L8.41032472,11.6281755 L8.60507586,11.7161027 L10.8020833,12.8633333 L10.3834195,10.427937 C10.2987935,9.92685715 10.438174,9.41728455 10.7584357,9.0307432 L10.7584357,9.0307432 L10.8869284,8.89181417 L12.6565,7.174 L10.212434,6.82187286 C9.70763378,6.74964957 9.26281489,6.46152618 8.98875494,6.03593865 L8.98875494,6.03593865 L8.89420315,5.87005289 L7.79166667,3.64791667 Z M29.0416667,3.1875 C27.281259,3.1875 25.8541667,4.61459236 25.8541667,6.375 C25.8541667,8.13540764 27.281259,9.5625 29.0416667,9.5625 C30.8020743,9.5625 32.2291667,8.13540764 32.2291667,6.375 C32.2291667,4.61459236 30.8020743,3.1875 29.0416667,3.1875 Z" id="Combined-Shape" fill="#000000" fill-rule="nonzero"></path>
                        </g>
                    </g>
                </g>
            </g>
        </g>
    </g>
</svg>