<?xml version="1.0" standalone="no"?>
<!DOCTYPE svg PUBLIC "-//W3C//DTD SVG 1.1//EN" "http://www.w3.org/Graphics/SVG/1.1/DTD/svg11.dtd" >
<svg xmlns="http://www.w3.org/2000/svg" xmlns:xlink="http://www.w3.org/1999/xlink" version="1.1">
<metadata>
Created by FontForge 20170731 at Thu Aug 19 16:58:38 2021
 By Aleksey,,,
Copyright (c) 2021 by Cosimo Lorenzo Pancini. All rights reserved.
</metadata>
<defs>
<font id="CocoSharp-Extrabold" horiz-adv-x="0" >
  <font-face 
    font-family="CocoSharp Extrabold"
    font-weight="800"
    font-stretch="normal"
    units-per-em="2048"
    panose-1="0 0 9 0 0 0 0 0 0 0"
    ascent="1638"
    descent="-410"
    x-height="1085"
    cap-height="1439"
    bbox="-1518 -758 3166 2218"
    underline-thickness="97"
    underline-position="-291"
    unicode-range="U+0010-F8FF"
  />
<missing-glyph horiz-adv-x="950" 
d="M177 1536h602v-1900h-602v1900zM633 1347v62h-314v-62h123v-71h-125v-63h316v63h-126v71h126zM507 1031v132h-190v-196h316v64h-126zM380 1099h62v-68h-62v68zM633 852v62h-316v-62h125v-70h-125v-63h190v133h126zM633 611v190h-63v-125h-253v-65h316zM633 354v215h-191
v-106h65v44h63v-90h-190v152h-63v-215h316zM633 26v215h-316v-215h316zM380 178h190v-90h-190v90zM633 -81v64h-316v-64h134l-134 -89v-62h316v62h-194l132 89h62z" />
    <glyph glyph-name=".notdef" horiz-adv-x="950" 
d="M177 1536h602v-1900h-602v1900zM633 1347v62h-314v-62h123v-71h-125v-63h316v63h-126v71h126zM507 1031v132h-190v-196h316v64h-126zM380 1099h62v-68h-62v68zM633 852v62h-316v-62h125v-70h-125v-63h190v133h126zM633 611v190h-63v-125h-253v-65h316zM633 354v215h-191
v-106h65v44h63v-90h-190v152h-63v-215h316zM633 26v215h-316v-215h316zM380 178h190v-90h-190v90zM633 -81v64h-316v-64h134l-134 -89v-62h316v62h-194l132 89h62z" />
    <glyph glyph-name="uni0000" 
 />
    <glyph glyph-name="uni0000" 
 />
    <glyph glyph-name="nonmarkingreturn" horiz-adv-x="682" 
 />
    <glyph glyph-name="uni0010" horiz-adv-x="1770" 
 />
    <glyph glyph-name="space" unicode=" " horiz-adv-x="479" 
 />
    <glyph glyph-name="exclam" unicode="!" horiz-adv-x="683" 
d="M494 452h-300l-14 987h327zM341 -30q-87 0 -142.5 54t-55.5 131t55.5 131t142.5 54q88 0 143.5 -53.5t55.5 -131.5t-55.5 -131.5t-143.5 -53.5z" />
    <glyph glyph-name="quotedbl" unicode="&#x22;" horiz-adv-x="774" 
d="M318 944h-252l-13 495h278zM709 944h-253l-13 495h278z" />
    <glyph glyph-name="numbersign" unicode="#" horiz-adv-x="1246" 
d="M413 19h-302l48 294h-149l3 247h185l43 255h-158l3 246h195l59 361h302l-60 -361h205l60 361h302l-62 -361h149l-2 -246h-185l-43 -255h157l-2 -247h-194l-48 -294h-302l50 294h-206zM543 815l-44 -255h207l42 255h-205z" />
    <glyph glyph-name="dollar" unicode="$" horiz-adv-x="1225" 
d="M1156 434q0 -167 -97.5 -283.5t-268.5 -156.5v-231h-331v228q-253 48 -437 246l233 242q169 -163 354 -163q87 0 130 30t43 81q0 34 -17 58.5t-72 52t-159 57.5q-60 17 -109 37t-109.5 57.5t-101.5 83t-69.5 115.5t-28.5 154q0 70 20 133.5t59.5 119.5t107 97t156.5 60
v236h331v-241q192 -43 347 -185l-208 -254q-56 51 -139 87.5t-166 36.5q-67 0 -103.5 -28t-36.5 -75q0 -43 63 -75q33 -17 169 -64q108 -38 183.5 -77t136 -93t90.5 -125t30 -161z" />
    <glyph glyph-name="percent" unicode="%" horiz-adv-x="2251" 
d="M475 600q-185 0 -310.5 127t-125.5 309q0 183 125.5 310t310.5 127q186 0 312.5 -127t126.5 -310q0 -182 -127 -309t-312 -127zM1601 1439l-747 -1439h-270l747 1439h270zM475 844q73 0 126.5 55.5t53.5 136.5q0 80 -54.5 135.5t-125.5 55.5t-124.5 -56t-53.5 -135
q0 -81 54 -136.5t124 -55.5zM1774 -45q-185 0 -311 127t-126 309q0 183 126 309.5t311 126.5q186 0 312.5 -127t126.5 -309t-127 -309t-312 -127zM1774 199q73 0 126.5 55.5t53.5 136.5q0 80 -54.5 135.5t-125.5 55.5t-125 -56t-54 -135q0 -80 54.5 -136t124.5 -56z" />
    <glyph glyph-name="ampersand" unicode="&#x26;" horiz-adv-x="1571" 
d="M1276 328l259 -328h-393l-85 109q-196 -139 -420 -139q-113 0 -213 30.5t-179 88.5t-125 152.5t-46 212.5q0 152 93.5 283t240.5 201l-153 196v305h934v-343h-521l400 -506q62 147 74 319h318q6 -146 -42.5 -298t-141.5 -283zM705 308q89 0 163 41l-281 361
q-58 -14 -102.5 -76t-44.5 -111q0 -119 70.5 -167t194.5 -48z" />
    <glyph glyph-name="quotesingle" unicode="'" horiz-adv-x="384" 
d="M318 944h-252l-13 495h278z" />
    <glyph glyph-name="parenleft" unicode="(" horiz-adv-x="689" 
d="M675 -299l-251 -153q-191 231 -270.5 489t-79.5 550q0 303 78.5 562t268.5 491l258 -148q-117 -170 -182 -404.5t-65 -499.5q0 -256 64.5 -488t178.5 -399z" />
    <glyph glyph-name="parenright" unicode=")" horiz-adv-x="689" 
d="M265 -452l-251 153q114 167 178.5 399t64.5 488q0 265 -65 499.5t-182 404.5l258 148q190 -232 268.5 -491t78.5 -562q0 -292 -79.5 -550t-270.5 -489z" />
    <glyph glyph-name="asterisk" unicode="*" horiz-adv-x="848" 
d="M775 1253v-200l-201 12l113 -164l-173 -101l-88 179l-89 -179l-173 101l112 164l-202 -12v202l201 -13l-111 164l172 102l89 -179l89 178l173 -100l-112 -165z" />
    <glyph glyph-name="plus" unicode="+" horiz-adv-x="1123" 
d="M691 213h-265v368h-352v256h352v368h265v-368h359v-256h-359v-368z" />
    <glyph glyph-name="comma" unicode="," horiz-adv-x="544" 
d="M215 -356l-114 107q150 144 150 217v9q-79 0 -128 52t-49 127q0 80 57 131.5t143 51.5q84 0 140.5 -56t56.5 -163q0 -261 -256 -476z" />
    <glyph glyph-name="hyphen" unicode="-" horiz-adv-x="907" 
d="M834 400h-760v283h760v-283z" />
    <glyph glyph-name="period" unicode="." horiz-adv-x="543" 
d="M271 -30q-87 0 -142 53.5t-55 131.5t55 131.5t142 53.5q88 0 143.5 -53.5t55.5 -131.5t-55.5 -131.5t-143.5 -53.5z" />
    <glyph glyph-name="slash" unicode="/" horiz-adv-x="985" 
d="M273 -293h-363l765 1863h359z" />
    <glyph glyph-name="zero" unicode="0" horiz-adv-x="1418" 
d="M710 -26q-198 0 -343 94t-219 262.5t-74 391.5t74 390t219 260.5t343 93.5t342.5 -93.5t218.5 -260.5t74 -390t-74 -391.5t-218.5 -262.5t-342.5 -94zM710 328q126 0 193.5 107.5t67.5 285.5q0 177 -67.5 284.5t-193.5 107.5q-127 0 -195 -107.5t-68 -284.5
q0 -178 68 -285.5t195 -107.5z" />
    <glyph glyph-name="one" unicode="1" horiz-adv-x="739" 
d="M596 0h-363v1050l-223 -94v354l278 129h308v-1439z" />
    <glyph glyph-name="two" unicode="2" horiz-adv-x="1083" 
d="M1008 0h-993v267l444 456q51 52 83.5 89.5t64.5 93t32 98.5q0 57 -33.5 89.5t-99.5 32.5q-59 0 -106.5 -42.5t-72.5 -113.5l-298 135q73 183 205 273.5t300 90.5q108 0 199.5 -37.5t152 -100t94.5 -143t34 -166.5q0 -158 -71.5 -278t-203.5 -235l-196 -172h465v-337z" />
    <glyph glyph-name="three" unicode="3" horiz-adv-x="1128" 
d="M537 -28q-123 0 -233.5 45.5t-187.5 127t-106 184.5l296 134q32 -71 90.5 -117t115.5 -46q74 0 122 46t48 117q0 143 -195 143h-142v260l240 230h-477v343h860v-338l-249 -254q85 -15 152 -58.5t106 -101t58.5 -118.5t19.5 -120q0 -209 -145.5 -343t-372.5 -134z" />
    <glyph glyph-name="four" unicode="4" horiz-adv-x="1304" 
d="M1082 0h-348v243h-673v257l651 939h370v-899h161v-297h-161v-243zM734 995l-292 -455h292v455z" />
    <glyph glyph-name="five" unicode="5" horiz-adv-x="1203" 
d="M592 -28q-178 0 -308.5 90t-197.5 272l300 139q66 -166 203 -166q77 0 125.5 53t48.5 137q0 66 -46.5 110.5t-121.5 44.5q-59 0 -101 -24.5t-60 -69.5h-324l64 881h840v-343h-531l-17 -229q73 72 214 72q200 0 324.5 -126.5t124.5 -322.5q0 -157 -73 -276.5t-194 -180.5
t-270 -61z" />
    <glyph glyph-name="six" unicode="6" horiz-adv-x="1195" 
d="M700 976q82 0 158.5 -34.5t134.5 -95.5t93 -153t35 -199q0 -106 -41.5 -203t-111 -167.5t-166.5 -112.5t-204 -42q-142 0 -263 70.5t-191 191.5t-70 263q0 175 106 351l355 594h409l-290 -466q23 3 46 3zM598 306q74 0 125 53.5t51 129.5q0 78 -51 133t-125 55t-125 -55
t-51 -133q0 -76 51 -129.5t125 -53.5z" />
    <glyph glyph-name="seven" unicode="7" horiz-adv-x="1067" 
d="M528 0h-393l458 1096h-532v343h945v-305z" />
    <glyph glyph-name="eight" unicode="8" horiz-adv-x="1208" 
d="M897 817q112 -59 175 -157.5t63 -221.5q0 -195 -152 -329.5t-378 -134.5q-227 0 -379 134.5t-152 329.5q0 123 63 222t175 158q-146 98 -146 271q0 160 125 269t314 109t314 -109t125 -268q0 -171 -147 -273zM604 1188q-55 0 -93.5 -39.5t-38.5 -95.5t38.5 -94.5
t94.5 -38.5t94.5 38.5t38.5 94.5t-39 95.5t-95 39.5zM604 299q70 0 120 49t50 117q0 70 -49.5 119.5t-119.5 49.5q-71 0 -120.5 -49.5t-49.5 -119.5q0 -69 49.5 -117.5t119.5 -48.5z" />
    <glyph glyph-name="nine" unicode="9" horiz-adv-x="1195" 
d="M597 1469q142 0 263 -70.5t191 -191t70 -262.5q0 -175 -106 -351l-355 -594h-409l290 466q-23 -3 -46 -3q-82 0 -158.5 34.5t-134.5 95.5t-93 153t-35 199q0 142 69.5 262.5t190.5 191t263 70.5zM597 762q74 0 125 54.5t51 132.5q0 76 -51 130t-125 54t-125 -54t-51 -130
q0 -78 51 -132.5t125 -54.5z" />
    <glyph glyph-name="colon" unicode=":" horiz-adv-x="543" 
d="M271 756q-87 0 -142 53.5t-55 130.5q0 78 55 131.5t142 53.5q88 0 143.5 -53.5t55.5 -131.5t-55.5 -131t-143.5 -53zM271 -33q-87 0 -142 54t-55 131q0 78 55 131.5t142 53.5q88 0 143.5 -53.5t55.5 -131.5t-55.5 -131.5t-143.5 -53.5z" />
    <glyph glyph-name="semicolon" unicode=";" horiz-adv-x="544" 
d="M272 757q-87 0 -142 53.5t-55 130.5t55 130.5t142 53.5q88 0 143.5 -53t55.5 -131t-55.5 -131t-143.5 -53zM215 -356l-114 107q150 144 150 217v9q-79 0 -128 52t-49 127q0 80 57 131.5t143 51.5q84 0 140.5 -56t56.5 -163q0 -261 -256 -476z" />
    <glyph glyph-name="less" unicode="&#x3c;" horiz-adv-x="1104" 
d="M1031 465v-320l-957 448v208l957 444v-317l-558 -233z" />
    <glyph glyph-name="equal" unicode="=" horiz-adv-x="1130" 
d="M1057 798h-983v273h983v-273zM1057 328h-983v273h983v-273z" />
    <glyph glyph-name="greater" unicode="&#x3e;" horiz-adv-x="1104" 
d="M1031 593l-957 -448v320l557 230l-557 233v317l957 -444v-208z" />
    <glyph glyph-name="question" unicode="?" horiz-adv-x="1085" 
d="M676 453h-301v43q0 129 39 213t141 157q42 30 66 49t52 46t40.5 52.5t12.5 51.5q0 62 -40 96t-121 34q-162 0 -162 -167h-333q0 212 126.5 329t380.5 117q135 0 245.5 -50t176 -146t65.5 -221q0 -53 -16 -102t-38.5 -84t-59.5 -71.5t-67 -59t-73 -52.5
q-71 -47 -102.5 -92t-31.5 -101v-42zM534 -30q-85 0 -139.5 53t-54.5 129q0 77 54.5 129.5t140.5 52.5q87 0 141 -52.5t54 -129.5t-54.5 -129.5t-141.5 -52.5z" />
    <glyph glyph-name="at" unicode="@" horiz-adv-x="1876" 
d="M937 1364q163 0 318 -58t277 -160.5t196.5 -256t74.5 -330.5q0 -220 -114 -352.5t-290 -132.5q-197 0 -287 177q-89 -113 -242 -113q-140 0 -243.5 107.5t-103.5 273.5q0 164 99.5 272t238.5 108q150 0 239 -103l44 88h191v-442q0 -61 30 -87.5t73 -26.5q36 0 57 28
t28 71.5t7 110.5q0 247 -166.5 410t-419.5 163q-165 0 -301 -74.5t-215.5 -210.5t-79.5 -306q0 -122 44.5 -231.5t122.5 -190t190 -127.5t240 -47q80 0 154 17.5t176 65.5l104 -222q-122 -60 -220 -86t-219 -26q-245 0 -444 111t-310.5 303t-111.5 425q0 146 44.5 278.5
t124.5 236t187 180t237.5 117t269.5 40.5zM932 391q55 0 90.5 34.5t35.5 89.5q0 54 -35.5 89t-90.5 35q-53 0 -88 -35t-35 -89t35.5 -89t87.5 -35z" />
    <glyph glyph-name="A" unicode="A" horiz-adv-x="1449" 
d="M1440 0h-380l-77 225h-516l-77 -225h-380l555 1441h323zM709 936l-138 -404h309l-138 404l-16 65h-2z" />
    <glyph glyph-name="B" unicode="B" horiz-adv-x="1346" 
d="M796 0h-653v1439h593q222 0 353 -105.5t131 -289.5q0 -88 -47 -166.5t-114 -106.5q99 -34 162.5 -132t63.5 -216q0 -102 -38.5 -183t-105 -133t-155 -79.5t-190.5 -27.5zM512 1125v-241h195q65 0 105 36t40 90q0 51 -37.5 83t-98.5 32h-204zM512 608v-301h254
q67 0 108 43t41 111q0 60 -45 103.5t-117 43.5h-241z" />
    <glyph glyph-name="C" unicode="C" horiz-adv-x="1351" 
d="M822 -26q-156 0 -295 59t-238.5 159.5t-157 238.5t-57.5 291q0 205 98 376t270 269.5t380 98.5q280 0 486 -174l-207 -280q-56 44 -130.5 72.5t-148.5 28.5q-152 0 -263.5 -114t-111.5 -278q0 -165 111.5 -279t263.5 -114q80 0 144 23t138 81l204 -282q-98 -84 -223 -130
t-263 -46z" />
    <glyph glyph-name="D" unicode="D" horiz-adv-x="1516" 
d="M688 0h-545v1439h542q156 0 296 -55t241.5 -150t161 -229t59.5 -285q0 -202 -100.5 -367.5t-273.5 -259t-381 -93.5zM512 1090v-741h188q160 0 264.5 104t104.5 267q0 161 -104.5 265.5t-265.5 104.5h-187z" />
    <glyph glyph-name="E" unicode="E" horiz-adv-x="1277" 
d="M1204 0h-1061v1439h1046v-333h-677v-224h529v-309h-529v-240h692v-333z" />
    <glyph glyph-name="F" unicode="F" horiz-adv-x="1170" 
d="M512 0h-369v1439h986v-333h-617v-306h470v-313h-470v-487z" />
    <glyph glyph-name="G" unicode="G" horiz-adv-x="1410" 
d="M970 339v327h348v-534q-97 -75 -227 -116.5t-269 -41.5q-156 0 -295 59t-238.5 159.5t-157 238.5t-57.5 291q0 205 98 376t270 269.5t380 98.5q280 0 486 -174l-215 -280q-129 101 -271 101q-152 0 -263.5 -114t-111.5 -278q0 -166 112 -285t263 -119q79 0 148 22z" />
    <glyph glyph-name="H" unicode="H" horiz-adv-x="1549" 
d="M512 0h-369v1439h369v-510h525v510h369v-1439h-369v577h-525v-577z" />
    <glyph glyph-name="I" unicode="I" horiz-adv-x="655" 
d="M512 0h-369v1439h369v-1439z" />
    <glyph glyph-name="J" unicode="J" horiz-adv-x="984" 
d="M391 -31q-89 0 -188.5 45t-188.5 126l201 262q100 -78 173 -78q53 0 83 34.5t30 104.5v976h368v-1002q0 -216 -128 -342t-350 -126z" />
    <glyph glyph-name="K" unicode="K" horiz-adv-x="1488" 
d="M1468 0h-439l-359 559l-158 -185v-374h-369v1439h369v-565l455 565h449l-508 -598z" />
    <glyph glyph-name="L" unicode="L" horiz-adv-x="1179" 
d="M1108 0h-965v1439h369v-1087h596v-352z" />
    <glyph glyph-name="M" unicode="M" horiz-adv-x="1850" 
d="M441 0h-372l185 1439h414l257 -929l256 929h414l187 -1440h-374l-90 848l-231 -847h-321l-230 847z" />
    <glyph glyph-name="N" unicode="N" horiz-adv-x="1542" 
d="M502 0h-359v1439h369l528 -813v813h359v-1439h-334l-563 858v-858z" />
    <glyph glyph-name="O" unicode="O" horiz-adv-x="1643" 
d="M822 -26q-156 0 -295 59t-238.5 159.5t-157 238.5t-57.5 291q0 205 98 376t270 269.5t380 98.5q156 0 294.5 -58t238 -157.5t157.5 -237t58 -291.5q0 -153 -58 -291t-157 -238.5t-238.5 -159.5t-294.5 -59zM822 328q153 0 263.5 114t110.5 279t-111 278.5t-263 113.5
t-263.5 -114t-111.5 -278q0 -165 111.5 -279t263.5 -114z" />
    <glyph glyph-name="P" unicode="P" horiz-adv-x="1297" 
d="M512 0h-369v1439h595q234 0 376 -136t142 -348q0 -227 -137 -364.5t-377 -137.5h-230v-453zM512 1106v-321h201q75 0 125 47.5t50 119.5q0 68 -50 111t-124 43h-202z" />
    <glyph glyph-name="Q" unicode="Q" horiz-adv-x="1643" 
d="M1570 722q0 -263 -159 -464.5t-409 -261.5v-293h-368v294q-247 63 -403.5 263.5t-156.5 461.5q0 205 98 376t270 269.5t380 98.5q156 0 294.5 -58t238 -157.5t157.5 -237t58 -291.5zM822 328q153 0 263.5 114t110.5 279t-111 278.5t-263 113.5t-263.5 -114t-111.5 -278
q0 -165 111.5 -279t263.5 -114z" />
    <glyph glyph-name="R" unicode="R" horiz-adv-x="1361" 
d="M1057 555l278 -555h-415l-215 460q-15 -1 -45 -1h-148v-459h-369v1439h622q225 0 365.5 -136.5t140.5 -353.5q0 -265 -214 -394zM734 1106h-222v-325h219q72 0 119 48.5t47 118.5q0 74 -47.5 116t-115.5 42z" />
    <glyph glyph-name="S" unicode="S" horiz-adv-x="1225" 
d="M618 -25q-351 0 -596 262l233 242q169 -163 354 -163q87 0 130 30t43 81q0 34 -17 58.5t-72 52t-159 57.5q-60 17 -109 37t-109.5 57.5t-101.5 83t-69.5 115.5t-28.5 154t28 157.5t85 134.5t154.5 96.5t224.5 35.5q307 0 529 -204l-208 -254q-56 51 -139 87.5t-166 36.5
q-67 0 -103.5 -28t-36.5 -75q0 -43 63 -75q33 -17 169 -64q108 -38 183.5 -77t136 -93t90.5 -125t30 -161q0 -207 -147 -333t-391 -126z" />
    <glyph glyph-name="T" unicode="T" horiz-adv-x="1264" 
d="M816 0h-369v1096h-386v343h1142v-343h-387v-1096z" />
    <glyph glyph-name="U" unicode="U" horiz-adv-x="1469" 
d="M733 -31q-192 0 -333.5 78t-213 211.5t-71.5 305.5v875h368v-823q0 -138 66.5 -221t183.5 -83q118 0 185.5 83t67.5 221v823h369v-875q0 -128 -42 -237t-120.5 -188.5t-196.5 -124.5t-263 -45z" />
    <glyph glyph-name="V" unicode="V" horiz-adv-x="1429" 
d="M868 0h-307l-551 1439h394l309 -919h4l307 919h395z" />
    <glyph glyph-name="W" unicode="W" horiz-adv-x="2079" 
d="M873 0h-314l-549 1439h397l315 -920l290 920h390l-171 -516l132 -403l310 919h397l-554 -1439h-311l-164 444z" />
    <glyph glyph-name="X" unicode="X" horiz-adv-x="1428" 
d="M441 0h-433l472 733l-443 706h437l235 -429l229 429h439l-428 -706l459 -733h-435l-265 467z" />
    <glyph glyph-name="Y" unicode="Y" horiz-adv-x="1390" 
d="M880 0h-369v549l-501 890h426l262 -546l254 546h428l-500 -888v-551z" />
    <glyph glyph-name="Z" unicode="Z" horiz-adv-x="1305" 
d="M1232 0h-1158v269l634 837h-622v333h1112v-252l-645 -854h679v-333z" />
    <glyph glyph-name="bracketleft" unicode="[" horiz-adv-x="775" 
d="M765 -432h-622v2025h622v-271h-263v-1485h263v-269z" />
    <glyph glyph-name="backslash" unicode="\" horiz-adv-x="985" 
d="M310 1570l765 -1863h-363l-761 1863h359z" />
    <glyph glyph-name="bracketright" unicode="]" horiz-adv-x="775" 
d="M632 1593v-2025h-622v269h263v1485h-263v271h622z" />
    <glyph glyph-name="asciicircum" unicode="^" horiz-adv-x="1076" 
d="M539 1143l-138 -332l-327 5l389 703h149l390 -703l-327 -5z" />
    <glyph glyph-name="underscore" unicode="_" horiz-adv-x="1176" 
d="M1182 -338h-1187v160h1187v-160z" />
    <glyph glyph-name="grave" unicode="`" horiz-adv-x="613" 
d="M540 1234h-238l-228 297h326z" />
    <glyph glyph-name="a" unicode="a" horiz-adv-x="1323" 
d="M904 980l44 105h256v-1085h-266l-38 98q-117 -124 -299 -124q-149 0 -275 76t-199.5 207t-73.5 286q0 154 73.5 284t199.5 205.5t275 75.5q183 0 303 -128zM634 297q103 0 171.5 68.5t68.5 174.5q0 105 -68 175t-170 70q-103 0 -171 -69.5t-68 -175.5t67.5 -174.5
t169.5 -68.5z" />
    <glyph glyph-name="b" unicode="b" horiz-adv-x="1323" 
d="M722 1108q149 0 275 -75.5t199.5 -205.5t73.5 -284q0 -155 -73.5 -286t-199.5 -207t-275 -76q-182 0 -299 124l-38 -98h-266v1537h346v-514q108 85 257 85zM689 297q102 0 169.5 68.5t67.5 174.5t-68 175.5t-171 69.5q-102 0 -170 -70t-68 -175q0 -106 68.5 -174.5
t171.5 -68.5z" />
    <glyph glyph-name="c" unicode="c" horiz-adv-x="1037" 
d="M623 -31q-123 0 -230 45.5t-181 122.5t-116.5 181t-42.5 219q0 156 72.5 286.5t204 207.5t292.5 77q233 0 391 -143l-170 -248q-95 77 -204 77q-101 0 -172 -73t-71 -184q0 -107 72 -180t171 -73q109 0 204 75l170 -246q-73 -67 -173.5 -105.5t-216.5 -38.5z" />
    <glyph glyph-name="d" unicode="d" horiz-adv-x="1323" 
d="M858 1023v514h346v-1537h-266l-38 98q-117 -124 -299 -124q-149 0 -275 76t-199.5 207t-73.5 286q0 154 73.5 284t199.5 205.5t275 75.5t257 -85zM634 297q103 0 171.5 68.5t68.5 174.5q0 105 -68 175t-170 70q-103 0 -171 -69.5t-68 -175.5t67.5 -174.5t169.5 -68.5z
" />
    <glyph glyph-name="e" unicode="e" horiz-adv-x="1191" 
d="M1129 431h-735q29 -82 96 -126.5t155 -44.5q122 0 215 81l158 -227q-162 -144 -395 -144q-123 0 -230 45.5t-181 122.5t-116.5 181t-42.5 218q0 156 68.5 286t193.5 207.5t280 77.5q171 0 295.5 -72.5t186.5 -198t62 -290.5q0 -50 -10 -116zM609 830q-83 0 -140.5 -45
t-80.5 -130h434q-44 175 -213 175z" />
    <glyph glyph-name="f" unicode="f" horiz-adv-x="691" 
d="M489 0h-346v769h-129v316h129v120q0 197 112.5 291t337.5 94q24 0 36 -0.5t25 -1t30 -0.5v-298q-43 3 -74 3q-65 0 -93.5 -32t-28.5 -97v-79h198v-316h-197v-769z" />
    <glyph glyph-name="g" unicode="g" horiz-adv-x="1304" 
d="M882 986l38 99h266v-921q0 -263 -147.5 -409.5t-420.5 -146.5q-124 0 -263 35.5t-222 95.5l129 262q168 -94 322 -94q120 0 190.5 58.5t70.5 177.5v11q-114 -89 -265 -89q-143 0 -263 62.5t-192 178t-72 258.5q0 145 71 271t193 201t264 75q179 0 301 -125zM628 357
q96 0 162 65.5t66 154.5q0 96 -65.5 162t-162.5 66t-164 -66t-67 -162q0 -89 67 -154.5t164 -65.5z" />
    <glyph glyph-name="h" unicode="h" horiz-adv-x="1305" 
d="M786 1108q194 0 312.5 -126.5t118.5 -345.5v-636h-347v573q0 104 -51 162t-136 58q-91 0 -155.5 -61.5t-64.5 -141.5v-590h-344v1536h344v-552q65 56 153.5 90t169.5 34z" />
    <glyph glyph-name="i" unicode="i" horiz-adv-x="583" 
d="M296 1219q-90 0 -148.5 59.5t-58.5 137.5t58.5 138.5t149.5 60.5t149 -60.5t58 -138.5q0 -79 -58 -138t-150 -59zM465 0h-346v1085h346v-1085z" />
    <glyph glyph-name="j" unicode="j" horiz-adv-x="585" 
d="M298 1219q-90 0 -148.5 59.5t-58.5 137.5t58.5 138.5t149.5 60.5t149 -60.5t58 -138.5q0 -79 -58 -138t-150 -59zM28 -393h-63v304h19q138 0 138 137v1037h345v-1030q0 -220 -115.5 -334t-323.5 -114z" />
    <glyph glyph-name="k" unicode="k" horiz-adv-x="1276" 
d="M1282 0h-410l-278 396l-129 -141v-255h-346v1536h346v-846l327 395h437l-407 -441z" />
    <glyph glyph-name="l" unicode="l" horiz-adv-x="581" 
d="M463 0h-344v1536h344v-1536z" />
    <glyph glyph-name="m" unicode="m" horiz-adv-x="1943" 
d="M1455 1114q184 0 291.5 -122.5t107.5 -355.5v-636h-346v589q0 99 -42 151.5t-120 52.5q-75 0 -127 -53.5t-59 -128.5v-611h-346v589q0 99 -42.5 151.5t-120.5 52.5q-81 0 -133.5 -60.5t-52.5 -142.5v-590h-346v1085h266l41 -106q66 64 153.5 99.5t181.5 35.5
q220 0 325 -171q67 80 165 125.5t204 45.5z" />
    <glyph glyph-name="n" unicode="n" horiz-adv-x="1306" 
d="M788 1108q194 0 312 -126t118 -346v-636h-347v573q0 104 -50.5 162t-136.5 58q-91 0 -155 -61.5t-64 -141.5v-590h-346v1085h266l50 -130q62 68 161.5 110.5t191.5 42.5z" />
    <glyph glyph-name="o" unicode="o" horiz-adv-x="1284" 
d="M639 -31q-122 0 -231 45t-186.5 121t-123 180.5t-45.5 220.5q0 157 77 288t212.5 207.5t299.5 76.5t299.5 -76.5t212.5 -207.5t77 -288q0 -116 -45.5 -221t-124 -181t-188.5 -120.5t-234 -44.5zM642 294q104 0 174.5 70t70.5 174q0 106 -70.5 175.5t-174.5 69.5
t-174.5 -69.5t-70.5 -175.5q0 -104 70.5 -174t174.5 -70z" />
    <glyph glyph-name="p" unicode="p" horiz-adv-x="1323" 
d="M722 1108q149 0 275 -75.5t199.5 -205.5t73.5 -284q0 -155 -73.5 -286t-199.5 -207t-275 -76q-147 0 -257 85v-423h-346v1449h256l44 -105q120 128 303 128zM689 297q102 0 169.5 68.5t67.5 174.5t-68 175.5t-171 69.5q-102 0 -170 -70t-68 -175q0 -106 68.5 -174.5
t171.5 -68.5z" />
    <glyph glyph-name="q" unicode="q" horiz-adv-x="1323" 
d="M904 980l44 105h256v-1449h-346v423q-110 -85 -257 -85q-149 0 -275 76t-199.5 207t-73.5 286q0 154 73.5 284t199.5 205.5t275 75.5q183 0 303 -128zM634 297q103 0 171.5 68.5t68.5 174.5q0 105 -68 175t-170 70q-103 0 -171 -69.5t-68 -175.5t67.5 -174.5t169.5 -68.5
z" />
    <glyph glyph-name="r" unicode="r" horiz-adv-x="943" 
d="M714 1107q136 0 257 -89l-153 -282q-75 54 -148 54q-84 0 -144.5 -67t-60.5 -182v-541h-346v1085h266l51 -133q96 155 278 155z" />
    <glyph glyph-name="s" unicode="s" horiz-adv-x="997" 
d="M525 -31q-273 0 -498 163l149 238q68 -43 161 -74t175 -31q106 0 106 56q0 29 -39.5 49.5t-157.5 52.5q-72 19 -132 48t-110 70.5t-78 98.5t-28 125q0 149 123 247t335 98q201 0 411 -132l-154 -247q-53 33 -132 57.5t-141 24.5q-98 0 -98 -54q0 -28 37 -46.5t147 -47.5
q181 -46 272.5 -125.5t91.5 -222.5q0 -151 -121.5 -249.5t-318.5 -98.5z" />
    <glyph glyph-name="t" unicode="t" horiz-adv-x="707" 
d="M492 0h-347v769h-131v316h130v252l349 86v-338h209v-316h-210v-769z" />
    <glyph glyph-name="u" unicode="u" horiz-adv-x="1307" 
d="M842 496v589h346v-1085h-266l-51 130q-62 -68 -161.5 -110.5t-191.5 -42.5q-193 0 -311 126.5t-118 346.5v635h346v-573q0 -104 51 -161.5t137 -57.5q91 0 155 61.5t64 141.5z" />
    <glyph glyph-name="v" unicode="v" horiz-adv-x="1219" 
d="M778 0h-338l-433 1085h381l221 -694l222 694h382z" />
    <glyph glyph-name="w" unicode="w" horiz-adv-x="1774" 
d="M1164 391l227 694h376l-407 -1085h-319l-147 394l-141 -394h-337l-409 1085h370l209 -694l185 694h370l-110 -306z" />
    <glyph glyph-name="x" unicode="x" horiz-adv-x="1215" 
d="M414 0h-405l378 551l-360 534h411l169 -314l173 314h407l-352 -534l371 -551h-404l-196 335z" />
    <glyph glyph-name="y" unicode="y" horiz-adv-x="1219" 
d="M654 -364h-368l150 367l-429 1082h378l222 -679l222 679h383z" />
    <glyph glyph-name="z" unicode="z" horiz-adv-x="1062" 
d="M1005 0h-936v234l460 545h-445v306h897v-228l-463 -552h487v-305z" />
    <glyph glyph-name="braceleft" unicode="{" horiz-adv-x="756" 
d="M746 -152v-278q-205 0 -325 40t-172 121t-52 217v261q0 139 -37.5 199t-149.5 71v228q112 12 149.5 70t37.5 221v248q0 133 51.5 212.5t172 119t324.5 39.5v-278q-113 0 -151.5 -28.5t-38.5 -114.5v-297q0 -133 -38.5 -200.5t-132.5 -104.5q95 -36 133 -107t38 -200v-268
q0 -106 36 -137t155 -34z" />
    <glyph glyph-name="bar" unicode="|" horiz-adv-x="618" 
d="M475 -403h-332v2005h332v-2005z" />
    <glyph glyph-name="braceright" unicode="}" horiz-adv-x="756" 
d="M10 -430v278q119 3 155.5 34t36.5 137v268q0 129 38 200t133 107q-94 37 -132.5 104.5t-38.5 200.5v297q0 86 -39 114.5t-152 28.5v278q204 0 324.5 -39.5t172.5 -119t52 -212.5v-248q0 -163 37.5 -221t148.5 -70v-228q-111 -11 -148.5 -71t-37.5 -199v-261
q0 -203 -123.5 -290.5t-426.5 -87.5z" />
    <glyph glyph-name="asciitilde" unicode="~" horiz-adv-x="1186" 
d="M822 457q-72 0 -158.5 30.5t-164.5 61t-130 30.5q-139 0 -251 -86q-17 100 -44 249q143 110 288 110q58 0 125 -19t117 -41.5t109 -41.5t104 -19q76 0 133.5 21.5t118.5 62.5q7 -39 22 -122t22 -126q-52 -44 -130.5 -77t-160.5 -33z" />
    <glyph glyph-name="uni00A0" unicode="&#xa0;" horiz-adv-x="252" 
 />
    <glyph glyph-name="exclamdown" unicode="&#xa1;" horiz-adv-x="683" 
d="M341 1109q88 0 143.5 -51.5t55.5 -126.5t-55.5 -127t-143.5 -52q-87 0 -142.5 52t-55.5 127q0 74 55.5 126t142.5 52zM180 -312l14 956h300l13 -956h-327z" />
    <glyph glyph-name="cent" unicode="&#xa2;" horiz-adv-x="1037" 
d="M843 359l170 -246q-96 -88 -234 -124v-248h-330v254q-179 54 -287.5 203t-108.5 339q0 192 109 341.5t287 203.5v268h330v-261q135 -35 234 -124l-170 -248q-95 77 -204 77q-101 0 -172 -73t-71 -184q0 -107 72 -180t171 -73q109 0 204 75z" />
    <glyph glyph-name="sterling" unicode="&#xa3;" horiz-adv-x="1275" 
d="M954 535h-367v-205h546v-330h-893v535h-180v232h180v233q0 216 132 342.5t346 126.5q164 0 278.5 -59.5t207.5 -184.5l-205 -203q-65 59 -117 88t-118 29q-79 0 -128 -41.5t-49 -124.5v-206h367v-232z" />
    <glyph glyph-name="currency" unicode="&#xa4;" horiz-adv-x="1158" 
d="M579 248q-117 0 -207 48l-112 -111l-186 185l104 105q-57 96 -57 213q0 114 57 216l-104 107l186 184l115 -116q89 50 204 50q113 0 205 -50l113 116l187 -185l-104 -105q60 -103 60 -215q0 -117 -59 -218l103 -102l-187 -185l-112 111q-89 -48 -206 -48zM581 479
q89 0 150 61t61 148t-61.5 148.5t-149.5 61.5q-87 0 -148 -61.5t-61 -148.5q0 -86 61.5 -147.5t147.5 -61.5z" />
    <glyph glyph-name="yen" unicode="&#xa5;" horiz-adv-x="1390" 
d="M952 1439h428l-399 -708h181v-192h-282v-94h282v-192h-282v-253h-369v253h-289v192h289v94h-289v192h187l-399 708h426l262 -546z" />
    <glyph glyph-name="brokenbar" unicode="&#xa6;" horiz-adv-x="616" 
d="M485 647h-332v891h332v-891zM485 -341h-332v889h332v-889z" />
    <glyph glyph-name="section" unicode="&#xa7;" horiz-adv-x="1063" 
d="M508 -342q-136 0 -258 51t-213 134l185 211q52 -46 126 -79t147 -33q140 0 140 80q0 39 -50 66t-168 67q-76 26 -132.5 51t-108 59.5t-84 73.5t-51.5 91t-19 115q0 177 135 285q-86 94 -86 228q0 71 25.5 134t76.5 115t137 82.5t198 30.5q135 0 257.5 -50t213.5 -135
l-185 -211q-52 46 -126 79.5t-147 33.5q-139 0 -139 -80q0 -21 14 -38.5t49 -34.5t65 -28.5t90 -31.5q96 -32 163 -65.5t122 -79t82 -106.5t27 -138q0 -179 -134 -287q86 -95 86 -228q0 -71 -25.5 -134t-76.5 -115t-137.5 -82.5t-198.5 -30.5zM539 430q63 0 101 27t38 70
q0 54 -56 87.5t-144 33.5q-63 0 -101.5 -27t-38.5 -70q0 -54 58 -87.5t143 -33.5z" />
    <glyph glyph-name="dieresis" unicode="&#xa8;" horiz-adv-x="872" 
d="M221 1226q-64 0 -105.5 39.5t-41.5 101.5q0 64 41 103.5t106 39.5t106.5 -40t41.5 -103q0 -61 -41.5 -101t-106.5 -40zM651 1226q-64 0 -105 39.5t-41 101.5q0 64 40.5 103.5t105.5 39.5t106.5 -39.5t41.5 -103.5q0 -62 -41.5 -101.5t-106.5 -39.5z" />
    <glyph glyph-name="copyright" unicode="&#xa9;" horiz-adv-x="1799" 
d="M825 1475q205 0 377.5 -100.5t273 -273.5t100.5 -378t-100.5 -377.5t-273 -272.5t-377.5 -100q-154 0 -293 59t-239.5 159.5t-159.5 239.5t-59 292q0 205 100 378t273 273.5t378 100.5zM825 1339q-168 0 -310 -82t-224.5 -223.5t-82.5 -309.5q0 -169 82.5 -310.5
t224.5 -223.5t310 -82t310 82t224 223.5t82 310.5q0 126 -48.5 239.5t-131 196t-196.5 131t-240 48.5zM833 275q-134 0 -241 63t-165 167t-58 227q0 190 133 324t326 134q187 0 308 -116l-161 -243q-55 47 -124 47q-61 0 -102 -41t-41 -105q0 -62 41 -103t100 -41
q71 0 126 45l161 -242q-54 -53 -134 -84.5t-169 -31.5z" />
    <glyph glyph-name="ordfeminine" unicode="&#xaa;" horiz-adv-x="1335" 
d="M908 980l44 105h256v-1085h-266l-38 98q-117 -124 -299 -124q-149 0 -275 76t-199.5 207t-73.5 286q0 154 73.5 284t199.5 205.5t275 75.5q183 0 303 -128zM638 297q103 0 172 68.5t69 174.5q0 105 -68.5 175t-170.5 70q-103 0 -171 -69.5t-68 -175.5t67.5 -174.5
t169.5 -68.5z" />
    <glyph glyph-name="guillemotleft" unicode="&#xab;" horiz-adv-x="1236" 
d="M683 209l-222 -202l-454 506l454 508l222 -202l-263 -306zM1230 209l-222 -202l-454 506l454 508l222 -202l-262 -306z" />
    <glyph glyph-name="logicalnot" unicode="&#xac;" horiz-adv-x="1202" 
d="M1128 243h-331v298h-723v274h1054v-572z" />
    <glyph glyph-name="uni00AD" unicode="&#xad;" horiz-adv-x="907" 
d="M834 400h-760v283h760v-283z" />
    <glyph glyph-name="registered" unicode="&#xae;" horiz-adv-x="899" 
d="M452 1568q165 0 269 -104.5t104 -268.5q0 -165 -104 -269.5t-269 -104.5q-167 0 -272.5 104.5t-105.5 269.5q0 164 106 268.5t272 104.5zM454 860q147 0 239.5 93t92.5 241t-92.5 241t-239.5 93q-150 0 -244.5 -93t-94.5 -241t94.5 -241t244.5 -93zM623 1266
q0 -89 -82 -127l104 -158h-123l-88 138h-40v-138h-106v432h183q67 0 109.5 -41t42.5 -106zM462 1313h-68v-103h67q22 0 37 15.5t15 38.5t-15 36t-36 13z" />
    <glyph glyph-name="macron" unicode="&#xaf;" horiz-adv-x="733" 
d="M659 1233h-585v205h585v-205z" />
    <glyph glyph-name="degree" unicode="&#xb0;" horiz-adv-x="899" 
d="M453 787q-156 0 -267.5 110t-111.5 263q0 154 111 263.5t268 109.5q154 0 263 -109t109 -264q0 -153 -109 -263t-263 -110zM453 1032q51 0 88.5 37t37.5 91t-37.5 92t-88.5 38q-54 0 -90.5 -37.5t-36.5 -92.5q0 -54 36.5 -91t90.5 -37z" />
    <glyph glyph-name="plusminus" unicode="&#xb1;" horiz-adv-x="1123" 
d="M1050 837v-256h-359v-328h359v-256h-976v256h352v328h-352v256h352v368h265v-368h359z" />
    <glyph glyph-name="uni00B2" unicode="&#xb2;" horiz-adv-x="711" 
d="M637 790h-584v171l253 252q27 26 41 40.5t33.5 44.5t19.5 52q0 47 -59 47q-31 0 -54.5 -21.5t-34.5 -59.5l-194 87q43 109 121.5 162.5t178.5 53.5q126 0 205 -78t79 -179q0 -52 -14.5 -98.5t-41 -84t-47.5 -60t-52 -50.5l-60 -55h210v-224z" />
    <glyph glyph-name="uni00B3" unicode="&#xb3;" horiz-adv-x="764" 
d="M385 769q-224 0 -311 216l190 87q19 -43 43 -62t63 -19q38 0 58.5 19t20.5 52q0 27 -31 44.5t-82 17.5h-65v167l109 97h-249v219h509v-194l-141 -138q19 -2 42 -10t50 -26t49 -43t36.5 -64t14.5 -86q0 -124 -86 -200.5t-220 -76.5z" />
    <glyph glyph-name="acute" unicode="&#xb4;" horiz-adv-x="613" 
d="M540 1531l-229 -297h-237l139 297h327z" />
    <glyph glyph-name="uni00B5" unicode="&#xb5;" horiz-adv-x="1307" 
d="M842 496v589h346v-1085h-266l-51 130q-62 -68 -161.5 -110.5t-191.5 -42.5q-22 0 -58 4v-413h-344v696q-27 87 -27 186v635h346v-543h25v-151q47 -98 163 -98q91 0 155 61.5t64 141.5z" />
    <glyph glyph-name="paragraph" unicode="&#xb6;" horiz-adv-x="1656" 
d="M1595 1405v-262h-203v-1370h-329v1370h-160v-1370h-317v822h-170q-153 0 -264 111.5t-111 288.5q0 123 62 217.5t163.5 143.5t222.5 49h1106z" />
    <glyph glyph-name="periodcentered" unicode="&#xb7;" horiz-adv-x="543" 
d="M271 342q-87 0 -142 53t-55 130q0 78 55 132t142 54q88 0 143.5 -54t55.5 -132q0 -77 -55.5 -130t-143.5 -53z" />
    <glyph glyph-name="cedilla" unicode="&#xb8;" horiz-adv-x="475" 
d="M109 10h183q42 -41 75.5 -99t33.5 -110q0 -32 -7 -57t-27 -50.5t-53 -43t-89 -30t-131 -15.5l-20 155q76 8 98.5 27t22.5 54q0 32 -17.5 64.5t-68.5 104.5z" />
    <glyph glyph-name="uni00B9" unicode="&#xb9;" horiz-adv-x="527" 
d="M384 790h-257v548l-117 -54v244l156 79h218v-817z" />
    <glyph glyph-name="ordmasculine" unicode="&#xba;" horiz-adv-x="1292" 
d="M643 -33q-122 0 -231 45t-186.5 121t-123 181.5t-45.5 221.5q0 157 77 288t212.5 207.5t299.5 76.5t299.5 -76.5t212.5 -207.5t77 -288q0 -117 -45.5 -222t-124 -181t-188.5 -121t-234 -45zM646 292q104 0 174.5 70.5t70.5 175.5q0 106 -70.5 175.5t-174.5 69.5
t-174.5 -69.5t-70.5 -175.5q0 -105 70.5 -175.5t174.5 -70.5z" />
    <glyph glyph-name="guillemotright" unicode="&#xbb;" horiz-adv-x="1236" 
d="M683 513l-454 -506l-222 202l262 304l-262 306l222 202zM1230 513l-454 -506l-222 202l263 304l-263 306l222 202z" />
    <glyph glyph-name="questiondown" unicode="&#xbf;" horiz-adv-x="1078" 
d="M604 1110q85 0 139.5 -50.5t54.5 -123.5q0 -74 -54.5 -124t-140.5 -50q-87 0 -141 50t-54 124t54.5 124t141.5 50zM462 647h301v-42q0 -124 -39 -204.5t-141 -149.5q-42 -29 -66 -47.5t-51.5 -44t-40.5 -50.5t-13 -50q0 -124 160 -124q162 0 162 160h334
q0 -203 -126.5 -315.5t-380.5 -112.5q-208 0 -347.5 110.5t-139.5 290.5q0 51 16 98t38.5 80.5t59.5 68.5t67 56.5t73 49.5q70 45 102 88.5t32 96.5v41z" />
    <glyph glyph-name="Agrave" unicode="&#xc0;" horiz-adv-x="1449" 
d="M677 1796l178 -260h-260l-251 260h333zM1440 0h-380l-77 225h-516l-77 -225h-380l555 1441h323zM709 936l-138 -404h309l-138 404l-16 65h-2z" />
    <glyph glyph-name="Aacute" unicode="&#xc1;" horiz-adv-x="1449" 
d="M707 1796h332l-251 -260h-260zM1440 0h-380l-77 225h-516l-77 -225h-380l555 1441h323zM709 936l-138 -404h309l-138 404l-16 65h-2z" />
    <glyph glyph-name="Acircumflex" unicode="&#xc2;" horiz-adv-x="1449" 
d="M916 1514l-205 135l-206 -135l-112 156l289 204h58l287 -204zM1440 0h-380l-77 225h-516l-77 -225h-380l555 1441h323zM709 936l-138 -404h309l-138 404l-16 65h-2z" />
    <glyph glyph-name="Atilde" unicode="&#xc3;" horiz-adv-x="1449" 
d="M583 1591q-36 0 -71 -59l-135 76q45 110 98.5 153.5t114.5 43.5q62 0 142.5 -31.5t102.5 -31.5q35 0 70 59l134 -76q-78 -197 -212 -197q-62 0 -142 31.5t-102 31.5zM1440 0h-380l-77 225h-516l-77 -225h-380l555 1441h323zM709 936l-138 -404h309l-138 404l-16 65h-2z
" />
    <glyph glyph-name="Adieresis" unicode="&#xc4;" horiz-adv-x="1449" 
d="M495 1537q-65 0 -106.5 39.5t-41.5 101.5q0 63 41.5 103t106.5 40t106 -40t41 -103q0 -62 -41 -101.5t-106 -39.5zM925 1537q-65 0 -106 39.5t-41 101.5q0 63 41 103t106 40t106 -40t41 -103q0 -62 -41 -101.5t-106 -39.5zM1440 0h-380l-77 225h-516l-77 -225h-380
l555 1441h323zM709 936l-138 -404h309l-138 404l-16 65h-2z" />
    <glyph glyph-name="Aring" unicode="&#xc5;" horiz-adv-x="1449" 
d="M711 1540q-84 0 -136.5 46.5t-52.5 124.5q0 80 52 126.5t137 46.5q84 0 136 -46.5t52 -126.5q0 -78 -52 -124.5t-136 -46.5zM711 1776q-29 0 -47.5 -18t-18.5 -46t18.5 -45t47.5 -17t47 17t18 45q0 29 -18 46.5t-47 17.5zM1440 0h-380l-77 225h-516l-77 -225h-380
l555 1441h323zM709 936l-138 -404h309l-138 404l-16 65h-2z" />
    <glyph glyph-name="AE" unicode="&#xc6;" horiz-adv-x="2241" 
d="M1476 573v-240h692v-333h-1061v208h-520l-137 -209h-440l1018 1440h1124v-333h-676v-224h529v-309h-529zM1107 1000l-295 -448h295v448z" />
    <glyph glyph-name="Ccedilla" unicode="&#xc7;" horiz-adv-x="1351" 
d="M1104 432l204 -282q-179 -150 -406 -172q90 -134 90 -222q0 -44 -12.5 -75.5t-46.5 -61.5t-102.5 -47t-170.5 -21l-20 164q76 8 98.5 27t22.5 54q0 34 -21.5 78t-72.5 116h1q-260 53 -427 257.5t-167 474.5q0 205 98 376t270 269.5t380 98.5q280 0 486 -174l-207 -280
q-56 44 -130.5 72.5t-148.5 28.5q-152 0 -263.5 -114t-111.5 -278q0 -165 111.5 -279t263.5 -114q80 0 144 23t138 81z" />
    <glyph glyph-name="Egrave" unicode="&#xc8;" horiz-adv-x="1277" 
d="M835 1536h-261l-250 260h332zM1204 0h-1061v1439h1046v-333h-677v-224h529v-309h-529v-240h692v-333z" />
    <glyph glyph-name="Eacute" unicode="&#xc9;" horiz-adv-x="1277" 
d="M1019 1796l-251 -260h-260l178 260h333zM1204 0h-1061v1439h1046v-333h-677v-224h529v-309h-529v-240h692v-333z" />
    <glyph glyph-name="Ecircumflex" unicode="&#xca;" horiz-adv-x="1277" 
d="M690 1649l-206 -135l-111 156l289 204h58l287 -204l-111 -156zM1204 0h-1061v1439h1046v-333h-677v-224h529v-309h-529v-240h692v-333z" />
    <glyph glyph-name="Edieresis" unicode="&#xcb;" horiz-adv-x="1277" 
d="M474 1537q-65 0 -106 39.5t-41 101.5q0 63 41 103t106 40t106.5 -40t41.5 -103q0 -62 -41.5 -101.5t-106.5 -39.5zM904 1537q-64 0 -105 39.5t-41 101.5q0 63 41 103t105 40q65 0 106.5 -40t41.5 -103q0 -62 -41.5 -101.5t-106.5 -39.5zM1204 0h-1061v1439h1046v-333
h-677v-224h529v-309h-529v-240h692v-333z" />
    <glyph glyph-name="Igrave" unicode="&#xcc;" horiz-adv-x="655" 
d="M461 1536h-260l-251 260h333zM512 0h-369v1439h369v-1439z" />
    <glyph glyph-name="Iacute" unicode="&#xcd;" horiz-adv-x="655" 
d="M645 1796l-251 -260h-260l178 260h333zM512 0h-369v1439h369v-1439z" />
    <glyph glyph-name="Icircumflex" unicode="&#xce;" horiz-adv-x="655" 
d="M316 1649l-205 -135l-112 156l289 204h58l287 -204l-111 -156zM512 0h-369v1439h369v-1439z" />
    <glyph glyph-name="Idieresis" unicode="&#xcf;" horiz-adv-x="655" 
d="M100 1537q-65 0 -106 39.5t-41 101.5q0 63 41 103t106 40t106.5 -40t41.5 -103q0 -62 -41.5 -101.5t-106.5 -39.5zM530 1537q-64 0 -105 39.5t-41 101.5q0 63 41 103t105 40q65 0 106.5 -40t41.5 -103q0 -62 -41.5 -101.5t-106.5 -39.5zM512 0h-369v1439h369v-1439z" />
    <glyph glyph-name="Eth" unicode="&#xd0;" horiz-adv-x="1516" 
d="M143 1439h542q156 0 296 -55t241.5 -150t161 -229t59.5 -285q0 -202 -100.5 -367.5t-273.5 -259t-381 -93.5h-545v583h-153v282h153v574zM512 349h188q160 0 264.5 104t104.5 267q0 161 -104.5 265.5t-265.5 104.5h-187v-225h237v-282h-237v-234z" />
    <glyph glyph-name="Ntilde" unicode="&#xd1;" horiz-adv-x="1542" 
d="M571 1532l-135 76q45 110 98.5 153.5t114.5 43.5q62 0 142.5 -31.5t102.5 -31.5q36 0 71 59l134 -76q-78 -197 -212 -197q-62 0 -142.5 31.5t-102.5 31.5q-36 0 -71 -59zM502 0h-359v1439h369l528 -813v813h359v-1439h-334l-563 858v-858z" />
    <glyph glyph-name="Ograve" unicode="&#xd2;" horiz-adv-x="1643" 
d="M967 1536h-260l-251 260h332zM822 -26q-156 0 -295 59t-238.5 159.5t-157 238.5t-57.5 291q0 205 98 376t270 269.5t380 98.5q156 0 294.5 -58t238 -157.5t157.5 -237t58 -291.5q0 -153 -58 -291t-157 -238.5t-238.5 -159.5t-294.5 -59zM822 328q153 0 263.5 114
t110.5 279t-111 278.5t-263 113.5t-263.5 -114t-111.5 -278q0 -165 111.5 -279t263.5 -114z" />
    <glyph glyph-name="Oacute" unicode="&#xd3;" horiz-adv-x="1643" 
d="M1151 1796l-251 -260h-260l178 260h333zM822 -26q-156 0 -295 59t-238.5 159.5t-157 238.5t-57.5 291q0 205 98 376t270 269.5t380 98.5q156 0 294.5 -58t238 -157.5t157.5 -237t58 -291.5q0 -153 -58 -291t-157 -238.5t-238.5 -159.5t-294.5 -59zM822 328
q153 0 263.5 114t110.5 279t-111 278.5t-263 113.5t-263.5 -114t-111.5 -278q0 -165 111.5 -279t263.5 -114z" />
    <glyph glyph-name="Ocircumflex" unicode="&#xd4;" horiz-adv-x="1643" 
d="M822 1649l-206 -135l-111 156l289 204h58l287 -204l-111 -156zM822 -26q-156 0 -295 59t-238.5 159.5t-157 238.5t-57.5 291q0 205 98 376t270 269.5t380 98.5q156 0 294.5 -58t238 -157.5t157.5 -237t58 -291.5q0 -153 -58 -291t-157 -238.5t-238.5 -159.5t-294.5 -59z
M822 328q153 0 263.5 114t110.5 279t-111 278.5t-263 113.5t-263.5 -114t-111.5 -278q0 -165 111.5 -279t263.5 -114z" />
    <glyph glyph-name="Otilde" unicode="&#xd5;" horiz-adv-x="1643" 
d="M624 1532l-136 76q45 110 98.5 153.5t114.5 43.5q62 0 142.5 -31.5t102.5 -31.5q36 0 71 59l134 -76q-78 -197 -212 -197q-62 0 -142.5 31.5t-102.5 31.5q-35 0 -70 -59zM822 -26q-156 0 -295 59t-238.5 159.5t-157 238.5t-57.5 291q0 205 98 376t270 269.5t380 98.5
q156 0 294.5 -58t238 -157.5t157.5 -237t58 -291.5q0 -153 -58 -291t-157 -238.5t-238.5 -159.5t-294.5 -59zM822 328q153 0 263.5 114t110.5 279t-111 278.5t-263 113.5t-263.5 -114t-111.5 -278q0 -165 111.5 -279t263.5 -114z" />
    <glyph glyph-name="Odieresis" unicode="&#xd6;" horiz-adv-x="1643" 
d="M606 1537q-65 0 -106 39.5t-41 101.5q0 63 41 103t106 40t106.5 -40t41.5 -103q0 -62 -41.5 -101.5t-106.5 -39.5zM1036 1537q-64 0 -105 39.5t-41 101.5q0 63 41 103t105 40q65 0 106.5 -40t41.5 -103q0 -62 -41.5 -101.5t-106.5 -39.5zM822 -26q-156 0 -295 59
t-238.5 159.5t-157 238.5t-57.5 291q0 205 98 376t270 269.5t380 98.5q156 0 294.5 -58t238 -157.5t157.5 -237t58 -291.5q0 -153 -58 -291t-157 -238.5t-238.5 -159.5t-294.5 -59zM822 328q153 0 263.5 114t110.5 279t-111 278.5t-263 113.5t-263.5 -114t-111.5 -278
q0 -165 111.5 -279t263.5 -114z" />
    <glyph glyph-name="multiply" unicode="&#xd7;" horiz-adv-x="1056" 
d="M530 495l-256 -258l-200 196l255 257l-245 248l198 194l246 -246l256 257l199 -197l-256 -260l249 -250l-196 -192z" />
    <glyph glyph-name="Oslash" unicode="&#xd8;" horiz-adv-x="1643" 
d="M1428 1540l-124 -244q125 -104 195.5 -253t70.5 -321q0 -153 -58 -291t-157 -238.5t-238.5 -159.5t-294.5 -59q-89 0 -186 23l-47 -92h-356l119 231q-130 104 -204 257t-74 329q0 205 98 376t270 269.5t380 98.5q103 0 201 -25l51 99h354zM447 721q0 -136 81 -243
l326 634q-10 1 -32 1q-152 0 -263.5 -114t-111.5 -278zM822 328q153 0 263.5 114t110.5 279q0 127 -71 229l-319 -622h16z" />
    <glyph glyph-name="Ugrave" unicode="&#xd9;" horiz-adv-x="1469" 
d="M858 1536h-260l-251 260h333zM733 -31q-192 0 -333.5 78t-213 211.5t-71.5 305.5v875h368v-823q0 -138 66.5 -221t183.5 -83q118 0 185.5 83t67.5 221v823h369v-875q0 -128 -42 -237t-120.5 -188.5t-196.5 -124.5t-263 -45z" />
    <glyph glyph-name="Uacute" unicode="&#xda;" horiz-adv-x="1469" 
d="M1042 1796l-250 -260h-261l179 260h332zM733 -31q-192 0 -333.5 78t-213 211.5t-71.5 305.5v875h368v-823q0 -138 66.5 -221t183.5 -83q118 0 185.5 83t67.5 221v823h369v-875q0 -128 -42 -237t-120.5 -188.5t-196.5 -124.5t-263 -45z" />
    <glyph glyph-name="Ucircumflex" unicode="&#xdb;" horiz-adv-x="1469" 
d="M714 1649l-206 -135l-112 156l289 204h58l287 -204l-110 -156zM733 -31q-192 0 -333.5 78t-213 211.5t-71.5 305.5v875h368v-823q0 -138 66.5 -221t183.5 -83q118 0 185.5 83t67.5 221v823h369v-875q0 -128 -42 -237t-120.5 -188.5t-196.5 -124.5t-263 -45z" />
    <glyph glyph-name="Udieresis" unicode="&#xdc;" horiz-adv-x="1469" 
d="M498 1537q-65 0 -106.5 39.5t-41.5 101.5q0 63 41.5 103t106.5 40t106 -40t41 -103q0 -62 -41 -101.5t-106 -39.5zM928 1537q-65 0 -106 39.5t-41 101.5q0 63 41 103t106 40t106 -40t41 -103q0 -62 -41 -101.5t-106 -39.5zM733 -31q-192 0 -333.5 78t-213 211.5
t-71.5 305.5v875h368v-823q0 -138 66.5 -221t183.5 -83q118 0 185.5 83t67.5 221v823h369v-875q0 -128 -42 -237t-120.5 -188.5t-196.5 -124.5t-263 -45z" />
    <glyph glyph-name="Yacute" unicode="&#xdd;" horiz-adv-x="1390" 
d="M1026 1796l-251 -260h-260l178 260h333zM880 0h-369v549l-501 890h426l262 -546l254 546h428l-500 -888v-551z" />
    <glyph glyph-name="Thorn" unicode="&#xde;" horiz-adv-x="1271" 
d="M515 1231h179q233 0 368.5 -136.5t135.5 -373.5q0 -236 -138 -374.5t-360 -138.5h-185v-208h-372v1439h372v-208zM515 553h130q83 0 137 43t54 125q0 81 -54 123t-136 42h-131v-333z" />
    <glyph glyph-name="germandbls" unicode="&#xdf;" horiz-adv-x="1313" 
d="M465 0h-346v1062q0 105 29.5 190t78.5 141t116.5 94t141 54.5t153.5 16.5q230 0 374.5 -118t144.5 -292q0 -222 -172 -308q127 -36 201.5 -134t74.5 -226q0 -218 -146.5 -349t-379.5 -131h-120v321h112q85 0 136 44.5t51 117.5q0 71 -52 112t-141 41h-63v310h22
q60 0 99 39.5t39 100.5q0 66 -49 107.5t-129 41.5t-127.5 -52t-47.5 -127v-1056z" />
    <glyph glyph-name="agrave" unicode="&#xe0;" horiz-adv-x="1323" 
d="M734 1498l139 -297h-237l-228 297h326zM904 980l44 105h256v-1085h-266l-38 98q-117 -124 -299 -124q-149 0 -275 76t-199.5 207t-73.5 286q0 154 73.5 284t199.5 205.5t275 75.5q183 0 303 -128zM634 297q103 0 171.5 68.5t68.5 174.5q0 105 -68 175t-170 70
q-103 0 -171 -69.5t-68 -175.5t67.5 -174.5t169.5 -68.5z" />
    <glyph glyph-name="aacute" unicode="&#xe1;" horiz-adv-x="1323" 
d="M702 1498h327l-228 -297h-238zM904 980l44 105h256v-1085h-266l-38 98q-117 -124 -299 -124q-149 0 -275 76t-199.5 207t-73.5 286q0 154 73.5 284t199.5 205.5t275 75.5q183 0 303 -128zM634 297q103 0 171.5 68.5t68.5 174.5q0 105 -68 175t-170 70q-103 0 -171 -69.5
t-68 -175.5t67.5 -174.5t169.5 -68.5z" />
    <glyph glyph-name="acircumflex" unicode="&#xe2;" horiz-adv-x="1323" 
d="M867 1176l-207 121l-204 -121l-105 156l280 180h61l279 -180zM904 980l44 105h256v-1085h-266l-38 98q-117 -124 -299 -124q-149 0 -275 76t-199.5 207t-73.5 286q0 154 73.5 284t199.5 205.5t275 75.5q183 0 303 -128zM634 297q103 0 171.5 68.5t68.5 174.5
q0 105 -68 175t-170 70q-103 0 -171 -69.5t-68 -175.5t67.5 -174.5t169.5 -68.5z" />
    <glyph glyph-name="atilde" unicode="&#xe3;" horiz-adv-x="1323" 
d="M537 1252q-36 0 -71 -59l-135 76q45 110 98.5 153.5t114.5 43.5q62 0 142 -31.5t102 -31.5q36 0 71 59l134 -76q-78 -197 -212 -197q-62 0 -142 31.5t-102 31.5zM904 980l44 105h256v-1085h-266l-38 98q-117 -124 -299 -124q-149 0 -275 76t-199.5 207t-73.5 286
q0 154 73.5 284t199.5 205.5t275 75.5q183 0 303 -128zM634 297q103 0 171.5 68.5t68.5 174.5q0 105 -68 175t-170 70q-103 0 -171 -69.5t-68 -175.5t67.5 -174.5t169.5 -68.5z" />
    <glyph glyph-name="adieresis" unicode="&#xe4;" horiz-adv-x="1323" 
d="M445 1193q-64 0 -105.5 39.5t-41.5 101.5q0 64 41 104t106 40t106.5 -40t41.5 -104q0 -61 -41.5 -101t-106.5 -40zM876 1193q-64 0 -105.5 39.5t-41.5 101.5q0 64 41 104t106 40t106 -40t41 -104q0 -62 -41 -101.5t-106 -39.5zM904 980l44 105h256v-1085h-266l-38 98
q-117 -124 -299 -124q-149 0 -275 76t-199.5 207t-73.5 286q0 154 73.5 284t199.5 205.5t275 75.5q183 0 303 -128zM634 297q103 0 171.5 68.5t68.5 174.5q0 105 -68 175t-170 70q-103 0 -171 -69.5t-68 -175.5t67.5 -174.5t169.5 -68.5z" />
    <glyph glyph-name="aring" unicode="&#xe5;" horiz-adv-x="1323" 
d="M665 1201q-91 0 -147.5 50t-56.5 135q0 87 56.5 137.5t147.5 50.5t147.5 -50.5t56.5 -137.5q0 -85 -56.5 -135t-147.5 -50zM665 1456q-31 0 -51 -19t-20 -49t20 -49t51 -19q32 0 51.5 18.5t19.5 49.5t-19.5 49.5t-51.5 18.5zM904 980l44 105h256v-1085h-266l-38 98
q-117 -124 -299 -124q-149 0 -275 76t-199.5 207t-73.5 286q0 154 73.5 284t199.5 205.5t275 75.5q183 0 303 -128zM634 297q103 0 171.5 68.5t68.5 174.5q0 105 -68 175t-170 70q-103 0 -171 -69.5t-68 -175.5t67.5 -174.5t169.5 -68.5z" />
    <glyph glyph-name="ae" unicode="&#xe6;" horiz-adv-x="2048" 
d="M1986 431h-736q29 -82 96 -126.5t155 -44.5q122 0 215 81l158 -227q-162 -144 -395 -144q-177 0 -320 93l-24 -63h-164l-41 115q-131 -144 -336 -144q-148 0 -273 76t-196.5 206.5t-71.5 285.5q0 154 72 285t196.5 207.5t272.5 76.5q207 0 338 -149l50 126h153l23 -62
q133 85 293 85q171 0 295.5 -72.5t186.5 -198t62 -290.5q0 -57 -9 -116zM1465 830q-83 0 -140.5 -45t-80.5 -130h434q-44 175 -213 175zM646 285q106 0 177 71t71 181q0 112 -70.5 183.5t-177.5 71.5q-105 0 -177.5 -72t-72.5 -183q0 -109 72.5 -180.5t177.5 -71.5z" />
    <glyph glyph-name="ccedilla" unicode="&#xe7;" horiz-adv-x="1037" 
d="M843 359l170 -246q-130 -118 -314 -140q77 -93 77 -172q0 -32 -7 -57t-27 -50.5t-53 -43t-89 -30t-131 -15.5l-20 155q76 8 98 27t22 54q0 28 -14.5 58t-50.5 82q-201 39 -326 195.5t-125 360.5q0 156 72.5 286.5t204 207.5t292.5 77q233 0 391 -143l-170 -248
q-95 77 -204 77q-101 0 -172 -73t-71 -184q0 -107 72 -180t171 -73q109 0 204 75z" />
    <glyph glyph-name="egrave" unicode="&#xe8;" horiz-adv-x="1191" 
d="M672 1495l139 -297h-238l-228 297h327zM1129 431h-735q29 -82 96 -126.5t155 -44.5q122 0 215 81l158 -227q-162 -144 -395 -144q-123 0 -230 45.5t-181 122.5t-116.5 181t-42.5 218q0 156 68.5 286t193.5 207.5t280 77.5q171 0 295.5 -72.5t186.5 -198t62 -290.5
q0 -50 -10 -116zM609 830q-83 0 -140.5 -45t-80.5 -130h434q-44 175 -213 175z" />
    <glyph glyph-name="eacute" unicode="&#xe9;" horiz-adv-x="1191" 
d="M640 1495h327l-229 -297h-237zM1129 431h-735q29 -82 96 -126.5t155 -44.5q122 0 215 81l158 -227q-162 -144 -395 -144q-123 0 -230 45.5t-181 122.5t-116.5 181t-42.5 218q0 156 68.5 286t193.5 207.5t280 77.5q171 0 295.5 -72.5t186.5 -198t62 -290.5q0 -50 -10 -116
zM609 830q-83 0 -140.5 -45t-80.5 -130h434q-44 175 -213 175z" />
    <glyph glyph-name="ecircumflex" unicode="&#xea;" horiz-adv-x="1191" 
d="M805 1172l-207 122l-205 -122l-104 157l279 180h62l278 -180zM1129 431h-735q29 -82 96 -126.5t155 -44.5q122 0 215 81l158 -227q-162 -144 -395 -144q-123 0 -230 45.5t-181 122.5t-116.5 181t-42.5 218q0 156 68.5 286t193.5 207.5t280 77.5q171 0 295.5 -72.5
t186.5 -198t62 -290.5q0 -50 -10 -116zM609 830q-83 0 -140.5 -45t-80.5 -130h434q-44 175 -213 175z" />
    <glyph glyph-name="edieresis" unicode="&#xeb;" horiz-adv-x="1191" 
d="M384 1190q-64 0 -105.5 39.5t-41.5 101.5q0 64 41 104t106 40t106 -40t41 -104q0 -62 -41.5 -101.5t-105.5 -39.5zM814 1190q-64 0 -105 39.5t-41 101.5q0 64 40.5 104t105.5 40t106.5 -40t41.5 -104q0 -62 -41.5 -101.5t-106.5 -39.5zM1129 431h-735q29 -82 96 -126.5
t155 -44.5q122 0 215 81l158 -227q-162 -144 -395 -144q-123 0 -230 45.5t-181 122.5t-116.5 181t-42.5 218q0 156 68.5 286t193.5 207.5t280 77.5q171 0 295.5 -72.5t186.5 -198t62 -290.5q0 -50 -10 -116zM609 830q-83 0 -140.5 -45t-80.5 -130h434q-44 175 -213 175z" />
    <glyph glyph-name="igrave" unicode="&#xec;" horiz-adv-x="583" 
d="M504 1198h-238l-228 297h327zM465 0h-346v1085h346v-1085z" />
    <glyph glyph-name="iacute" unicode="&#xed;" horiz-adv-x="583" 
d="M660 1495l-228 -297h-237l139 297h326zM465 0h-346v1085h346v-1085z" />
    <glyph glyph-name="icircumflex" unicode="&#xee;" horiz-adv-x="583" 
d="M292 1294l-205 -122l-104 157l279 180h62l278 -180l-103 -157zM465 0h-346v1085h346v-1085z" />
    <glyph glyph-name="idieresis" unicode="&#xef;" horiz-adv-x="583" 
d="M77 1190q-65 0 -106.5 40t-41.5 101q0 64 41.5 104t106.5 40t106 -40t41 -104q0 -62 -41.5 -101.5t-105.5 -39.5zM507 1190q-64 0 -105.5 39.5t-41.5 101.5q0 64 41 104t106 40t106 -40t41 -104q0 -62 -41 -101.5t-106 -39.5zM465 0h-346v1085h346v-1085z" />
    <glyph glyph-name="eth" unicode="&#xf0;" horiz-adv-x="1247" 
d="M1072 1409l-160 -91q133 -193 207.5 -381.5t74.5 -394.5q0 -253 -161.5 -413t-412.5 -160q-156 0 -286.5 69.5t-205.5 191.5t-75 269q0 137 66 255t187 190t271 72q53 0 126 -19q-47 87 -91 150l-107 -62l-97 149l99 56q-28 36 -82 104l300 172l83 -105l168 95zM623 286
q94 0 149.5 61.5t55.5 174.5q0 80 -12 154q-86 42 -188 42q-95 0 -157.5 -62t-62.5 -157q0 -103 60.5 -158t154.5 -55z" />
    <glyph glyph-name="ntilde" unicode="&#xf1;" horiz-adv-x="1306" 
d="M589 1250q-36 0 -71 -59l-135 76q45 110 98.5 153.5t114.5 43.5q62 0 142.5 -31.5t102.5 -31.5q35 0 70 59l135 -76q-78 -197 -212 -197q-62 0 -142.5 31.5t-102.5 31.5zM788 1108q194 0 312 -126t118 -346v-636h-347v573q0 104 -50.5 162t-136.5 58q-91 0 -155 -61.5
t-64 -141.5v-590h-346v1085h266l50 -130q62 68 161.5 110.5t191.5 42.5z" />
    <glyph glyph-name="ograve" unicode="&#xf2;" horiz-adv-x="1284" 
d="M855 1202h-238l-228 297h327zM639 -31q-122 0 -231 45t-186.5 121t-123 180.5t-45.5 220.5q0 157 77 288t212.5 207.5t299.5 76.5t299.5 -76.5t212.5 -207.5t77 -288q0 -116 -45.5 -221t-124 -181t-188.5 -120.5t-234 -44.5zM642 294q104 0 174.5 70t70.5 174
q0 106 -70.5 175.5t-174.5 69.5t-174.5 -69.5t-70.5 -175.5q0 -104 70.5 -174t174.5 -70z" />
    <glyph glyph-name="oacute" unicode="&#xf3;" horiz-adv-x="1284" 
d="M1011 1499l-229 -297h-237l139 297h327zM639 -31q-122 0 -231 45t-186.5 121t-123 180.5t-45.5 220.5q0 157 77 288t212.5 207.5t299.5 76.5t299.5 -76.5t212.5 -207.5t77 -288q0 -116 -45.5 -221t-124 -181t-188.5 -120.5t-234 -44.5zM642 294q104 0 174.5 70t70.5 174
q0 106 -70.5 175.5t-174.5 69.5t-174.5 -69.5t-70.5 -175.5q0 -104 70.5 -174t174.5 -70z" />
    <glyph glyph-name="ocircumflex" unicode="&#xf4;" horiz-adv-x="1284" 
d="M642 1298l-205 -121l-104 156l279 180h62l278 -180l-103 -156zM639 -31q-122 0 -231 45t-186.5 121t-123 180.5t-45.5 220.5q0 157 77 288t212.5 207.5t299.5 76.5t299.5 -76.5t212.5 -207.5t77 -288q0 -116 -45.5 -221t-124 -181t-188.5 -120.5t-234 -44.5zM642 294
q104 0 174.5 70t70.5 174q0 106 -70.5 175.5t-174.5 69.5t-174.5 -69.5t-70.5 -175.5q0 -104 70.5 -174t174.5 -70z" />
    <glyph glyph-name="otilde" unicode="&#xf5;" horiz-adv-x="1284" 
d="M447 1194l-135 76q45 110 98.5 153.5t114.5 43.5q62 0 142.5 -31.5t102.5 -31.5q36 0 71 59l134 -75q-78 -198 -212 -198q-62 0 -142.5 31.5t-102.5 31.5q-36 0 -71 -59zM639 -31q-122 0 -231 45t-186.5 121t-123 180.5t-45.5 220.5q0 157 77 288t212.5 207.5t299.5 76.5
t299.5 -76.5t212.5 -207.5t77 -288q0 -116 -45.5 -221t-124 -181t-188.5 -120.5t-234 -44.5zM642 294q104 0 174.5 70t70.5 174q0 106 -70.5 175.5t-174.5 69.5t-174.5 -69.5t-70.5 -175.5q0 -104 70.5 -174t174.5 -70z" />
    <glyph glyph-name="odieresis" unicode="&#xf6;" horiz-adv-x="1284" 
d="M428 1194q-64 0 -105.5 39.5t-41.5 101.5q0 64 41 104t106 40t106 -40t41 -104q0 -62 -41.5 -101.5t-105.5 -39.5zM858 1194q-64 0 -105 39.5t-41 101.5q0 64 40.5 104t105.5 40t106.5 -40t41.5 -104q0 -62 -41.5 -101.5t-106.5 -39.5zM639 -31q-122 0 -231 45
t-186.5 121t-123 180.5t-45.5 220.5q0 157 77 288t212.5 207.5t299.5 76.5t299.5 -76.5t212.5 -207.5t77 -288q0 -116 -45.5 -221t-124 -181t-188.5 -120.5t-234 -44.5zM642 294q104 0 174.5 70t70.5 174q0 106 -70.5 175.5t-174.5 69.5t-174.5 -69.5t-70.5 -175.5
q0 -104 70.5 -174t174.5 -70z" />
    <glyph glyph-name="divide" unicode="&#xf7;" horiz-adv-x="1130" 
d="M560 969q-65 0 -112 43.5t-47 106.5t45 108t116 45q73 0 118 -44.5t45 -108.5q0 -65 -45 -107.5t-120 -42.5zM1057 577h-983v273h983v-273zM560 153q-70 0 -114.5 43.5t-44.5 105.5q0 64 45 108.5t116 44.5q73 0 118 -44.5t45 -108.5q0 -63 -45 -106t-120 -43z" />
    <glyph glyph-name="oslash" unicode="&#xf8;" horiz-adv-x="1284" 
d="M1180 1166l-134 -210q88 -79 136.5 -188t48.5 -232q0 -116 -45.5 -221t-124 -181t-188.5 -120.5t-234 -44.5q-106 0 -203 34l-54 -86h-274l130 203q-88 78 -136.5 186t-48.5 230q0 157 77 288t212.5 207.5t299.5 76.5q108 0 207 -35l59 93h272zM397 538q0 -64 31 -121
l235 365q-7 1 -21 1q-104 0 -174.5 -69.5t-70.5 -175.5zM642 294q104 0 174.5 70t70.5 174q0 63 -31 122l-233 -365q7 -1 19 -1z" />
    <glyph glyph-name="ugrave" unicode="&#xf9;" horiz-adv-x="1307" 
d="M739 1495l140 -297h-238l-228 297h326zM842 496v589h346v-1085h-266l-51 130q-62 -68 -161.5 -110.5t-191.5 -42.5q-193 0 -311 126.5t-118 346.5v635h346v-573q0 -104 51 -161.5t137 -57.5q91 0 155 61.5t64 141.5z" />
    <glyph glyph-name="uacute" unicode="&#xfa;" horiz-adv-x="1307" 
d="M708 1495h326l-228 -297h-238zM842 496v589h346v-1085h-266l-51 130q-62 -68 -161.5 -110.5t-191.5 -42.5q-193 0 -311 126.5t-118 346.5v635h346v-573q0 -104 51 -161.5t137 -57.5q91 0 155 61.5t64 141.5z" />
    <glyph glyph-name="ucircumflex" unicode="&#xfb;" horiz-adv-x="1307" 
d="M872 1172l-206 122l-205 -122l-105 157l280 180h61l279 -180zM842 496v589h346v-1085h-266l-51 130q-62 -68 -161.5 -110.5t-191.5 -42.5q-193 0 -311 126.5t-118 346.5v635h346v-573q0 -104 51 -161.5t137 -57.5q91 0 155 61.5t64 141.5z" />
    <glyph glyph-name="udieresis" unicode="&#xfc;" horiz-adv-x="1307" 
d="M451 1190q-65 0 -106.5 40t-41.5 101q0 64 41.5 104t106.5 40t106 -40t41 -104q0 -62 -41.5 -101.5t-105.5 -39.5zM881 1190q-64 0 -105.5 39.5t-41.5 101.5q0 64 41 104t106 40t106 -40t41 -104q0 -62 -41 -101.5t-106 -39.5zM842 496v589h346v-1085h-266l-51 130
q-62 -68 -161.5 -110.5t-191.5 -42.5q-193 0 -311 126.5t-118 346.5v635h346v-573q0 -104 51 -161.5t137 -57.5q91 0 155 61.5t64 141.5z" />
    <glyph glyph-name="yacute" unicode="&#xfd;" horiz-adv-x="1219" 
d="M978 1495l-228 -297h-238l139 297h327zM654 -364h-368l150 367l-429 1082h378l222 -679l222 679h383z" />
    <glyph glyph-name="thorn" unicode="&#xfe;" horiz-adv-x="1314" 
d="M714 1108q149 0 275 -75.5t199.5 -205.5t73.5 -284q0 -155 -73.5 -286t-199.5 -207t-275 -76q-143 0 -251 80v-54h-6v-364h-346v1449h8v451h344v-508q108 80 251 80zM681 297q102 0 169.5 68.5t67.5 174.5t-68 175.5t-171 69.5q-102 0 -170.5 -70t-68.5 -175
q0 -106 69 -174.5t172 -68.5z" />
    <glyph glyph-name="ydieresis" unicode="&#xff;" horiz-adv-x="1219" 
d="M394 1190q-64 0 -105.5 39.5t-41.5 101.5q0 64 41 104t106 40t106.5 -40t41.5 -104q0 -61 -41.5 -101t-106.5 -40zM824 1190q-64 0 -105 39.5t-41 101.5q0 64 40.5 104t105.5 40t106.5 -40t41.5 -104q0 -62 -41.5 -101.5t-106.5 -39.5zM654 -364h-368l150 367l-429 1082
h378l222 -679l222 679h383z" />
    <glyph glyph-name="Amacron" unicode="&#x100;" horiz-adv-x="1449" 
d="M428 1744h586v-205h-586v205zM1440 0h-380l-77 225h-516l-77 -225h-380l555 1441h323zM709 936l-138 -404h309l-138 404l-16 65h-2z" />
    <glyph glyph-name="amacron" unicode="&#x101;" horiz-adv-x="1323" 
d="M372 1405h585v-205h-585v205zM904 980l44 105h256v-1085h-266l-38 98q-117 -124 -299 -124q-149 0 -275 76t-199.5 207t-73.5 286q0 154 73.5 284t199.5 205.5t275 75.5q183 0 303 -128zM634 297q103 0 171.5 68.5t68.5 174.5q0 105 -68 175t-170 70q-103 0 -171 -69.5
t-68 -175.5t67.5 -174.5t169.5 -68.5z" />
    <glyph glyph-name="Abreve" unicode="&#x102;" horiz-adv-x="1449" 
d="M711 1535q-156 0 -235.5 80t-80.5 205h237q-3 -43 16.5 -70.5t62.5 -27.5q44 0 64 27.5t17 70.5h235q-1 -127 -80 -206t-236 -79zM1440 0h-380l-77 225h-516l-77 -225h-380l555 1441h323zM709 936l-138 -404h309l-138 404l-16 65h-2z" />
    <glyph glyph-name="abreve" unicode="&#x103;" horiz-adv-x="1323" 
d="M663 1196q-156 0 -232.5 81t-77.5 219h229q0 -58 18.5 -82t62.5 -24q43 0 62 24t19 82h227q0 -140 -76 -220t-232 -80zM904 980l44 105h256v-1085h-266l-38 98q-117 -124 -299 -124q-149 0 -275 76t-199.5 207t-73.5 286q0 154 73.5 284t199.5 205.5t275 75.5
q183 0 303 -128zM634 297q103 0 171.5 68.5t68.5 174.5q0 105 -68 175t-170 70q-103 0 -171 -69.5t-68 -175.5t67.5 -174.5t169.5 -68.5z" />
    <glyph glyph-name="Aogonek" unicode="&#x104;" horiz-adv-x="1449" 
d="M1473 -213l17 -146q-67 -35 -166 -35q-111 0 -159 46.5t-48 117.5q0 107 112 230h-169l-77 225h-516l-77 -225h-380l555 1441h323l552 -1441q-99 -89 -99 -153q0 -30 17 -49.5t48 -19.5q22 0 67 9zM709 936l-138 -404h309l-138 404l-16 65h-2z" />
    <glyph glyph-name="aogonek" unicode="&#x105;" horiz-adv-x="1323" 
d="M1241 -211l17 -140q-67 -35 -159 -35q-100 0 -146.5 49t-46.5 119q0 64 44 126.5t86 91.5h-98l-38 98q-117 -124 -299 -124q-149 0 -275 76t-199.5 207t-73.5 286q0 154 73.5 284t199.5 205.5t275 75.5q183 0 303 -128l44 105h256v-1085h4q-98 -77 -98 -151
q0 -30 17 -49.5t48 -19.5q21 0 66 9zM634 297q103 0 171.5 68.5t68.5 174.5q0 105 -68 175t-170 70q-103 0 -171 -69.5t-68 -175.5t67.5 -174.5t169.5 -68.5z" />
    <glyph glyph-name="Cacute" unicode="&#x106;" horiz-adv-x="1351" 
d="M1158 1814l-251 -261h-260l178 261h333zM822 -26q-156 0 -295 59t-238.5 159.5t-157 238.5t-57.5 291q0 205 98 376t270 269.5t380 98.5q280 0 486 -174l-207 -280q-56 44 -130.5 72.5t-148.5 28.5q-152 0 -263.5 -114t-111.5 -278q0 -165 111.5 -279t263.5 -114
q80 0 144 23t138 81l204 -282q-98 -84 -223 -130t-263 -46z" />
    <glyph glyph-name="cacute" unicode="&#x107;" horiz-adv-x="1037" 
d="M966 1495l-229 -297h-237l139 297h327zM623 -31q-123 0 -230 45.5t-181 122.5t-116.5 181t-42.5 219q0 156 72.5 286.5t204 207.5t292.5 77q233 0 391 -143l-170 -248q-95 77 -204 77q-101 0 -172 -73t-71 -184q0 -107 72 -180t171 -73q109 0 204 75l170 -246
q-73 -67 -173.5 -105.5t-216.5 -38.5z" />
    <glyph glyph-name="Ccircumflex" unicode="&#x108;" horiz-adv-x="1351" 
d="M829 1666l-205 -134l-112 156l289 203h58l287 -203l-111 -156zM822 -26q-156 0 -295 59t-238.5 159.5t-157 238.5t-57.5 291q0 205 98 376t270 269.5t380 98.5q280 0 486 -174l-207 -280q-56 44 -130.5 72.5t-148.5 28.5q-152 0 -263.5 -114t-111.5 -278
q0 -165 111.5 -279t263.5 -114q80 0 144 23t138 81l204 -282q-98 -84 -223 -130t-263 -46z" />
    <glyph glyph-name="ccircumflex" unicode="&#x109;" horiz-adv-x="1037" 
d="M597 1294l-205 -122l-104 157l279 180h62l278 -180l-103 -157zM623 -31q-123 0 -230 45.5t-181 122.5t-116.5 181t-42.5 219q0 156 72.5 286.5t204 207.5t292.5 77q233 0 391 -143l-170 -248q-95 77 -204 77q-101 0 -172 -73t-71 -184q0 -107 72 -180t171 -73
q109 0 204 75l170 -246q-73 -67 -173.5 -105.5t-216.5 -38.5z" />
    <glyph glyph-name="Cdotaccent" unicode="&#x10a;" horiz-adv-x="1351" 
d="M828 1549q-64 0 -105.5 40t-41.5 102q0 64 41 103.5t106 39.5t106.5 -40t41.5 -103q0 -62 -42 -102t-106 -40zM822 -26q-156 0 -295 59t-238.5 159.5t-157 238.5t-57.5 291q0 205 98 376t270 269.5t380 98.5q280 0 486 -174l-207 -280q-56 44 -130.5 72.5t-148.5 28.5
q-152 0 -263.5 -114t-111.5 -278q0 -165 111.5 -279t263.5 -114q80 0 144 23t138 81l204 -282q-98 -84 -223 -130t-263 -46z" />
    <glyph glyph-name="cdotaccent" unicode="&#x10b;" horiz-adv-x="1037" 
d="M597 1190q-64 0 -105.5 39.5t-41.5 101.5q0 64 41 104t106 40t106 -40t41 -104q0 -62 -41.5 -101.5t-105.5 -39.5zM623 -31q-123 0 -230 45.5t-181 122.5t-116.5 181t-42.5 219q0 156 72.5 286.5t204 207.5t292.5 77q233 0 391 -143l-170 -248q-95 77 -204 77
q-101 0 -172 -73t-71 -184q0 -107 72 -180t171 -73q109 0 204 75l170 -246q-73 -67 -173.5 -105.5t-216.5 -38.5z" />
    <glyph glyph-name="Ccaron" unicode="&#x10c;" horiz-adv-x="1351" 
d="M516 1755l112 156l206 -134l205 134l111 -156l-287 -204h-58zM822 -26q-156 0 -295 59t-238.5 159.5t-157 238.5t-57.5 291q0 205 98 376t270 269.5t380 98.5q280 0 486 -174l-207 -280q-56 44 -130.5 72.5t-148.5 28.5q-152 0 -263.5 -114t-111.5 -278
q0 -165 111.5 -279t263.5 -114q80 0 144 23t138 81l204 -282q-98 -84 -223 -130t-263 -46z" />
    <glyph glyph-name="ccaron" unicode="&#x10d;" horiz-adv-x="1037" 
d="M287 1361l104 157l205 -122l207 122l103 -157l-278 -179h-62zM623 -31q-123 0 -230 45.5t-181 122.5t-116.5 181t-42.5 219q0 156 72.5 286.5t204 207.5t292.5 77q233 0 391 -143l-170 -248q-95 77 -204 77q-101 0 -172 -73t-71 -184q0 -107 72 -180t171 -73
q109 0 204 75l170 -246q-73 -67 -173.5 -105.5t-216.5 -38.5z" />
    <glyph glyph-name="Dcaron" unicode="&#x10e;" horiz-adv-x="1516" 
d="M276 1738l112 155l206 -134l206 134l110 -155l-286 -204h-59zM688 0h-545v1439h542q156 0 296 -55t241.5 -150t161 -229t59.5 -285q0 -202 -100.5 -367.5t-273.5 -259t-381 -93.5zM512 1090v-741h188q160 0 264.5 104t104.5 267q0 161 -104.5 265.5t-265.5 104.5h-187z
" />
    <glyph glyph-name="dcaron" unicode="&#x10f;" horiz-adv-x="1554" 
d="M858 1023v514h346v-1537h-266l-38 98q-117 -124 -299 -124q-149 0 -275 76t-199.5 207t-73.5 286q0 154 73.5 284t199.5 205.5t275 75.5t257 -85zM1323 1126l-25 410h250l-27 -410h-198zM634 297q103 0 171.5 68.5t68.5 174.5q0 105 -68 175t-170 70q-103 0 -171 -69.5
t-68 -175.5t67.5 -174.5t169.5 -68.5z" />
    <glyph glyph-name="Dcroat" unicode="&#x110;" horiz-adv-x="1516" 
d="M143 1439h542q156 0 296 -55t241.5 -150t161 -229t59.5 -285q0 -202 -100.5 -367.5t-273.5 -259t-381 -93.5h-545v583h-153v282h153v574zM512 349h188q160 0 264.5 104t104.5 267q0 161 -104.5 265.5t-265.5 104.5h-187v-225h237v-282h-237v-234z" />
    <glyph glyph-name="dcroat" unicode="&#x111;" horiz-adv-x="1323" 
d="M1204 1450h159v-243h-159v-1207h-266l-38 98q-117 -124 -299 -124q-149 0 -275 76t-199.5 207t-73.5 286q0 154 73.5 284t199.5 205.5t275 75.5t257 -85v184h-255v243h255v87h346v-87zM634 297q103 0 171.5 68.5t68.5 174.5q0 105 -68 175t-170 70q-103 0 -171 -69.5
t-68 -175.5t67.5 -174.5t169.5 -68.5z" />
    <glyph glyph-name="Emacron" unicode="&#x112;" horiz-adv-x="1277" 
d="M993 1539h-585v205h585v-205zM1204 0h-1061v1439h1046v-333h-677v-224h529v-309h-529v-240h692v-333z" />
    <glyph glyph-name="emacron" unicode="&#x113;" horiz-adv-x="1191" 
d="M309 1402h586v-205h-586v205zM1129 431h-735q29 -82 96 -126.5t155 -44.5q122 0 215 81l158 -227q-162 -144 -395 -144q-123 0 -230 45.5t-181 122.5t-116.5 181t-42.5 218q0 156 68.5 286t193.5 207.5t280 77.5q171 0 295.5 -72.5t186.5 -198t62 -290.5q0 -50 -10 -116z
M609 830q-83 0 -140.5 -45t-80.5 -130h434q-44 175 -213 175z" />
    <glyph glyph-name="Ebreve" unicode="&#x114;" horiz-adv-x="1277" 
d="M690 1535q-156 0 -235 80t-80 205h236q-3 -43 16.5 -70.5t62.5 -27.5q44 0 64 27.5t17 70.5h236q-1 -127 -80.5 -206t-236.5 -79zM1204 0h-1061v1439h1046v-333h-677v-224h529v-309h-529v-240h692v-333z" />
    <glyph glyph-name="ebreve" unicode="&#x115;" horiz-adv-x="1191" 
d="M600 1193q-156 0 -232 81t-77 219h228q0 -58 18.5 -82.5t62.5 -24.5q43 0 62.5 24.5t19.5 82.5h226q0 -140 -76 -220t-232 -80zM1129 431h-735q29 -82 96 -126.5t155 -44.5q122 0 215 81l158 -227q-162 -144 -395 -144q-123 0 -230 45.5t-181 122.5t-116.5 181t-42.5 218
q0 156 68.5 286t193.5 207.5t280 77.5q171 0 295.5 -72.5t186.5 -198t62 -290.5q0 -50 -10 -116zM609 830q-83 0 -140.5 -45t-80.5 -130h434q-44 175 -213 175z" />
    <glyph glyph-name="Edotaccent" unicode="&#x116;" horiz-adv-x="1277" 
d="M690 1532q-64 0 -105.5 39.5t-41.5 101.5q0 64 41 104t106 40t106.5 -40t41.5 -104q0 -61 -41.5 -101t-106.5 -40zM1204 0h-1061v1439h1046v-333h-677v-224h529v-309h-529v-240h692v-333z" />
    <glyph glyph-name="edotaccent" unicode="&#x117;" horiz-adv-x="1191" 
d="M599 1190q-64 0 -105.5 39.5t-41.5 101.5q0 64 41 104t106 40t106 -40t41 -104q0 -62 -41.5 -101.5t-105.5 -39.5zM1129 431h-735q29 -82 96 -126.5t155 -44.5q122 0 215 81l158 -227q-162 -144 -395 -144q-123 0 -230 45.5t-181 122.5t-116.5 181t-42.5 218
q0 156 68.5 286t193.5 207.5t280 77.5q171 0 295.5 -72.5t186.5 -198t62 -290.5q0 -50 -10 -116zM609 830q-83 0 -140.5 -45t-80.5 -130h434q-44 175 -213 175z" />
    <glyph glyph-name="Eogonek" unicode="&#x118;" horiz-adv-x="1277" 
d="M1237 -213l17 -146q-67 -35 -165 -35q-111 0 -159 46.5t-48 117.5q0 108 111 230h-850v1439h1046v-333h-677v-224h529v-309h-529v-240h692v-333q-98 -88 -98 -153q0 -30 17 -49.5t47 -19.5q22 0 67 9z" />
    <glyph glyph-name="eogonek" unicode="&#x119;" horiz-adv-x="1191" 
d="M1129 431h-735q29 -82 96 -126.5t155 -44.5q122 0 215 81l158 -227l-2 -2h2q-98 -77 -98 -151q0 -31 17 -50.5t47 -19.5q17 0 67 10l17 -141q-65 -34 -160 -34q-100 0 -146 49t-46 119q0 42 21 86q-62 -10 -114 -10q-123 0 -230 45.5t-181 122.5t-116.5 181t-42.5 218
q0 156 68.5 286t193.5 207.5t280 77.5q171 0 295.5 -72.5t186.5 -198t62 -290.5q0 -50 -10 -116zM609 830q-83 0 -140.5 -45t-80.5 -130h434q-44 175 -213 175z" />
    <glyph glyph-name="Ecaron" unicode="&#x11a;" horiz-adv-x="1277" 
d="M377 1738l111 155l206 -134l206 134l111 -155l-287 -204h-58zM1204 0h-1061v1439h1046v-333h-677v-224h529v-309h-529v-240h692v-333z" />
    <glyph glyph-name="ecaron" unicode="&#x11b;" horiz-adv-x="1191" 
d="M908 1361l-278 -179h-62l-279 179l104 157l205 -122l207 122zM1129 431h-735q29 -82 96 -126.5t155 -44.5q122 0 215 81l158 -227q-162 -144 -395 -144q-123 0 -230 45.5t-181 122.5t-116.5 181t-42.5 218q0 156 68.5 286t193.5 207.5t280 77.5q171 0 295.5 -72.5
t186.5 -198t62 -290.5q0 -50 -10 -116zM609 830q-83 0 -140.5 -45t-80.5 -130h434q-44 175 -213 175z" />
    <glyph glyph-name="Gcircumflex" unicode="&#x11c;" horiz-adv-x="1410" 
d="M1034 1514l-206 135l-205 -135l-112 156l289 204h58l287 -204zM970 339v327h348v-534q-97 -75 -227 -116.5t-269 -41.5q-156 0 -295 59t-238.5 159.5t-157 238.5t-57.5 291q0 205 98 376t270 269.5t380 98.5q280 0 486 -174l-215 -280q-129 101 -271 101
q-152 0 -263.5 -114t-111.5 -278q0 -166 112 -285t263 -119q79 0 148 22z" />
    <glyph glyph-name="gcircumflex" unicode="&#x11d;" horiz-adv-x="1304" 
d="M842 1174l-207 121l-205 -121l-104 156l279 180h62l278 -180zM882 986l38 99h266v-921q0 -263 -147.5 -409.5t-420.5 -146.5q-124 0 -263 35.5t-222 95.5l129 262q168 -94 322 -94q120 0 190.5 58.5t70.5 177.5v11q-114 -89 -265 -89q-143 0 -263 62.5t-192 178
t-72 258.5q0 145 71 271t193 201t264 75q179 0 301 -125zM628 357q96 0 162 65.5t66 154.5q0 96 -65.5 162t-162.5 66t-164 -66t-67 -162q0 -89 67 -154.5t164 -65.5z" />
    <glyph glyph-name="Gbreve" unicode="&#x11e;" horiz-adv-x="1410" 
d="M828 1535q-156 0 -235 80t-80 205h237q-3 -44 16 -71t62 -27q44 0 64 27.5t17 70.5h236q-1 -127 -80.5 -206t-236.5 -79zM970 339v327h348v-534q-97 -75 -227 -116.5t-269 -41.5q-156 0 -295 59t-238.5 159.5t-157 238.5t-57.5 291q0 205 98 376t270 269.5t380 98.5
q280 0 486 -174l-215 -280q-129 101 -271 101q-152 0 -263.5 -114t-111.5 -278q0 -166 112 -285t263 -119q79 0 148 22z" />
    <glyph glyph-name="gbreve" unicode="&#x11f;" horiz-adv-x="1304" 
d="M637 1194q-156 0 -232 81t-77 219h228q0 -58 18.5 -82t62.5 -24q43 0 62.5 24t19.5 82h226q0 -140 -76 -220t-232 -80zM882 986l38 99h266v-921q0 -263 -147.5 -409.5t-420.5 -146.5q-124 0 -263 35.5t-222 95.5l129 262q168 -94 322 -94q120 0 190.5 58.5t70.5 177.5v11
q-114 -89 -265 -89q-143 0 -263 62.5t-192 178t-72 258.5q0 145 71 271t193 201t264 75q179 0 301 -125zM628 357q96 0 162 65.5t66 154.5q0 96 -65.5 162t-162.5 66t-164 -66t-67 -162q0 -89 67 -154.5t164 -65.5z" />
    <glyph glyph-name="Gdotaccent" unicode="&#x120;" horiz-adv-x="1410" 
d="M827 1532q-64 0 -105.5 39.5t-41.5 101.5q0 64 41 104t106 40t106.5 -40t41.5 -104q0 -61 -41.5 -101t-106.5 -40zM970 339v327h348v-534q-97 -75 -227 -116.5t-269 -41.5q-156 0 -295 59t-238.5 159.5t-157 238.5t-57.5 291q0 205 98 376t270 269.5t380 98.5
q280 0 486 -174l-215 -280q-129 101 -271 101q-152 0 -263.5 -114t-111.5 -278q0 -166 112 -285t263 -119q79 0 148 22z" />
    <glyph glyph-name="gdotaccent" unicode="&#x121;" horiz-adv-x="1304" 
d="M635 1191q-65 0 -106.5 40t-41.5 101q0 64 41.5 104t106.5 40t106 -40t41 -104q0 -62 -41.5 -101.5t-105.5 -39.5zM882 986l38 99h266v-921q0 -263 -147.5 -409.5t-420.5 -146.5q-124 0 -263 35.5t-222 95.5l129 262q168 -94 322 -94q120 0 190.5 58.5t70.5 177.5v11
q-114 -89 -265 -89q-143 0 -263 62.5t-192 178t-72 258.5q0 145 71 271t193 201t264 75q179 0 301 -125zM628 357q96 0 162 65.5t66 154.5q0 96 -65.5 162t-162.5 66t-164 -66t-67 -162q0 -89 67 -154.5t164 -65.5z" />
    <glyph glyph-name="uni0122" unicode="&#x122;" horiz-adv-x="1410" 
d="M970 339v327h348v-534q-97 -75 -227 -116.5t-269 -41.5q-156 0 -295 59t-238.5 159.5t-157 238.5t-57.5 291q0 205 98 376t270 269.5t380 98.5q280 0 486 -174l-215 -280q-129 101 -271 101q-152 0 -263.5 -114t-111.5 -278q0 -166 112 -285t263 -119q79 0 148 22z
M842 -115q44 0 73 -29.5t29 -84.5q0 -138 -133 -248l-59 56q77 73 77 113v5q-40 0 -66 27t-26 65q0 41 30.5 68.5t74.5 27.5z" />
    <glyph glyph-name="uni0123" unicode="&#x123;" horiz-adv-x="1304" 
d="M633 1227q-44 0 -73.5 29t-29.5 85q0 137 134 248l59 -56q-79 -75 -79 -113v-5q41 0 67 -27t26 -66q0 -41 -30 -68t-74 -27zM882 986l38 99h266v-921q0 -263 -147.5 -409.5t-420.5 -146.5q-124 0 -263 35.5t-222 95.5l129 262q168 -94 322 -94q120 0 190.5 58.5
t70.5 177.5v11q-114 -89 -265 -89q-143 0 -263 62.5t-192 178t-72 258.5q0 145 71 271t193 201t264 75q179 0 301 -125zM628 357q96 0 162 65.5t66 154.5q0 96 -65.5 162t-162.5 66t-164 -66t-67 -162q0 -89 67 -154.5t164 -65.5z" />
    <glyph glyph-name="Hcircumflex" unicode="&#x124;" horiz-adv-x="1549" 
d="M780 1649l-206 -135l-111 156l289 204h58l287 -204l-111 -156zM512 0h-369v1439h369v-510h525v510h369v-1439h-369v577h-525v-577z" />
    <glyph glyph-name="hcircumflex" unicode="&#x125;" horiz-adv-x="1305" 
d="M923 1575l-206 134l-206 -134l-112 156l289 203h58l287 -203zM786 1108q194 0 312.5 -126.5t118.5 -345.5v-636h-347v573q0 104 -51 162t-136 58q-91 0 -155.5 -61.5t-64.5 -141.5v-590h-344v1536h344v-552q65 56 153.5 90t169.5 34z" />
    <glyph glyph-name="Hbar" unicode="&#x126;" horiz-adv-x="1549" 
d="M1406 1303h88v-221h-88v-1082h-369v577h-525v-577h-369v1082h-77v221h77v136h369v-136h525v136h369v-136zM512 929h525v153h-525v-153z" />
    <glyph glyph-name="hbar" unicode="&#x127;" horiz-adv-x="1305" 
d="M786 1108q194 0 312.5 -126.5t118.5 -345.5v-636h-347v573q0 104 -51 162t-136 58q-91 0 -155.5 -61.5t-64.5 -141.5v-590h-344v1192h-110v233h110v111h344v-111h306v-233h-306v-208q65 56 153.5 90t169.5 34z" />
    <glyph glyph-name="Itilde" unicode="&#x128;" horiz-adv-x="655" 
d="M118 1532l-135 76q45 110 98.5 153.5t114.5 43.5q62 0 142 -31.5t102 -31.5q36 0 71 59l134 -76q-78 -197 -212 -197q-62 0 -142.5 31.5t-102.5 31.5q-35 0 -70 -59zM512 0h-369v1439h369v-1439z" />
    <glyph glyph-name="itilde" unicode="&#x129;" horiz-adv-x="583" 
d="M97 1190l-135 76q45 110 98.5 153.5t114.5 43.5q62 0 142.5 -31.5t102.5 -31.5q35 0 70 59l135 -76q-78 -197 -212 -197q-62 0 -142.5 31.5t-102.5 31.5q-36 0 -71 -59zM465 0h-346v1085h346v-1085z" />
    <glyph glyph-name="Imacron" unicode="&#x12a;" horiz-adv-x="655" 
d="M620 1539h-586v205h586v-205zM512 0h-369v1439h369v-1439z" />
    <glyph glyph-name="imacron" unicode="&#x12b;" horiz-adv-x="583" 
d="M588 1197h-586v205h586v-205zM465 0h-346v1085h346v-1085z" />
    <glyph glyph-name="Ibreve" unicode="&#x12c;" horiz-adv-x="655" 
d="M316 1535q-156 0 -235 80t-80 205h237q-3 -44 16 -71t62 -27q44 0 64 27.5t17 70.5h236q-1 -127 -80.5 -206t-236.5 -79zM512 0h-369v1439h369v-1439z" />
    <glyph glyph-name="ibreve" unicode="&#x12d;" horiz-adv-x="583" 
d="M294 1193q-156 0 -232 81t-77 219h228q0 -58 18.5 -82.5t62.5 -24.5q43 0 62.5 24.5t19.5 82.5h226q0 -140 -76 -220t-232 -80zM465 0h-346v1085h346v-1085z" />
    <glyph glyph-name="Iogonek" unicode="&#x12e;" horiz-adv-x="655" 
d="M545 -213l17 -146q-67 -35 -166 -35q-111 0 -159 46.5t-48 117.5q0 107 112 230h-158v1439h369v-1439q-98 -88 -98 -153q0 -30 17 -49.5t47 -19.5q22 0 67 9z" />
    <glyph glyph-name="iogonek" unicode="&#x12f;" horiz-adv-x="583" 
d="M296 1219q-90 0 -148.5 59.5t-58.5 137.5t58.5 138.5t149.5 60.5t149 -60.5t58 -138.5q0 -79 -58 -138t-150 -59zM498 -211l17 -140q-67 -35 -160 -35q-100 0 -146 49t-46 119q0 64 44 126.5t86 91.5h-174v1085h346v-1085q-98 -77 -98 -151q0 -30 17 -49.5t47 -19.5
q22 0 67 9z" />
    <glyph glyph-name="Idotaccent" unicode="&#x130;" horiz-adv-x="655" 
d="M315 1532q-64 0 -105.5 39.5t-41.5 101.5q0 64 41 104t106 40t106.5 -40t41.5 -104q0 -61 -41.5 -101t-106.5 -40zM512 0h-369v1439h369v-1439z" />
    <glyph glyph-name="dotlessi" unicode="&#x131;" horiz-adv-x="583" 
d="M465 0h-346v1085h346v-1085z" />
    <glyph glyph-name="IJ" unicode="&#x132;" horiz-adv-x="1639" 
d="M512 0h-369v1439h369v-1439zM1047 -31q-89 0 -188.5 45t-188.5 126l200 262q100 -78 173 -78q53 0 83 34.5t30 104.5v976h369v-1002q0 -216 -128 -342t-350 -126z" />
    <glyph glyph-name="ij" unicode="&#x133;" horiz-adv-x="1193" 
d="M296 1219q-90 0 -148.5 59.5t-58.5 137.5t58.5 138.5t149.5 60.5t149 -60.5t58 -138.5q0 -79 -58 -138t-150 -59zM906 1219q-90 0 -148.5 59.5t-58.5 137.5t58.5 138.5t149.5 60.5t149 -60.5t58 -138.5q0 -79 -58 -138t-150 -59zM465 0h-346v1085h346v-1085zM636 -393
h-63v304h19q138 0 138 137v1037h345v-1030q0 -220 -115.5 -334t-323.5 -114z" />
    <glyph glyph-name="Jcircumflex" unicode="&#x134;" horiz-adv-x="984" 
d="M683 1649l-206 -135l-111 156l288 204h59l286 -204l-110 -156zM391 -31q-89 0 -188.5 45t-188.5 126l201 262q100 -78 173 -78q53 0 83 34.5t30 104.5v976h368v-1002q0 -216 -128 -342t-350 -126z" />
    <glyph glyph-name="jcircumflex" unicode="&#x135;" horiz-adv-x="585" 
d="M294 1294l-205 -122l-104 157l279 180h62l278 -180l-103 -157zM28 -393h-63v304h19q138 0 138 137v1037h345v-1030q0 -220 -115.5 -334t-323.5 -114z" />
    <glyph glyph-name="uni0136" unicode="&#x136;" horiz-adv-x="1488" 
d="M1416 1439l-508 -598l560 -841h-439l-359 559l-158 -185v-374h-369v1439h369v-565l455 565h449zM749 -110q43 0 72.5 -29t29.5 -85q0 -138 -133 -248l-60 56q78 74 78 113v5q-40 0 -66 27t-26 65q0 41 30.5 68.5t74.5 27.5z" />
    <glyph glyph-name="uni0137" unicode="&#x137;" horiz-adv-x="1276" 
d="M1229 1085l-407 -441l460 -644h-410l-278 396l-129 -141v-255h-346v1536h346v-846l327 395h437zM635 -129q44 0 73 -29.5t29 -85.5q0 -138 -133 -248l-59 57q78 75 78 112v6q-41 0 -67 27t-26 66q0 41 30.5 68t74.5 27z" />
    <glyph glyph-name="kgreenlandic" unicode="&#x138;" horiz-adv-x="1270" 
d="M1276 0h-410l-271 394l-130 -140v-254h-346v1085h346v-398l337 398h437l-415 -445z" />
    <glyph glyph-name="Lacute" unicode="&#x139;" horiz-adv-x="1179" 
d="M645 1796l-251 -260h-260l178 260h333zM1108 0h-965v1439h369v-1087h596v-352z" />
    <glyph glyph-name="lacute" unicode="&#x13a;" horiz-adv-x="581" 
d="M627 1868l-251 -260h-260l178 260h333zM463 0h-344v1536h344v-1536z" />
    <glyph glyph-name="uni013B" unicode="&#x13b;" horiz-adv-x="1179" 
d="M1108 0h-965v1439h369v-1087h596v-352zM517 -472l-59 56q78 74 78 113v5q-40 0 -66.5 27t-26.5 65q0 41 30.5 68.5t74.5 27.5t73 -29t29 -85q0 -138 -133 -248z" />
    <glyph glyph-name="uni013C" unicode="&#x13c;" horiz-adv-x="581" 
d="M463 0h-344v1536h344v-1536zM266 -492l-59 57q78 75 78 112v6q-40 0 -66 27t-26 66q0 41 30 68t74 27t73 -29.5t29 -85.5q0 -138 -133 -248z" />
    <glyph glyph-name="Lcaron" unicode="&#x13d;" horiz-adv-x="1179" 
d="M1108 0h-965v1439h369v-1087h596v-352zM1013 1029h-198l-24 410h249z" />
    <glyph glyph-name="lcaron" unicode="&#x13e;" horiz-adv-x="690" 
d="M463 0h-344v1536h344v-1536zM725 1126h-198l-24 410h250z" />
    <glyph glyph-name="Ldot" unicode="&#x13f;" horiz-adv-x="1179" 
d="M1108 0h-965v1439h369v-1087h596v-352zM797 608q-66 0 -108.5 41t-42.5 100q0 60 42.5 100.5t108.5 40.5q67 0 109 -40.5t42 -100.5t-42 -100.5t-109 -40.5z" />
    <glyph glyph-name="ldot" unicode="&#x140;" horiz-adv-x="841" 
d="M463 0h-344v1536h344v-1536zM690 630q-62 0 -102 39.5t-40 95.5t40 95t103 39q64 0 105 -39t41 -95q0 -57 -41 -96t-106 -39z" />
    <glyph glyph-name="Lslash" unicode="&#x141;" horiz-adv-x="1179" 
d="M512 698v-346h596v-352h-965v526l-127 -59l-73 150l200 94v728h369v-556l199 93l73 -151z" />
    <glyph glyph-name="lslash" unicode="&#x142;" horiz-adv-x="581" 
d="M559 1000l70 -120l-166 -97v-783h-344v583l-93 -55l-70 121l163 95v792h344v-592z" />
    <glyph glyph-name="Nacute" unicode="&#x143;" horiz-adv-x="1542" 
d="M1099 1796l-251 -260h-260l178 260h333zM502 0h-359v1439h369l528 -813v813h359v-1439h-334l-563 858v-858z" />
    <glyph glyph-name="nacute" unicode="&#x144;" horiz-adv-x="1306" 
d="M755 1496h326l-228 -297h-238zM788 1108q194 0 312 -126t118 -346v-636h-347v573q0 104 -50.5 162t-136.5 58q-91 0 -155 -61.5t-64 -141.5v-590h-346v1085h266l50 -130q62 68 161.5 110.5t191.5 42.5z" />
    <glyph glyph-name="uni0145" unicode="&#x145;" horiz-adv-x="1542" 
d="M502 0h-359v1439h369l528 -813v813h359v-1439h-334l-563 858v-858zM752 -472l-60 56q78 74 78 113v5q-40 0 -66 27t-26 65q0 42 30 69t74 27t73.5 -29.5t29.5 -84.5q0 -138 -133 -248z" />
    <glyph glyph-name="uni0146" unicode="&#x146;" horiz-adv-x="1306" 
d="M788 1108q194 0 312 -126t118 -346v-636h-347v573q0 104 -50.5 162t-136.5 58q-91 0 -155 -61.5t-64 -141.5v-590h-346v1085h266l50 -130q62 68 161.5 110.5t191.5 42.5zM659 -129q44 0 73.5 -29.5t29.5 -85.5q0 -138 -133 -248l-60 57q78 75 78 112v6q-40 0 -66 27
t-26 66q0 41 30 68t74 27z" />
    <glyph glyph-name="Ncaron" unicode="&#x147;" horiz-adv-x="1542" 
d="M457 1738l111 155l206 -134l206 134l111 -155l-287 -204h-59zM502 0h-359v1439h369l528 -813v813h359v-1439h-334l-563 858v-858z" />
    <glyph glyph-name="ncaron" unicode="&#x148;" horiz-adv-x="1306" 
d="M1023 1362l-279 -179h-61l-280 179l105 157l205 -122l207 122zM788 1108q194 0 312 -126t118 -346v-636h-347v573q0 104 -50.5 162t-136.5 58q-91 0 -155 -61.5t-64 -141.5v-590h-346v1085h266l50 -130q62 68 161.5 110.5t191.5 42.5z" />
    <glyph glyph-name="Eng" unicode="&#x14a;" horiz-adv-x="1542" 
d="M1040 626v813h359v-1463q0 -201 -116 -305.5t-324 -104.5h-62v305h19q60 0 87.5 29.5t27.5 93.5v57l-529 807v-858h-359v1439h369z" />
    <glyph glyph-name="eng" unicode="&#x14b;" horiz-adv-x="1306" 
d="M1218 636v-492h9v-167q0 -197 -109 -299.5t-304 -102.5h-58v298h17q57 0 82.5 29t25.5 92v6h-10v573q0 104 -50.5 162t-136.5 58q-91 0 -155 -61.5t-64 -141.5v-590h-346v1085h266l50 -130q62 68 161.5 110.5t191.5 42.5q194 0 312 -126t118 -346z" />
    <glyph glyph-name="Omacron" unicode="&#x14c;" horiz-adv-x="1643" 
d="M1125 1539h-585v205h585v-205zM822 -26q-156 0 -295 59t-238.5 159.5t-157 238.5t-57.5 291q0 205 98 376t270 269.5t380 98.5q156 0 294.5 -58t238 -157.5t157.5 -237t58 -291.5q0 -153 -58 -291t-157 -238.5t-238.5 -159.5t-294.5 -59zM822 328q153 0 263.5 114
t110.5 279t-111 278.5t-263 113.5t-263.5 -114t-111.5 -278q0 -165 111.5 -279t263.5 -114z" />
    <glyph glyph-name="omacron" unicode="&#x14d;" horiz-adv-x="1284" 
d="M939 1201h-586v205h586v-205zM639 -31q-122 0 -231 45t-186.5 121t-123 180.5t-45.5 220.5q0 157 77 288t212.5 207.5t299.5 76.5t299.5 -76.5t212.5 -207.5t77 -288q0 -116 -45.5 -221t-124 -181t-188.5 -120.5t-234 -44.5zM642 294q104 0 174.5 70t70.5 174
q0 106 -70.5 175.5t-174.5 69.5t-174.5 -69.5t-70.5 -175.5q0 -104 70.5 -174t174.5 -70z" />
    <glyph glyph-name="Obreve" unicode="&#x14e;" horiz-adv-x="1643" 
d="M822 1535q-156 0 -235 80t-80 205h236q-3 -43 16.5 -70.5t62.5 -27.5q44 0 64 27.5t17 70.5h236q-1 -127 -80.5 -206t-236.5 -79zM822 -26q-156 0 -295 59t-238.5 159.5t-157 238.5t-57.5 291q0 205 98 376t270 269.5t380 98.5q156 0 294.5 -58t238 -157.5t157.5 -237
t58 -291.5q0 -153 -58 -291t-157 -238.5t-238.5 -159.5t-294.5 -59zM822 328q153 0 263.5 114t110.5 279t-111 278.5t-263 113.5t-263.5 -114t-111.5 -278q0 -165 111.5 -279t263.5 -114z" />
    <glyph glyph-name="obreve" unicode="&#x14f;" horiz-adv-x="1284" 
d="M644 1197q-156 0 -232 81t-77 219h228q0 -58 18.5 -82t62.5 -24q43 0 62.5 24t19.5 82h226q0 -140 -76 -220t-232 -80zM639 -31q-122 0 -231 45t-186.5 121t-123 180.5t-45.5 220.5q0 157 77 288t212.5 207.5t299.5 76.5t299.5 -76.5t212.5 -207.5t77 -288
q0 -116 -45.5 -221t-124 -181t-188.5 -120.5t-234 -44.5zM642 294q104 0 174.5 70t70.5 174q0 106 -70.5 175.5t-174.5 69.5t-174.5 -69.5t-70.5 -175.5q0 -104 70.5 -174t174.5 -70z" />
    <glyph glyph-name="Ohungarumlaut" unicode="&#x150;" horiz-adv-x="1643" 
d="M928 1799l-206 -260h-213l145 260h274zM1246 1798l-212 -260h-220l151 260h281zM822 -26q-156 0 -295 59t-238.5 159.5t-157 238.5t-57.5 291q0 205 98 376t270 269.5t380 98.5q156 0 294.5 -58t238 -157.5t157.5 -237t58 -291.5q0 -153 -58 -291t-157 -238.5
t-238.5 -159.5t-294.5 -59zM822 328q153 0 263.5 114t110.5 279t-111 278.5t-263 113.5t-263.5 -114t-111.5 -278q0 -165 111.5 -279t263.5 -114z" />
    <glyph glyph-name="ohungarumlaut" unicode="&#x151;" horiz-adv-x="1284" 
d="M811 1499l-202 -297h-209l123 297h288zM1114 1499l-201 -297h-208l121 297h288zM639 -31q-122 0 -231 45t-186.5 121t-123 180.5t-45.5 220.5q0 157 77 288t212.5 207.5t299.5 76.5t299.5 -76.5t212.5 -207.5t77 -288q0 -116 -45.5 -221t-124 -181t-188.5 -120.5
t-234 -44.5zM642 294q104 0 174.5 70t70.5 174q0 106 -70.5 175.5t-174.5 69.5t-174.5 -69.5t-70.5 -175.5q0 -104 70.5 -174t174.5 -70z" />
    <glyph glyph-name="OE" unicode="&#x152;" horiz-adv-x="2370" 
d="M1605 573v-240h692v-333h-1061v96q-187 -122 -414 -122q-156 0 -295 59t-238.5 159.5t-157 238.5t-57.5 291q0 205 98 376t270 269.5t380 98.5q230 0 414 -120v93h1045v-333h-676v-224h529v-309h-529zM822 328q153 0 263.5 114t110.5 279t-111 278.5t-263 113.5
t-263.5 -114t-111.5 -278q0 -165 111.5 -279t263.5 -114z" />
    <glyph glyph-name="oe" unicode="&#x153;" horiz-adv-x="2038" 
d="M1976 431h-735q29 -82 96 -126.5t155 -44.5q122 0 215 81l158 -227q-162 -144 -396 -144q-121 0 -225.5 43.5t-181.5 121.5q-81 -78 -190 -122t-233 -44q-122 0 -231 45t-186.5 121t-123 180.5t-45.5 220.5q0 157 77 288t212.5 207.5t299.5 76.5q122 0 228.5 -43
t186.5 -120q155 163 385 163q171 0 295.5 -72.5t186.5 -198t62 -290.5q0 -50 -10 -116zM1456 830q-83 0 -140.5 -45t-80.5 -130h434q-44 175 -213 175zM642 294q104 0 174.5 70t70.5 174q0 106 -70.5 175.5t-174.5 69.5t-174.5 -69.5t-70.5 -175.5q0 -104 70.5 -174
t174.5 -70z" />
    <glyph glyph-name="Racute" unicode="&#x154;" horiz-adv-x="1361" 
d="M571 1796h333l-251 -260h-260zM1057 555l278 -555h-415l-215 460q-15 -1 -45 -1h-148v-459h-369v1439h622q225 0 365.5 -136.5t140.5 -353.5q0 -265 -214 -394zM734 1106h-222v-325h219q72 0 119 48.5t47 118.5q0 74 -47.5 116t-115.5 42z" />
    <glyph glyph-name="racute" unicode="&#x155;" horiz-adv-x="943" 
d="M519 1495h327l-229 -297h-237zM714 1107q136 0 257 -89l-153 -282q-75 54 -148 54q-84 0 -144.5 -67t-60.5 -182v-541h-346v1085h266l51 -133q96 155 278 155z" />
    <glyph glyph-name="uni0156" unicode="&#x156;" horiz-adv-x="1361" 
d="M1057 555l278 -555h-415l-215 460q-15 -1 -45 -1h-148v-459h-369v1439h622q225 0 365.5 -136.5t140.5 -353.5q0 -265 -214 -394zM734 1106h-222v-325h219q72 0 119 48.5t47 118.5q0 74 -47.5 116t-115.5 42zM682 -110q44 0 73 -29t29 -85q0 -138 -133 -248l-59 56
q78 74 78 113v5q-40 0 -66 27t-26 65q0 42 30 69t74 27z" />
    <glyph glyph-name="uni0157" unicode="&#x157;" horiz-adv-x="943" 
d="M714 1107q136 0 257 -89l-153 -282q-75 54 -148 54q-84 0 -144.5 -67t-60.5 -182v-541h-346v1085h266l51 -133q96 155 278 155zM311 -129q44 0 73.5 -29.5t29.5 -85.5q0 -138 -133 -248l-60 57q78 75 78 112v6q-40 0 -66 27t-26 66q0 41 30 68t74 27z" />
    <glyph glyph-name="Rcaron" unicode="&#x158;" horiz-adv-x="1361" 
d="M896 1738l-287 -204h-58l-289 204l112 155l206 -134l205 134zM1057 555l278 -555h-415l-215 460q-15 -1 -45 -1h-148v-459h-369v1439h622q225 0 365.5 -136.5t140.5 -353.5q0 -265 -214 -394zM734 1106h-222v-325h219q72 0 119 48.5t47 118.5q0 74 -47.5 116t-115.5 42z
" />
    <glyph glyph-name="rcaron" unicode="&#x159;" horiz-adv-x="943" 
d="M786 1361l-278 -179h-62l-279 179l104 157l205 -122l207 122zM714 1107q136 0 257 -89l-153 -282q-75 54 -148 54q-84 0 -144.5 -67t-60.5 -182v-541h-346v1085h266l51 -133q96 155 278 155z" />
    <glyph glyph-name="Sacute" unicode="&#x15a;" horiz-adv-x="1225" 
d="M991 1796l-251 -260h-260l178 260h333zM618 -25q-351 0 -596 262l233 242q169 -163 354 -163q87 0 130 30t43 81q0 34 -17 58.5t-72 52t-159 57.5q-60 17 -109 37t-109.5 57.5t-101.5 83t-69.5 115.5t-28.5 154t28 157.5t85 134.5t154.5 96.5t224.5 35.5q307 0 529 -204
l-208 -254q-56 51 -139 87.5t-166 36.5q-67 0 -103.5 -28t-36.5 -75q0 -43 63 -75q33 -17 169 -64q108 -38 183.5 -77t136 -93t90.5 -125t30 -161q0 -207 -147 -333t-391 -126z" />
    <glyph glyph-name="sacute" unicode="&#x15b;" horiz-adv-x="997" 
d="M851 1495l-228 -297h-238l139 297h327zM525 -31q-273 0 -498 163l149 238q68 -43 161 -74t175 -31q106 0 106 56q0 29 -39.5 49.5t-157.5 52.5q-72 19 -132 48t-110 70.5t-78 98.5t-28 125q0 149 123 247t335 98q201 0 411 -132l-154 -247q-53 33 -132 57.5t-141 24.5
q-98 0 -98 -54q0 -28 37 -46.5t147 -47.5q181 -46 272.5 -125.5t91.5 -222.5q0 -151 -121.5 -249.5t-318.5 -98.5z" />
    <glyph glyph-name="Scircumflex" unicode="&#x15c;" horiz-adv-x="1225" 
d="M663 1649l-206 -135l-112 156l289 204h58l287 -204l-111 -156zM618 -25q-351 0 -596 262l233 242q169 -163 354 -163q87 0 130 30t43 81q0 34 -17 58.5t-72 52t-159 57.5q-60 17 -109 37t-109.5 57.5t-101.5 83t-69.5 115.5t-28.5 154t28 157.5t85 134.5t154.5 96.5
t224.5 35.5q307 0 529 -204l-208 -254q-56 51 -139 87.5t-166 36.5q-67 0 -103.5 -28t-36.5 -75q0 -43 63 -75q33 -17 169 -64q108 -38 183.5 -77t136 -93t90.5 -125t30 -161q0 -207 -147 -333t-391 -126z" />
    <glyph glyph-name="scircumflex" unicode="&#x15d;" horiz-adv-x="997" 
d="M482 1294l-204 -122l-105 157l280 180h61l279 -180l-104 -157zM525 -31q-273 0 -498 163l149 238q68 -43 161 -74t175 -31q106 0 106 56q0 29 -39.5 49.5t-157.5 52.5q-72 19 -132 48t-110 70.5t-78 98.5t-28 125q0 149 123 247t335 98q201 0 411 -132l-154 -247
q-53 33 -132 57.5t-141 24.5q-98 0 -98 -54q0 -28 37 -46.5t147 -47.5q181 -46 272.5 -125.5t91.5 -222.5q0 -151 -121.5 -249.5t-318.5 -98.5z" />
    <glyph glyph-name="Scedilla" unicode="&#x15e;" horiz-adv-x="1225" 
d="M1156 434q0 -169 -100 -285.5t-274 -155.5q85 -133 85 -216q0 -44 -12.5 -75.5t-46 -61.5t-102 -47t-170.5 -21l-21 164q76 8 98.5 27t22.5 54q0 52 -72 160q-317 18 -542 260l233 242q169 -163 354 -163q87 0 130 30t43 81q0 34 -17 58.5t-72 52t-159 57.5
q-60 17 -109 37t-109.5 57.5t-101.5 83t-69.5 115.5t-28.5 154t28 157.5t85 134.5t154.5 96.5t224.5 35.5q307 0 529 -204l-208 -254q-56 51 -139 87.5t-166 36.5q-67 0 -103.5 -28t-36.5 -75q0 -43 63 -75q33 -17 169 -64q108 -38 183.5 -77t136 -93t90.5 -125t30 -161z
" />
    <glyph glyph-name="scedilla" unicode="&#x15f;" horiz-adv-x="997" 
d="M965 317q0 -141 -107 -237.5t-285 -108.5q74 -96 74 -170q0 -32 -7 -57t-27 -50.5t-53 -43t-89 -30t-131 -15.5l-21 155q76 8 98.5 27t22.5 54q0 29 -14.5 59t-51.5 83q-191 34 -347 149l149 238q68 -43 161 -74t175 -31q106 0 106 56q0 29 -39.5 49.5t-157.5 52.5
q-72 19 -132 48t-110 70.5t-78 98.5t-28 125q0 149 123 247t335 98q201 0 411 -132l-154 -247q-53 33 -132 57.5t-141 24.5q-98 0 -98 -54q0 -28 37 -46.5t147 -47.5q181 -46 272.5 -125.5t91.5 -222.5z" />
    <glyph glyph-name="Scaron" unicode="&#x160;" horiz-adv-x="1225" 
d="M349 1738l112 155l206 -134l205 134l111 -155l-287 -204h-58zM618 -25q-351 0 -596 262l233 242q169 -163 354 -163q87 0 130 30t43 81q0 34 -17 58.5t-72 52t-159 57.5q-60 17 -109 37t-109.5 57.5t-101.5 83t-69.5 115.5t-28.5 154t28 157.5t85 134.5t154.5 96.5
t224.5 35.5q307 0 529 -204l-208 -254q-56 51 -139 87.5t-166 36.5q-67 0 -103.5 -28t-36.5 -75q0 -43 63 -75q33 -17 169 -64q108 -38 183.5 -77t136 -93t90.5 -125t30 -161q0 -207 -147 -333t-391 -126z" />
    <glyph glyph-name="scaron" unicode="&#x161;" horiz-adv-x="997" 
d="M172 1361l104 157l205 -122l207 122l104 -157l-279 -179h-61zM525 -31q-273 0 -498 163l149 238q68 -43 161 -74t175 -31q106 0 106 56q0 29 -39.5 49.5t-157.5 52.5q-72 19 -132 48t-110 70.5t-78 98.5t-28 125q0 149 123 247t335 98q201 0 411 -132l-154 -247
q-53 33 -132 57.5t-141 24.5q-98 0 -98 -54q0 -28 37 -46.5t147 -47.5q181 -46 272.5 -125.5t91.5 -222.5q0 -151 -121.5 -249.5t-318.5 -98.5z" />
    <glyph glyph-name="uni0162" unicode="&#x162;" horiz-adv-x="1264" 
d="M1203 1096h-387v-1096h-68q90 -134 90 -223q0 -44 -12.5 -75.5t-46.5 -61.5t-102.5 -47t-170.5 -21l-21 164q76 8 98.5 27t22.5 54q0 32 -20 73t-67 110h-72v1096h-386v343h1142v-343z" />
    <glyph glyph-name="uni0163" unicode="&#x163;" horiz-adv-x="707" 
d="M702 769h-210v-769h-98q40 -42 70 -96t30 -103q0 -40 -12.5 -70.5t-44 -59t-95 -45.5t-156.5 -21l-20 155q76 8 98.5 27t22.5 54q0 31 -17 62.5t-62 96.5h-63v769h-131v316h130v252l349 86v-338h209v-316z" />
    <glyph glyph-name="Tcaron" unicode="&#x164;" horiz-adv-x="1264" 
d="M321 1738l111 155l206 -134l206 134l110 -155l-286 -204h-59zM816 0h-369v1096h-386v343h1142v-343h-387v-1096z" />
    <glyph glyph-name="tcaron" unicode="&#x165;" horiz-adv-x="747" 
d="M774 1207h-197l-25 410h250zM492 0h-347v769h-131v316h130v252l349 86v-338h209v-316h-210v-769z" />
    <glyph glyph-name="Tbar" unicode="&#x166;" horiz-adv-x="1264" 
d="M1203 1439v-343h-387v-248h198v-283h-198v-565h-369v565h-193v283h193v248h-386v343h1142z" />
    <glyph glyph-name="tbar" unicode="&#x167;" horiz-adv-x="707" 
d="M702 1085v-316h-210v-147h138v-200h-138v-422h-347v422h-147v200h147v147h-131v316h130v252l349 86v-338h209z" />
    <glyph glyph-name="Utilde" unicode="&#x168;" horiz-adv-x="1469" 
d="M515 1532l-135 76q45 110 98.5 153.5t114.5 43.5q62 0 142.5 -31.5t102.5 -31.5q35 0 70 59l134 -76q-78 -197 -212 -197q-62 0 -142 31.5t-102 31.5q-36 0 -71 -59zM733 -31q-192 0 -333.5 78t-213 211.5t-71.5 305.5v875h368v-823q0 -138 66.5 -221t183.5 -83
q118 0 185.5 83t67.5 221v823h369v-875q0 -128 -42 -237t-120.5 -188.5t-196.5 -124.5t-263 -45z" />
    <glyph glyph-name="utilde" unicode="&#x169;" horiz-adv-x="1307" 
d="M542 1249q-36 0 -71 -59l-135 76q45 110 98.5 153.5t114.5 43.5q62 0 142.5 -31.5t102.5 -31.5q35 0 70 59l134 -76q-78 -197 -212 -197q-62 0 -142 31.5t-102 31.5zM842 496v589h346v-1085h-266l-51 130q-62 -68 -161.5 -110.5t-191.5 -42.5q-193 0 -311 126.5
t-118 346.5v635h346v-573q0 -104 51 -161.5t137 -57.5q91 0 155 61.5t64 141.5z" />
    <glyph glyph-name="Umacron" unicode="&#x16a;" horiz-adv-x="1469" 
d="M1017 1539h-586v205h586v-205zM733 -31q-192 0 -333.5 78t-213 211.5t-71.5 305.5v875h368v-823q0 -138 66.5 -221t183.5 -83q118 0 185.5 83t67.5 221v823h369v-875q0 -128 -42 -237t-120.5 -188.5t-196.5 -124.5t-263 -45z" />
    <glyph glyph-name="umacron" unicode="&#x16b;" horiz-adv-x="1307" 
d="M377 1402h586v-205h-586v205zM842 496v589h346v-1085h-266l-51 130q-62 -68 -161.5 -110.5t-191.5 -42.5q-193 0 -311 126.5t-118 346.5v635h346v-573q0 -104 51 -161.5t137 -57.5q91 0 155 61.5t64 141.5z" />
    <glyph glyph-name="Ubreve" unicode="&#x16c;" horiz-adv-x="1469" 
d="M714 1535q-156 0 -235.5 80t-80.5 205h237q-3 -43 16.5 -70.5t62.5 -27.5q44 0 64 27.5t17 70.5h235q-1 -127 -80 -206t-236 -79zM733 -31q-192 0 -333.5 78t-213 211.5t-71.5 305.5v875h368v-823q0 -138 66.5 -221t183.5 -83q118 0 185.5 83t67.5 221v823h369v-875
q0 -128 -42 -237t-120.5 -188.5t-196.5 -124.5t-263 -45z" />
    <glyph glyph-name="ubreve" unicode="&#x16d;" horiz-adv-x="1307" 
d="M668 1193q-156 0 -232.5 81t-77.5 219h229q0 -58 18.5 -82.5t62.5 -24.5q43 0 62.5 24.5t19.5 82.5h226q0 -140 -76 -220t-232 -80zM842 496v589h346v-1085h-266l-51 130q-62 -68 -161.5 -110.5t-191.5 -42.5q-193 0 -311 126.5t-118 346.5v635h346v-573
q0 -104 51 -161.5t137 -57.5q91 0 155 61.5t64 141.5z" />
    <glyph glyph-name="Uring" unicode="&#x16e;" horiz-adv-x="1469" 
d="M714 1540q-84 0 -136.5 46.5t-52.5 124.5q0 80 52 126.5t137 46.5q84 0 136 -46.5t52 -126.5q0 -78 -52 -124.5t-136 -46.5zM714 1650q29 0 47 17t18 45q0 29 -18 46.5t-47 17.5t-47.5 -18t-18.5 -46t18.5 -45t47.5 -17zM733 -31q-192 0 -333.5 78t-213 211.5
t-71.5 305.5v875h368v-823q0 -138 66.5 -221t183.5 -83q118 0 185.5 83t67.5 221v823h369v-875q0 -128 -42 -237t-120.5 -188.5t-196.5 -124.5t-263 -45z" />
    <glyph glyph-name="uring" unicode="&#x16f;" horiz-adv-x="1307" 
d="M670 1198q-91 0 -147.5 50t-56.5 135q0 87 56.5 137.5t147.5 50.5t147.5 -50.5t56.5 -137.5q0 -85 -56.5 -135t-147.5 -50zM670 1453q-31 0 -51 -19t-20 -50q0 -30 20 -48.5t51 -18.5q32 0 51.5 18t19.5 49t-19.5 50t-51.5 19zM842 496v589h346v-1085h-266l-51 130
q-62 -68 -161.5 -110.5t-191.5 -42.5q-193 0 -311 126.5t-118 346.5v635h346v-573q0 -104 51 -161.5t137 -57.5q91 0 155 61.5t64 141.5z" />
    <glyph glyph-name="Uhungarumlaut" unicode="&#x170;" horiz-adv-x="1469" 
d="M819 1799l-206 -260h-213l146 260h273zM1138 1798l-212 -260h-220l150 260h282zM733 -31q-192 0 -333.5 78t-213 211.5t-71.5 305.5v875h368v-823q0 -138 66.5 -221t183.5 -83q118 0 185.5 83t67.5 221v823h369v-875q0 -128 -42 -237t-120.5 -188.5t-196.5 -124.5
t-263 -45z" />
    <glyph glyph-name="uhungarumlaut" unicode="&#x171;" horiz-adv-x="1307" 
d="M547 1495h288l-202 -297h-209zM1138 1495l-201 -297h-209l122 297h288zM842 496v589h346v-1085h-266l-51 130q-62 -68 -161.5 -110.5t-191.5 -42.5q-193 0 -311 126.5t-118 346.5v635h346v-573q0 -104 51 -161.5t137 -57.5q91 0 155 61.5t64 141.5z" />
    <glyph glyph-name="Uogonek" unicode="&#x172;" horiz-adv-x="1469" 
d="M1355 1439v-875q0 -142 -51.5 -261t-147.5 -198q-98 -88 -98 -152q0 -31 17 -50.5t47 -19.5q22 0 67 9l17 -146q-67 -35 -166 -35q-111 0 -158.5 46.5t-47.5 117.5q0 50 23 103q-60 -9 -124 -9q-192 0 -333.5 78t-213 211.5t-71.5 305.5v875h368v-823q0 -138 66.5 -221
t183.5 -83q118 0 185.5 83t67.5 221v823h369z" />
    <glyph glyph-name="uogonek" unicode="&#x173;" horiz-adv-x="1307" 
d="M1245 -211l18 -140q-67 -35 -160 -35q-100 0 -146.5 49t-46.5 119q0 64 44 126.5t86 91.5h-118l-51 130q-62 -68 -161.5 -110.5t-191.5 -42.5q-193 0 -311 126.5t-118 346.5v635h346v-573q0 -104 51 -161.5t137 -57.5q91 0 155 61.5t64 141.5v589h346v-1085h24
q-98 -77 -98 -151q0 -30 17 -49.5t48 -19.5q21 0 66 9z" />
    <glyph glyph-name="Wcircumflex" unicode="&#x174;" horiz-adv-x="2079" 
d="M1040 1651l-205 -134l-112 155l289 204h58l287 -204l-111 -155zM873 0h-314l-549 1439h397l315 -920l290 920h390l-171 -516l132 -403l310 919h397l-554 -1439h-311l-164 444z" />
    <glyph glyph-name="wcircumflex" unicode="&#x175;" horiz-adv-x="1774" 
d="M1094 1172l-207 122l-205 -122l-104 157l279 180h62l278 -180zM1164 391l227 694h376l-407 -1085h-319l-147 394l-141 -394h-337l-409 1085h370l209 -694l185 694h370l-110 -306z" />
    <glyph glyph-name="Ycircumflex" unicode="&#x176;" horiz-adv-x="1390" 
d="M697 1649l-205 -135l-112 156l289 204h58l287 -204l-111 -156zM880 0h-369v549l-501 890h426l262 -546l254 546h428l-500 -888v-551z" />
    <glyph glyph-name="ycircumflex" unicode="&#x177;" horiz-adv-x="1219" 
d="M609 1294l-205 -122l-104 157l280 180h61l279 -180l-104 -157zM654 -364h-368l150 367l-429 1082h378l222 -679l222 679h383z" />
    <glyph glyph-name="Ydieresis" unicode="&#x178;" horiz-adv-x="1390" 
d="M481 1537q-65 0 -106 39.5t-41 101.5q0 63 41 103t106 40t106.5 -40t41.5 -103q0 -62 -41.5 -101.5t-106.5 -39.5zM911 1537q-64 0 -105 39.5t-41 101.5q0 63 41 103t105 40q65 0 106.5 -40t41.5 -103q0 -62 -41.5 -101.5t-106.5 -39.5zM880 0h-369v549l-501 890h426
l262 -546l254 546h428l-500 -888v-551z" />
    <glyph glyph-name="Zacute" unicode="&#x179;" horiz-adv-x="1305" 
d="M957 1796l-250 -260h-261l179 260h332zM1232 0h-1158v269l634 837h-622v333h1112v-252l-645 -854h679v-333z" />
    <glyph glyph-name="zacute" unicode="&#x17a;" horiz-adv-x="1062" 
d="M905 1495l-228 -297h-238l140 297h326zM1005 0h-936v234l460 545h-445v306h897v-228l-463 -552h487v-305z" />
    <glyph glyph-name="Zdotaccent" unicode="&#x17b;" horiz-adv-x="1305" 
d="M628 1532q-65 0 -106.5 40t-41.5 101q0 64 41.5 104t106.5 40t106 -40t41 -104q0 -62 -41.5 -101.5t-105.5 -39.5zM1232 0h-1158v269l634 837h-622v333h1112v-252l-645 -854h679v-333z" />
    <glyph glyph-name="zdotaccent" unicode="&#x17c;" horiz-adv-x="1062" 
d="M538 1190q-65 0 -106.5 40t-41.5 101q0 64 41.5 104t106.5 40t106 -40t41 -104q0 -62 -41.5 -101.5t-105.5 -39.5zM1005 0h-936v234l460 545h-445v306h897v-228l-463 -552h487v-305z" />
    <glyph glyph-name="Zcaron" unicode="&#x17d;" horiz-adv-x="1305" 
d="M315 1738l112 155l206 -134l206 134l110 -155l-286 -204h-59zM1232 0h-1158v269l634 837h-622v333h1112v-252l-645 -854h679v-333z" />
    <glyph glyph-name="zcaron" unicode="&#x17e;" horiz-adv-x="1062" 
d="M227 1361l105 157l205 -122l206 122l104 -157l-279 -179h-61zM1005 0h-936v234l460 545h-445v306h897v-228l-463 -552h487v-305z" />
    <glyph glyph-name="uni0189" unicode="&#x189;" horiz-adv-x="1516" 
d="M143 1439h542q156 0 296 -55t241.5 -150t161 -229t59.5 -285q0 -202 -100.5 -367.5t-273.5 -259t-381 -93.5h-545v583h-153v282h153v574zM512 349h188q160 0 264.5 104t104.5 267q0 161 -104.5 265.5t-265.5 104.5h-187v-225h237v-282h-237v-234z" />
    <glyph glyph-name="uni0189" unicode="&#x256;" horiz-adv-x="1516" 
d="M143 1439h542q156 0 296 -55t241.5 -150t161 -229t59.5 -285q0 -202 -100.5 -367.5t-273.5 -259t-381 -93.5h-545v583h-153v282h153v574zM512 349h188q160 0 264.5 104t104.5 267q0 161 -104.5 265.5t-265.5 104.5h-187v-225h237v-282h-237v-234z" />
    <glyph glyph-name="uni018F" unicode="&#x18f;" horiz-adv-x="1625" 
d="M776 1482q165 0 310.5 -60.5t246.5 -163t159.5 -242t58.5 -293.5q0 -208 -94 -381t-264 -275t-381 -102q-139 0 -257.5 36t-206.5 102t-150 158.5t-93 207t-31 244.5q0 58 10 129h1078q-39 137 -150.5 215.5t-254.5 78.5q-193 0 -340 -121l-187 269q228 198 546 198z
M801 289q136 0 234 76.5t131 212.5h-719q32 -137 125 -213t229 -76z" />
    <glyph glyph-name="florin" unicode="&#x192;" horiz-adv-x="902" 
d="M8 -455q-64 0 -127 18t-102 49l121 225q46 -13 82 -13q135 0 154 150l108 787h-175l29 257h177l8 53q10 80 43 150.5t87.5 128t136.5 91t182 33.5q69 0 132 -16.5t91 -43.5l-119 -224q-39 17 -94 17q-59 0 -99.5 -39t-48.5 -94l-9 -56h283l-33 -257h-282l-106 -793
q-14 -111 -70 -206t-153 -156t-216 -61z" />
    <glyph glyph-name="uni019D" unicode="&#x19d;" horiz-adv-x="1542" 
d="M1040 626v813h359v-1439h-334l-563 858v-882q0 -201 -113 -305.5t-315 -104.5h-62v305h19q59 0 85.5 29.5t26.5 93.5v1445h369z" />
    <glyph glyph-name="Ohorn" unicode="&#x1a0;" horiz-adv-x="1643" 
d="M1347 1257q105 -102 164 -240.5t59 -294.5q0 -153 -58 -291t-157 -238.5t-238.5 -159.5t-294.5 -59q-156 0 -295 59t-238.5 159.5t-157 238.5t-57.5 291q0 205 98 376t270 269.5t380 98.5q186 0 345 -81q67 0 89.5 58.5t-15.5 133.5l246 55q55 -133 16 -234t-156 -141z
M822 328q153 0 263.5 114t110.5 279t-111 278.5t-263 113.5t-263.5 -114t-111.5 -278q0 -165 111.5 -279t263.5 -114z" />
    <glyph glyph-name="ohorn" unicode="&#x1a1;" horiz-adv-x="1284" 
d="M1058 945q82 -78 127.5 -184t45.5 -225q0 -116 -45.5 -221t-124 -181t-188.5 -120.5t-234 -44.5q-122 0 -231 45t-186.5 121t-123 180.5t-45.5 220.5q0 157 77 288t212.5 207.5t299.5 76.5q146 0 272 -62v6q77 1 89 57.5t-36 135.5l222 44q60 -123 24.5 -214.5
t-155.5 -129.5zM642 294q104 0 174.5 70t70.5 174q0 106 -70.5 175.5t-174.5 69.5t-174.5 -69.5t-70.5 -175.5q0 -104 70.5 -174t174.5 -70z" />
    <glyph glyph-name="Uhorn" unicode="&#x1af;" horiz-adv-x="1604" 
d="M1317 1631l246 55q63 -152 3.5 -259.5t-211.5 -130.5v-732q0 -128 -42 -237t-120.5 -188.5t-196.5 -124.5t-263 -45q-192 0 -333.5 78t-213 211.5t-71.5 305.5v875h368v-823q0 -138 66.5 -221t183.5 -83q118 0 185.5 83t67.5 221v823h259q67 1 88.5 59t-16.5 133z" />
    <glyph glyph-name="uhorn" unicode="&#x1b0;" horiz-adv-x="1478" 
d="M1221 1266l215 42q72 -145 3 -244t-251 -109v-955h-266l-51 130q-62 -68 -161.5 -110.5t-191.5 -42.5q-193 0 -311 126.5t-118 346.5v635h346v-573q0 -104 51 -161.5t137 -57.5q91 0 155 61.5t64 141.5v589h346v-5q42 4 59 30.5t9.5 66.5t-35.5 89z" />
    <glyph glyph-name="uni01B5" unicode="&#x1b5;" horiz-adv-x="1305" 
d="M741 582l-188 -249h679v-333h-1158v269l236 313h-123v282h337l184 242h-622v333h1112v-252l-244 -323h199v-282h-412z" />
    <glyph glyph-name="uni01B6" unicode="&#x1b6;" horiz-adv-x="1062" 
d="M638 449l-120 -144h487v-305h-936v234l181 215h-92v195h257l114 135h-445v306h897v-228l-178 -213h115v-195h-280z" />
    <glyph glyph-name="uni01C4" unicode="&#x1c4;" horiz-adv-x="2779" 
d="M1789 1738l112 155l205 -134l206 134l111 -155l-287 -204h-58zM688 0h-545v1439h542q156 0 296 -55t241.5 -150t161 -229t59.5 -285q0 -202 -100.5 -367.5t-273.5 -259t-381 -93.5zM2705 0h-1158v269l634 837h-621v333h1112v-252l-646 -854h679v-333zM512 1090v-741h188
q160 0 264.5 104t104.5 267q0 161 -104.5 265.5t-265.5 104.5h-187z" />
    <glyph glyph-name="uni01C5" unicode="&#x1c5;" horiz-adv-x="2579" 
d="M1744 1361l104 157l205 -122l206 122l103 -157l-277 -179h-62zM688 0h-545v1439h542q156 0 296 -55t241.5 -150t161 -229t59.5 -285q0 -202 -100.5 -367.5t-273.5 -259t-381 -93.5zM512 1090v-741h188q160 0 264.5 104t104.5 267q0 161 -104.5 265.5t-265.5 104.5h-187z
M2521 0h-936v234l461 545h-445v306h897v-228l-463 -552h486v-305z" />
    <glyph glyph-name="uni01C6" unicode="&#x1c6;" horiz-adv-x="2385" 
d="M858 1023v514h346v-1537h-266l-38 98q-117 -124 -299 -124q-149 0 -275 76t-199.5 207t-73.5 286q0 154 73.5 284t199.5 205.5t275 75.5t257 -85zM2169 1361l-278 -179h-61l-280 179l105 157l205 -122l205 122zM2304 857l-463 -552h487v-305h-936v234l460 545h-445v306
h897v-228zM634 297q103 0 171.5 68.5t68.5 174.5q0 105 -68 175t-170 70q-103 0 -171 -69.5t-68 -175.5t67.5 -174.5t169.5 -68.5z" />
    <glyph glyph-name="uni01C7" unicode="&#x1c7;" horiz-adv-x="2167" 
d="M1108 0h-965v1439h369v-1087h596v-352zM1575 -31q-89 0 -188.5 45t-188.5 126l201 262q100 -78 173 -78q112 0 112 139v976h369v-1002q0 -216 -128 -342t-350 -126z" />
    <glyph glyph-name="uni01C8" unicode="&#x1c8;" horiz-adv-x="1765" 
d="M1478 1219q-90 0 -148.5 59.5t-58.5 137.5t58.5 138.5t149.5 60.5t149 -60.5t58 -138.5q0 -79 -58 -138t-150 -59zM1108 0h-965v1439h369v-1087h596v-352zM1207 -393h-62v304h18q139 0 139 137v1037h345v-1030q0 -220 -116 -334t-324 -114z" />
    <glyph glyph-name="uni01C9" unicode="&#x1c9;" horiz-adv-x="1180" 
d="M893 1219q-90 0 -148.5 59.5t-58.5 137.5t58.5 138.5t149.5 60.5t149 -60.5t58 -138.5q0 -79 -58 -138t-150 -59zM463 0h-344v1536h344v-1536zM623 -393h-63v304h19q138 0 138 137v1037h345v-1030q0 -220 -115.5 -334t-323.5 -114z" />
    <glyph glyph-name="uni01CA" unicode="&#x1ca;" horiz-adv-x="2526" 
d="M502 0h-359v1439h369l528 -813v813h359v-1439h-334l-563 858v-858zM1933 -31q-89 0 -188.5 45t-188.5 126l201 262q100 -78 173 -78q53 0 83 34.5t30 104.5v976h369v-1002q0 -216 -128.5 -342t-350.5 -126z" />
    <glyph glyph-name="uni01CB" unicode="&#x1cb;" horiz-adv-x="2158" 
d="M1871 1219q-90 0 -148.5 59.5t-58.5 137.5t58.5 138.5t149.5 60.5t149 -60.5t58 -138.5q0 -79 -58 -138t-150 -59zM502 0h-359v1439h369l528 -813v813h359v-1439h-334l-563 858v-858zM1601 -393h-63v304h18q139 0 139 137v1037h345v-1030q0 -220 -115.5 -334t-323.5 -114
z" />
    <glyph glyph-name="uni01CC" unicode="&#x1cc;" horiz-adv-x="1941" 
d="M1654 1219q-90 0 -148.5 59.5t-58.5 137.5t58.5 138.5t149.5 60.5t149 -60.5t58 -138.5q0 -79 -58 -138t-150 -59zM788 1108q194 0 312 -126t118 -346v-636h-347v573q0 104 -50.5 162t-136.5 58q-91 0 -155 -61.5t-64 -141.5v-590h-346v1085h266l50 -130
q62 68 161.5 110.5t191.5 42.5zM1478 48v1037h345v-1030q0 -220 -116 -334t-324 -114h-62v304h18q139 0 139 137z" />
    <glyph glyph-name="uni01CD" unicode="&#x1cd;" horiz-adv-x="1449" 
d="M1031 1738l-287 -204h-58l-289 204l112 155l206 -134l206 134zM1440 0h-380l-77 225h-516l-77 -225h-380l555 1441h323zM709 936l-138 -404h309l-138 404l-16 65h-2z" />
    <glyph glyph-name="uni01CE" unicode="&#x1ce;" horiz-adv-x="1323" 
d="M970 1364l-279 -179h-61l-280 179l105 157l204 -122l207 122zM904 980l44 105h256v-1085h-266l-38 98q-117 -124 -299 -124q-149 0 -275 76t-199.5 207t-73.5 286q0 154 73.5 284t199.5 205.5t275 75.5q183 0 303 -128zM634 297q103 0 171.5 68.5t68.5 174.5
q0 105 -68 175t-170 70q-103 0 -171 -69.5t-68 -175.5t67.5 -174.5t169.5 -68.5z" />
    <glyph glyph-name="uni01CF" unicode="&#x1cf;" horiz-adv-x="655" 
d="M3 1738l112 155l206 -134l205 134l111 -155l-287 -204h-58zM512 0h-369v1439h369v-1439z" />
    <glyph glyph-name="uni01D0" unicode="&#x1d0;" horiz-adv-x="583" 
d="M-18 1361l104 157l205 -122l207 122l103 -157l-278 -179h-62zM465 0h-346v1085h346v-1085z" />
    <glyph glyph-name="uni01D1" unicode="&#x1d1;" horiz-adv-x="1643" 
d="M509 1738l112 155l205 -134l206 134l111 -155l-287 -204h-58zM822 -26q-156 0 -295 59t-238.5 159.5t-157 238.5t-57.5 291q0 205 98 376t270 269.5t380 98.5q156 0 294.5 -58t238 -157.5t157.5 -237t58 -291.5q0 -153 -58 -291t-157 -238.5t-238.5 -159.5t-294.5 -59z
M822 328q153 0 263.5 114t110.5 279t-111 278.5t-263 113.5t-263.5 -114t-111.5 -278q0 -165 111.5 -279t263.5 -114z" />
    <glyph glyph-name="uni01D2" unicode="&#x1d2;" horiz-adv-x="1284" 
d="M333 1365l104 157l205 -122l207 122l103 -157l-278 -179h-62zM639 -31q-122 0 -231 45t-186.5 121t-123 180.5t-45.5 220.5q0 157 77 288t212.5 207.5t299.5 76.5t299.5 -76.5t212.5 -207.5t77 -288q0 -116 -45.5 -221t-124 -181t-188.5 -120.5t-234 -44.5zM642 294
q104 0 174.5 70t70.5 174q0 106 -70.5 175.5t-174.5 69.5t-174.5 -69.5t-70.5 -175.5q0 -104 70.5 -174t174.5 -70z" />
    <glyph glyph-name="uni01D3" unicode="&#x1d3;" horiz-adv-x="1469" 
d="M400 1738l112 155l206 -134l206 134l110 -155l-286 -204h-59zM733 -31q-192 0 -333.5 78t-213 211.5t-71.5 305.5v875h368v-823q0 -138 66.5 -221t183.5 -83q118 0 185.5 83t67.5 221v823h369v-875q0 -128 -42 -237t-120.5 -188.5t-196.5 -124.5t-263 -45z" />
    <glyph glyph-name="uni01D4" unicode="&#x1d4;" horiz-adv-x="1307" 
d="M975 1361l-279 -179h-61l-280 179l105 157l205 -122l206 122zM842 496v589h346v-1085h-266l-51 130q-62 -68 -161.5 -110.5t-191.5 -42.5q-193 0 -311 126.5t-118 346.5v635h346v-573q0 -104 51 -161.5t137 -57.5q91 0 155 61.5t64 141.5z" />
    <glyph glyph-name="uni01D5" unicode="&#x1d5;" horiz-adv-x="1469" 
d="M1017 1864h-586v204h586v-204zM498 1537q-65 0 -106.5 39.5t-41.5 101.5q0 63 41.5 103t106.5 40t106 -40t41 -103q0 -62 -41 -101.5t-106 -39.5zM928 1537q-65 0 -106 39.5t-41 101.5q0 63 41 103t106 40t106 -40t41 -103q0 -62 -41 -101.5t-106 -39.5zM733 -31
q-192 0 -333.5 78t-213 211.5t-71.5 305.5v875h368v-823q0 -138 66.5 -221t183.5 -83q118 0 185.5 83t67.5 221v823h369v-875q0 -128 -42 -237t-120.5 -188.5t-196.5 -124.5t-263 -45z" />
    <glyph glyph-name="uni01D6" unicode="&#x1d6;" horiz-adv-x="1307" 
d="M377 1731h586v-205h-586v205zM451 1190q-65 0 -106.5 40t-41.5 101q0 64 41.5 104t106.5 40t106 -40t41 -104q0 -62 -41.5 -101.5t-105.5 -39.5zM734 1331q0 64 41 104t106 40t106 -40t41 -104q0 -62 -41 -101.5t-106 -39.5q-64 0 -105.5 39.5t-41.5 101.5zM842 496v589
h346v-1085h-266l-51 130q-62 -68 -161.5 -110.5t-191.5 -42.5q-193 0 -311 126.5t-118 346.5v635h346v-573q0 -104 51 -161.5t137 -57.5q91 0 155 61.5t64 141.5z" />
    <glyph glyph-name="uni01D7" unicode="&#x1d7;" horiz-adv-x="1469" 
d="M1042 2121l-250 -260h-261l179 260h332zM498 1537q-65 0 -106.5 39.5t-41.5 101.5q0 63 41.5 103t106.5 40t106 -40t41 -103q0 -62 -41 -101.5t-106 -39.5zM928 1537q-65 0 -106 39.5t-41 101.5q0 63 41 103t106 40t106 -40t41 -103q0 -62 -41 -101.5t-106 -39.5z
M733 -31q-192 0 -333.5 78t-213 211.5t-71.5 305.5v875h368v-823q0 -138 66.5 -221t183.5 -83q118 0 185.5 83t67.5 221v823h369v-875q0 -128 -42 -237t-120.5 -188.5t-196.5 -124.5t-263 -45z" />
    <glyph glyph-name="uni01D8" unicode="&#x1d8;" horiz-adv-x="1307" 
d="M708 1824h326l-228 -297h-238zM451 1190q-65 0 -106.5 40t-41.5 101q0 64 41.5 104t106.5 40t106 -40t41 -104q0 -62 -41.5 -101.5t-105.5 -39.5zM734 1331q0 64 41 104t106 40t106 -40t41 -104q0 -62 -41 -101.5t-106 -39.5q-64 0 -105.5 39.5t-41.5 101.5zM842 496v589
h346v-1085h-266l-51 130q-62 -68 -161.5 -110.5t-191.5 -42.5q-193 0 -311 126.5t-118 346.5v635h346v-573q0 -104 51 -161.5t137 -57.5q91 0 155 61.5t64 141.5z" />
    <glyph glyph-name="uni01D9" unicode="&#x1d9;" horiz-adv-x="1469" 
d="M400 2062l112 156l206 -134l206 134l110 -156l-286 -203h-59zM498 1537q-65 0 -106.5 39.5t-41.5 101.5q0 63 41.5 103t106.5 40t106 -40t41 -103q0 -62 -41 -101.5t-106 -39.5zM928 1537q-65 0 -106 39.5t-41 101.5q0 63 41 103t106 40t106 -40t41 -103
q0 -62 -41 -101.5t-106 -39.5zM733 -31q-192 0 -333.5 78t-213 211.5t-71.5 305.5v875h368v-823q0 -138 66.5 -221t183.5 -83q118 0 185.5 83t67.5 221v823h369v-875q0 -128 -42 -237t-120.5 -188.5t-196.5 -124.5t-263 -45z" />
    <glyph glyph-name="uni01DA" unicode="&#x1da;" horiz-adv-x="1307" 
d="M975 1690l-279 -180h-61l-280 180l105 156l205 -122l206 122zM451 1190q-65 0 -106.5 40t-41.5 101q0 64 41.5 104t106.5 40t106 -40t41 -104q0 -62 -41.5 -101.5t-105.5 -39.5zM734 1331q0 64 41 104t106 40t106 -40t41 -104q0 -62 -41 -101.5t-106 -39.5
q-64 0 -105.5 39.5t-41.5 101.5zM842 496v589h346v-1085h-266l-51 130q-62 -68 -161.5 -110.5t-191.5 -42.5q-193 0 -311 126.5t-118 346.5v635h346v-573q0 -104 51 -161.5t137 -57.5q91 0 155 61.5t64 141.5z" />
    <glyph glyph-name="uni01DB" unicode="&#x1db;" horiz-adv-x="1469" 
d="M858 1861h-260l-251 260h333zM498 1537q-65 0 -106.5 39.5t-41.5 101.5q0 63 41.5 103t106.5 40t106 -40t41 -103q0 -62 -41 -101.5t-106 -39.5zM928 1537q-65 0 -106 39.5t-41 101.5q0 63 41 103t106 40t106 -40t41 -103q0 -62 -41 -101.5t-106 -39.5zM733 -31
q-192 0 -333.5 78t-213 211.5t-71.5 305.5v875h368v-823q0 -138 66.5 -221t183.5 -83q118 0 185.5 83t67.5 221v823h369v-875q0 -128 -42 -237t-120.5 -188.5t-196.5 -124.5t-263 -45z" />
    <glyph glyph-name="uni01DC" unicode="&#x1dc;" horiz-adv-x="1307" 
d="M739 1824l140 -297h-238l-228 297h326zM451 1190q-65 0 -106.5 40t-41.5 101q0 64 41.5 104t106.5 40t106 -40t41 -104q0 -62 -41.5 -101.5t-105.5 -39.5zM734 1331q0 64 41 104t106 40t106 -40t41 -104q0 -62 -41 -101.5t-106 -39.5q-64 0 -105.5 39.5t-41.5 101.5z
M842 496v589h346v-1085h-266l-51 130q-62 -68 -161.5 -110.5t-191.5 -42.5q-193 0 -311 126.5t-118 346.5v635h346v-573q0 -104 51 -161.5t137 -57.5q91 0 155 61.5t64 141.5z" />
    <glyph glyph-name="uni01DE" unicode="&#x1de;" horiz-adv-x="1449" 
d="M428 2068h586v-204h-586v204zM495 1537q-65 0 -106.5 39.5t-41.5 101.5q0 63 41.5 103t106.5 40t106 -40t41 -103q0 -62 -41 -101.5t-106 -39.5zM778 1678q0 63 41 103t106 40t106 -40t41 -103q0 -62 -41 -101.5t-106 -39.5t-106 39.5t-41 101.5zM1440 0h-380l-77 225
h-516l-77 -225h-380l555 1441h323zM709 936l-138 -404h309l-138 404l-16 65h-2z" />
    <glyph glyph-name="uni01DF" unicode="&#x1df;" horiz-adv-x="1323" 
d="M372 1733h585v-205h-585v205zM445 1193q-64 0 -105.5 39.5t-41.5 101.5q0 64 41 104t106 40t106.5 -40t41.5 -104q0 -61 -41.5 -101t-106.5 -40zM729 1334q0 64 41 104t106 40t106 -40t41 -104q0 -62 -41 -101.5t-106 -39.5q-64 0 -105.5 39.5t-41.5 101.5zM904 980
l44 105h256v-1085h-266l-38 98q-117 -124 -299 -124q-149 0 -275 76t-199.5 207t-73.5 286q0 154 73.5 284t199.5 205.5t275 75.5q183 0 303 -128zM634 297q103 0 171.5 68.5t68.5 174.5q0 105 -68 175t-170 70q-103 0 -171 -69.5t-68 -175.5t67.5 -174.5t169.5 -68.5z" />
    <glyph glyph-name="uni01E0" unicode="&#x1e0;" horiz-adv-x="1449" 
d="M428 2061h586v-204h-586v204zM562 1673q0 64 41.5 104t106.5 40t106 -40t41 -104q0 -62 -41.5 -101.5t-105.5 -39.5q-65 0 -106.5 40t-41.5 101zM1440 0h-380l-77 225h-516l-77 -225h-380l555 1441h323zM709 936l-138 -404h309l-138 404l-16 65h-2z" />
    <glyph glyph-name="uni01E1" unicode="&#x1e1;" horiz-adv-x="1323" 
d="M372 1726h585v-204h-585v204zM513 1334q0 64 41 104t106 40t106.5 -40t41.5 -104q0 -61 -41.5 -101t-106.5 -40q-64 0 -105.5 39.5t-41.5 101.5zM904 980l44 105h256v-1085h-266l-38 98q-117 -124 -299 -124q-149 0 -275 76t-199.5 207t-73.5 286q0 154 73.5 284
t199.5 205.5t275 75.5q183 0 303 -128zM634 297q103 0 171.5 68.5t68.5 174.5q0 105 -68 175t-170 70q-103 0 -171 -69.5t-68 -175.5t67.5 -174.5t169.5 -68.5z" />
    <glyph glyph-name="uni01E2" unicode="&#x1e2;" horiz-adv-x="2241" 
d="M1327 1744h586v-205h-586v205zM1476 573v-240h692v-333h-1061v208h-520l-137 -209h-440l1018 1440h1124v-333h-676v-224h529v-309h-529zM1107 1000l-295 -448h295v448z" />
    <glyph glyph-name="uni01E3" unicode="&#x1e3;" horiz-adv-x="2048" 
d="M724 1402h586v-205h-586v205zM1986 431h-736q29 -82 96 -126.5t155 -44.5q122 0 215 81l158 -227q-162 -144 -395 -144q-177 0 -320 93l-24 -63h-164l-41 115q-131 -144 -336 -144q-148 0 -273 76t-196.5 206.5t-71.5 285.5q0 154 72 285t196.5 207.5t272.5 76.5
q207 0 338 -149l50 126h153l23 -62q133 85 293 85q171 0 295.5 -72.5t186.5 -198t62 -290.5q0 -57 -9 -116zM1465 830q-83 0 -140.5 -45t-80.5 -130h434q-44 175 -213 175zM646 285q106 0 177 71t71 181q0 112 -70.5 183.5t-177.5 71.5q-105 0 -177.5 -72t-72.5 -183
q0 -109 72.5 -180.5t177.5 -71.5z" />
    <glyph glyph-name="Gcaron" unicode="&#x1e6;" horiz-adv-x="1410" 
d="M1149 1738l-287 -204h-58l-289 204l112 155l206 -134l205 134zM970 339v327h348v-534q-97 -75 -227 -116.5t-269 -41.5q-156 0 -295 59t-238.5 159.5t-157 238.5t-57.5 291q0 205 98 376t270 269.5t380 98.5q280 0 486 -174l-215 -280q-129 101 -271 101
q-152 0 -263.5 -114t-111.5 -278q0 -166 112 -285t263 -119q79 0 148 22z" />
    <glyph glyph-name="gcaron" unicode="&#x1e7;" horiz-adv-x="1304" 
d="M944 1362l-278 -179h-62l-279 179l104 157l205 -122l207 122zM882 986l38 99h266v-921q0 -263 -147.5 -409.5t-420.5 -146.5q-124 0 -263 35.5t-222 95.5l129 262q168 -94 322 -94q120 0 190.5 58.5t70.5 177.5v11q-114 -89 -265 -89q-143 0 -263 62.5t-192 178
t-72 258.5q0 145 71 271t193 201t264 75q179 0 301 -125zM628 357q96 0 162 65.5t66 154.5q0 96 -65.5 162t-162.5 66t-164 -66t-67 -162q0 -89 67 -154.5t164 -65.5z" />
    <glyph glyph-name="uni01E8" unicode="&#x1e8;" horiz-adv-x="1488" 
d="M1060 1738l-287 -204h-58l-289 204l112 155l205 -134l206 134zM1468 0h-439l-359 559l-158 -185v-374h-369v1439h369v-565l455 565h449l-508 -598z" />
    <glyph glyph-name="uni01E9" unicode="&#x1e9;" horiz-adv-x="1276" 
d="M611 1817l-286 -204h-59l-289 204l112 155l206 -134l206 134zM1282 0h-410l-278 396l-129 -141v-255h-346v1536h346v-846l327 395h437l-407 -441z" />
    <glyph glyph-name="uni01EA" unicode="&#x1ea;" horiz-adv-x="1643" 
d="M1219 85q-94 -85 -94 -147q0 -30 17.5 -50t47.5 -20q21 0 66 9l18 -146q-67 -35 -166 -35q-111 0 -159 46.5t-48 117.5q0 59 33 123q-67 -9 -112 -9q-156 0 -295 59t-238.5 159.5t-157 238.5t-57.5 291q0 205 98 376t270 269.5t380 98.5q156 0 294.5 -58t238 -157.5
t157.5 -237t58 -291.5q0 -199 -94.5 -368t-256.5 -269zM447 721q0 -165 111.5 -279t263.5 -114q153 0 263.5 114t110.5 279t-111 278.5t-263 113.5t-263.5 -114t-111.5 -278z" />
    <glyph glyph-name="uni01EB" unicode="&#x1eb;" horiz-adv-x="1284" 
d="M996 81q-93 -76 -93 -147q0 -30 17 -49.5t48 -19.5q21 0 66 9l18 -140q-67 -35 -160 -35q-100 0 -146.5 49t-46.5 119q0 51 33 108q-45 -6 -93 -6q-122 0 -231 45t-186.5 121t-123 180.5t-45.5 220.5q0 157 77 288t212.5 207.5t299.5 76.5t299.5 -76.5t212.5 -207.5
t77 -288q0 -138 -62.5 -257.5t-172.5 -197.5zM397 538q0 -104 70.5 -174t174.5 -70t174.5 70t70.5 174q0 106 -70.5 175.5t-174.5 69.5t-174.5 -69.5t-70.5 -175.5z" />
    <glyph glyph-name="uni01EC" unicode="&#x1ec;" horiz-adv-x="1643" 
d="M540 1744h585v-205h-585v205zM1219 85q-94 -85 -94 -147q0 -30 17.5 -50t47.5 -20q21 0 66 9l18 -146q-67 -35 -166 -35q-111 0 -159 46.5t-48 117.5q0 59 33 123q-67 -9 -112 -9q-156 0 -295 59t-238.5 159.5t-157 238.5t-57.5 291q0 205 98 376t270 269.5t380 98.5
q156 0 294.5 -58t238 -157.5t157.5 -237t58 -291.5q0 -199 -94.5 -368t-256.5 -269zM447 721q0 -165 111.5 -279t263.5 -114q153 0 263.5 114t110.5 279t-111 278.5t-263 113.5t-263.5 -114t-111.5 -278z" />
    <glyph glyph-name="uni01ED" unicode="&#x1ed;" horiz-adv-x="1284" 
d="M353 1406h586v-205h-586v205zM996 81q-93 -76 -93 -147q0 -30 17 -49.5t48 -19.5q21 0 66 9l18 -140q-67 -35 -160 -35q-100 0 -146.5 49t-46.5 119q0 51 33 108q-45 -6 -93 -6q-122 0 -231 45t-186.5 121t-123 180.5t-45.5 220.5q0 157 77 288t212.5 207.5t299.5 76.5
t299.5 -76.5t212.5 -207.5t77 -288q0 -138 -62.5 -257.5t-172.5 -197.5zM397 538q0 -104 70.5 -174t174.5 -70t174.5 70t70.5 174q0 106 -70.5 175.5t-174.5 69.5t-174.5 -69.5t-70.5 -175.5z" />
    <glyph glyph-name="uni01F0" unicode="&#x1f0;" horiz-adv-x="585" 
d="M-16 1361l104 157l205 -122l207 122l103 -157l-278 -179h-62zM28 -393h-63v304h19q138 0 138 137v1037h345v-1030q0 -220 -115.5 -334t-323.5 -114z" />
    <glyph glyph-name="uni01F1" unicode="&#x1f1;" horiz-adv-x="2779" 
d="M688 0h-545v1439h542q156 0 296 -55t241.5 -150t161 -229t59.5 -285q0 -202 -100.5 -367.5t-273.5 -259t-381 -93.5zM2705 0h-1158v269l634 837h-621v333h1112v-252l-646 -854h679v-333zM512 1090v-741h188q160 0 264.5 104t104.5 267q0 161 -104.5 265.5t-265.5 104.5
h-187z" />
    <glyph glyph-name="uni01F2" unicode="&#x1f2;" horiz-adv-x="2579" 
d="M688 0h-545v1439h542q156 0 296 -55t241.5 -150t161 -229t59.5 -285q0 -202 -100.5 -367.5t-273.5 -259t-381 -93.5zM512 1090v-741h188q160 0 264.5 104t104.5 267q0 161 -104.5 265.5t-265.5 104.5h-187zM2521 0h-936v234l461 545h-445v306h897v-228l-463 -552h486
v-305z" />
    <glyph glyph-name="uni01F3" unicode="&#x1f3;" horiz-adv-x="2385" 
d="M858 1023v514h346v-1537h-266l-38 98q-117 -124 -299 -124q-149 0 -275 76t-199.5 207t-73.5 286q0 154 73.5 284t199.5 205.5t275 75.5t257 -85zM2304 857l-463 -552h487v-305h-936v234l460 545h-445v306h897v-228zM634 297q103 0 171.5 68.5t68.5 174.5q0 105 -68 175
t-170 70q-103 0 -171 -69.5t-68 -175.5t67.5 -174.5t169.5 -68.5z" />
    <glyph glyph-name="uni01F4" unicode="&#x1f4;" horiz-adv-x="1410" 
d="M824 1796h333l-251 -260h-260zM970 339v327h348v-534q-97 -75 -227 -116.5t-269 -41.5q-156 0 -295 59t-238.5 159.5t-157 238.5t-57.5 291q0 205 98 376t270 269.5t380 98.5q280 0 486 -174l-215 -280q-129 101 -271 101q-152 0 -263.5 -114t-111.5 -278
q0 -166 112 -285t263 -119q79 0 148 22z" />
    <glyph glyph-name="uni01F5" unicode="&#x1f5;" horiz-adv-x="1304" 
d="M677 1496h327l-229 -297h-237zM882 986l38 99h266v-921q0 -263 -147.5 -409.5t-420.5 -146.5q-124 0 -263 35.5t-222 95.5l129 262q168 -94 322 -94q120 0 190.5 58.5t70.5 177.5v11q-114 -89 -265 -89q-143 0 -263 62.5t-192 178t-72 258.5q0 145 71 271t193 201t264 75
q179 0 301 -125zM628 357q96 0 162 65.5t66 154.5q0 96 -65.5 162t-162.5 66t-164 -66t-67 -162q0 -89 67 -154.5t164 -65.5z" />
    <glyph glyph-name="uni01F8" unicode="&#x1f8;" horiz-adv-x="1542" 
d="M914 1536h-260l-251 260h333zM502 0h-359v1439h369l528 -813v813h359v-1439h-334l-563 858v-858z" />
    <glyph glyph-name="uni01F9" unicode="&#x1f9;" horiz-adv-x="1306" 
d="M786 1496l140 -297h-238l-228 297h326zM788 1108q194 0 312 -126t118 -346v-636h-347v573q0 104 -50.5 162t-136.5 58q-91 0 -155 -61.5t-64 -141.5v-590h-346v1085h266l50 -130q62 68 161.5 110.5t191.5 42.5z" />
    <glyph glyph-name="Aringacute" unicode="&#x1fa;" horiz-adv-x="1449" 
d="M707 2193h332l-251 -260h-260zM711 1540q-84 0 -136.5 46.5t-52.5 124.5q0 80 52 126.5t137 46.5q84 0 136 -46.5t52 -126.5q0 -78 -52 -124.5t-136 -46.5zM711 1776q-29 0 -47.5 -18t-18.5 -46t18.5 -45t47.5 -17t47 17t18 45q0 29 -18 46.5t-47 17.5zM1440 0h-380
l-77 225h-516l-77 -225h-380l555 1441h323zM709 936l-138 -404h309l-138 404l-16 65h-2z" />
    <glyph glyph-name="aringacute" unicode="&#x1fb;" horiz-adv-x="1323" 
d="M702 1909h327l-228 -297h-238zM665 1201q-91 0 -147.5 50t-56.5 135q0 87 56.5 137.5t147.5 50.5t147.5 -50.5t56.5 -137.5q0 -85 -56.5 -135t-147.5 -50zM665 1456q-31 0 -51 -19t-20 -49t20 -49t51 -19q32 0 51.5 18.5t19.5 49.5t-19.5 49.5t-51.5 18.5zM904 980
l44 105h256v-1085h-266l-38 98q-117 -124 -299 -124q-149 0 -275 76t-199.5 207t-73.5 286q0 154 73.5 284t199.5 205.5t275 75.5q183 0 303 -128zM634 297q103 0 171.5 68.5t68.5 174.5q0 105 -68 175t-170 70q-103 0 -171 -69.5t-68 -175.5t67.5 -174.5t169.5 -68.5z" />
    <glyph glyph-name="AEacute" unicode="&#x1fc;" horiz-adv-x="2241" 
d="M1606 1796h332l-250 -260h-261zM1476 573v-240h692v-333h-1061v208h-520l-137 -209h-440l1018 1440h1124v-333h-676v-224h529v-309h-529zM1107 1000l-295 -448h295v448z" />
    <glyph glyph-name="aeacute" unicode="&#x1fd;" horiz-adv-x="2048" 
d="M1055 1495h326l-228 -297h-238zM1986 431h-736q29 -82 96 -126.5t155 -44.5q122 0 215 81l158 -227q-162 -144 -395 -144q-177 0 -320 93l-24 -63h-164l-41 115q-131 -144 -336 -144q-148 0 -273 76t-196.5 206.5t-71.5 285.5q0 154 72 285t196.5 207.5t272.5 76.5
q207 0 338 -149l50 126h153l23 -62q133 85 293 85q171 0 295.5 -72.5t186.5 -198t62 -290.5q0 -57 -9 -116zM1465 830q-83 0 -140.5 -45t-80.5 -130h434q-44 175 -213 175zM646 285q106 0 177 71t71 181q0 112 -70.5 183.5t-177.5 71.5q-105 0 -177.5 -72t-72.5 -183
q0 -109 72.5 -180.5t177.5 -71.5z" />
    <glyph glyph-name="Oslashacute" unicode="&#x1fe;" horiz-adv-x="1643" 
d="M829 1796h333l-251 -260h-260zM1428 1540l-124 -244q125 -104 195.5 -253t70.5 -321q0 -153 -58 -291t-157 -238.5t-238.5 -159.5t-294.5 -59q-89 0 -186 23l-47 -92h-356l119 231q-130 104 -204 257t-74 329q0 205 98 376t270 269.5t380 98.5q103 0 201 -25l51 99h354z
M447 721q0 -136 81 -243l326 634q-10 1 -32 1q-152 0 -263.5 -114t-111.5 -278zM822 328q153 0 263.5 114t110.5 279q0 127 -71 229l-319 -622h16z" />
    <glyph glyph-name="oslashacute" unicode="&#x1ff;" horiz-adv-x="1284" 
d="M680 1495h327l-229 -297h-237zM1180 1166l-134 -210q88 -79 136.5 -188t48.5 -232q0 -116 -45.5 -221t-124 -181t-188.5 -120.5t-234 -44.5q-106 0 -203 34l-54 -86h-274l130 203q-88 78 -136.5 186t-48.5 230q0 157 77 288t212.5 207.5t299.5 76.5q108 0 207 -35l59 93
h272zM397 538q0 -64 31 -121l235 365q-7 1 -21 1q-104 0 -174.5 -69.5t-70.5 -175.5zM642 294q104 0 174.5 70t70.5 174q0 63 -31 122l-233 -365q7 -1 19 -1z" />
    <glyph glyph-name="uni0200" unicode="&#x200;" horiz-adv-x="1449" 
d="M504 1757l159 -230h-232l-223 230h296zM835 1756l158 -231h-231l-223 231h296zM1440 0h-380l-77 225h-516l-77 -225h-380l555 1441h323zM709 936l-138 -404h309l-138 404l-16 65h-2z" />
    <glyph glyph-name="uni0201" unicode="&#x201;" horiz-adv-x="1323" 
d="M515 1457l124 -264h-211l-204 264h291zM827 1456l124 -264h-211l-203 264h290zM904 980l44 105h256v-1085h-266l-38 98q-117 -124 -299 -124q-149 0 -275 76t-199.5 207t-73.5 286q0 154 73.5 284t199.5 205.5t275 75.5q183 0 303 -128zM634 297q103 0 171.5 68.5
t68.5 174.5q0 105 -68 175t-170 70q-103 0 -171 -69.5t-68 -175.5t67.5 -174.5t169.5 -68.5z" />
    <glyph glyph-name="uni0202" unicode="&#x202;" horiz-adv-x="1449" 
d="M711 1628q-44 0 -63 -26.5t-16 -70.5h-237q1 125 80.5 205t235.5 80q157 0 236 -79t80 -206h-235q3 44 -17 70.5t-64 26.5zM1440 0h-380l-77 225h-516l-77 -225h-380l555 1441h323zM709 936l-138 -404h309l-138 404l-16 65h-2z" />
    <glyph glyph-name="uni0203" unicode="&#x203;" horiz-adv-x="1323" 
d="M663 1312q-44 0 -62.5 -24t-18.5 -82h-229q1 138 77.5 219t232.5 81t232 -80t76 -220h-227q0 58 -19 82t-62 24zM904 980l44 105h256v-1085h-266l-38 98q-117 -124 -299 -124q-149 0 -275 76t-199.5 207t-73.5 286q0 154 73.5 284t199.5 205.5t275 75.5q183 0 303 -128z
M634 297q103 0 171.5 68.5t68.5 174.5q0 105 -68 175t-170 70q-103 0 -171 -69.5t-68 -175.5t67.5 -174.5t169.5 -68.5z" />
    <glyph glyph-name="uni0204" unicode="&#x204;" horiz-adv-x="1277" 
d="M642 1527h-231l-224 230h296zM973 1525h-232l-223 231h296zM1204 0h-1061v1439h1046v-333h-677v-224h529v-309h-529v-240h692v-333z" />
    <glyph glyph-name="uni0205" unicode="&#x205;" horiz-adv-x="1191" 
d="M454 1454l124 -264h-211l-204 264h291zM766 1453l124 -264h-211l-204 264h291zM1129 431h-735q29 -82 96 -126.5t155 -44.5q122 0 215 81l158 -227q-162 -144 -395 -144q-123 0 -230 45.5t-181 122.5t-116.5 181t-42.5 218q0 156 68.5 286t193.5 207.5t280 77.5
q171 0 295.5 -72.5t186.5 -198t62 -290.5q0 -50 -10 -116zM609 830q-83 0 -140.5 -45t-80.5 -130h434q-44 175 -213 175z" />
    <glyph glyph-name="uni0206" unicode="&#x206;" horiz-adv-x="1277" 
d="M690 1816q157 0 236.5 -79t80.5 -206h-236q3 44 -17 70.5t-64 26.5t-63 -26.5t-16 -70.5h-236q1 125 80 205t235 80zM1204 0h-1061v1439h1046v-333h-677v-224h529v-309h-529v-240h692v-333z" />
    <glyph glyph-name="uni0207" unicode="&#x207;" horiz-adv-x="1191" 
d="M600 1309q-44 0 -62.5 -24t-18.5 -82h-228q1 138 77 219t232 81t232 -80t76 -220h-226q0 58 -19.5 82t-62.5 24zM1129 431h-735q29 -82 96 -126.5t155 -44.5q122 0 215 81l158 -227q-162 -144 -395 -144q-123 0 -230 45.5t-181 122.5t-116.5 181t-42.5 218
q0 156 68.5 286t193.5 207.5t280 77.5q171 0 295.5 -72.5t186.5 -198t62 -290.5q0 -50 -10 -116zM609 830q-83 0 -140.5 -45t-80.5 -130h434q-44 175 -213 175z" />
    <glyph glyph-name="uni0208" unicode="&#x208;" horiz-adv-x="655" 
d="M268 1527h-231l-223 230h296zM599 1525h-231l-224 231h296zM512 0h-369v1439h369v-1439z" />
    <glyph glyph-name="uni0209" unicode="&#x209;" horiz-adv-x="583" 
d="M270 1190h-211l-203 264h290zM583 1189h-211l-204 264h291zM465 0h-346v1085h346v-1085z" />
    <glyph glyph-name="uni020A" unicode="&#x20a;" horiz-adv-x="655" 
d="M316 1816q157 0 236.5 -79t80.5 -206h-236q3 44 -17 70.5t-64 26.5t-62.5 -26.5t-15.5 -70.5h-237q1 125 80 205t235 80zM512 0h-369v1439h369v-1439z" />
    <glyph glyph-name="uni020B" unicode="&#x20b;" horiz-adv-x="583" 
d="M294 1503q156 0 232 -80t76 -220h-226q0 58 -19.5 82t-62.5 24q-44 0 -62.5 -24t-18.5 -82h-228q1 138 77 219t232 81zM465 0h-346v1085h346v-1085z" />
    <glyph glyph-name="uni020C" unicode="&#x20c;" horiz-adv-x="1643" 
d="M774 1527h-231l-224 230h296zM1105 1525h-232l-223 231h296zM822 -26q-156 0 -295 59t-238.5 159.5t-157 238.5t-57.5 291q0 205 98 376t270 269.5t380 98.5q156 0 294.5 -58t238 -157.5t157.5 -237t58 -291.5q0 -153 -58 -291t-157 -238.5t-238.5 -159.5t-294.5 -59z
M822 328q153 0 263.5 114t110.5 279t-111 278.5t-263 113.5t-263.5 -114t-111.5 -278q0 -165 111.5 -279t263.5 -114z" />
    <glyph glyph-name="uni020D" unicode="&#x20d;" horiz-adv-x="1284" 
d="M622 1194h-211l-204 264h291zM934 1193h-211l-204 264h291zM639 -31q-122 0 -231 45t-186.5 121t-123 180.5t-45.5 220.5q0 157 77 288t212.5 207.5t299.5 76.5t299.5 -76.5t212.5 -207.5t77 -288q0 -116 -45.5 -221t-124 -181t-188.5 -120.5t-234 -44.5zM642 294
q104 0 174.5 70t70.5 174q0 106 -70.5 175.5t-174.5 69.5t-174.5 -69.5t-70.5 -175.5q0 -104 70.5 -174t174.5 -70z" />
    <glyph glyph-name="uni020E" unicode="&#x20e;" horiz-adv-x="1643" 
d="M822 1816q157 0 236.5 -79t80.5 -206h-236q3 44 -17 70.5t-64 26.5t-63 -26.5t-16 -70.5h-236q1 125 80 205t235 80zM822 -26q-156 0 -295 59t-238.5 159.5t-157 238.5t-57.5 291q0 205 98 376t270 269.5t380 98.5q156 0 294.5 -58t238 -157.5t157.5 -237t58 -291.5
q0 -153 -58 -291t-157 -238.5t-238.5 -159.5t-294.5 -59zM822 328q153 0 263.5 114t110.5 279t-111 278.5t-263 113.5t-263.5 -114t-111.5 -278q0 -165 111.5 -279t263.5 -114z" />
    <glyph glyph-name="uni020F" unicode="&#x20f;" horiz-adv-x="1284" 
d="M644 1507q156 0 232 -80t76 -220h-226q0 58 -19.5 82t-62.5 24q-44 0 -62.5 -24t-18.5 -82h-228q1 138 77 219t232 81zM639 -31q-122 0 -231 45t-186.5 121t-123 180.5t-45.5 220.5q0 157 77 288t212.5 207.5t299.5 76.5t299.5 -76.5t212.5 -207.5t77 -288
q0 -116 -45.5 -221t-124 -181t-188.5 -120.5t-234 -44.5zM642 294q104 0 174.5 70t70.5 174q0 106 -70.5 175.5t-174.5 69.5t-174.5 -69.5t-70.5 -175.5q0 -104 70.5 -174t174.5 -70z" />
    <glyph glyph-name="uni0210" unicode="&#x210;" horiz-adv-x="1361" 
d="M369 1757l158 -230h-231l-223 230h296zM699 1756l159 -231h-231l-224 231h296zM1057 555l278 -555h-415l-215 460q-15 -1 -45 -1h-148v-459h-369v1439h622q225 0 365.5 -136.5t140.5 -353.5q0 -265 -214 -394zM734 1106h-222v-325h219q72 0 119 48.5t47 118.5
q0 74 -47.5 116t-115.5 42z" />
    <glyph glyph-name="uni0211" unicode="&#x211;" horiz-adv-x="943" 
d="M332 1454l124 -264h-211l-204 264h291zM644 1453l124 -264h-211l-204 264h291zM714 1107q136 0 257 -89l-153 -282q-75 54 -148 54q-84 0 -144.5 -67t-60.5 -182v-541h-346v1085h266l51 -133q96 155 278 155z" />
    <glyph glyph-name="uni0212" unicode="&#x212;" horiz-adv-x="1361" 
d="M575 1628q-44 0 -62.5 -26.5t-15.5 -70.5h-237q1 125 80 205t235 80q157 0 236.5 -79t80.5 -206h-236q3 44 -17 70.5t-64 26.5zM1057 555l278 -555h-415l-215 460q-15 -1 -45 -1h-148v-459h-369v1439h622q225 0 365.5 -136.5t140.5 -353.5q0 -265 -214 -394zM734 1106
h-222v-325h219q72 0 119 48.5t47 118.5q0 74 -47.5 116t-115.5 42z" />
    <glyph glyph-name="uni0213" unicode="&#x213;" horiz-adv-x="943" 
d="M479 1309q-44 0 -62.5 -24t-18.5 -82h-228q1 138 77 219t232 81t232 -80t76 -220h-226q0 58 -19.5 82t-62.5 24zM714 1107q136 0 257 -89l-153 -282q-75 54 -148 54q-84 0 -144.5 -67t-60.5 -182v-541h-346v1085h266l51 -133q96 155 278 155z" />
    <glyph glyph-name="uni0214" unicode="&#x214;" horiz-adv-x="1469" 
d="M666 1527h-232l-223 230h296zM996 1525h-231l-223 231h296zM733 -31q-192 0 -333.5 78t-213 211.5t-71.5 305.5v875h368v-823q0 -138 66.5 -221t183.5 -83q118 0 185.5 83t67.5 221v823h369v-875q0 -128 -42 -237t-120.5 -188.5t-196.5 -124.5t-263 -45z" />
    <glyph glyph-name="uni0215" unicode="&#x215;" horiz-adv-x="1307" 
d="M520 1454l124 -264h-211l-204 264h291zM833 1453l123 -264h-211l-203 264h291zM842 496v589h346v-1085h-266l-51 130q-62 -68 -161.5 -110.5t-191.5 -42.5q-193 0 -311 126.5t-118 346.5v635h346v-573q0 -104 51 -161.5t137 -57.5q91 0 155 61.5t64 141.5z" />
    <glyph glyph-name="uni0216" unicode="&#x216;" horiz-adv-x="1469" 
d="M714 1816q157 0 236 -79t80 -206h-235q3 44 -17 70.5t-64 26.5t-63 -26.5t-16 -70.5h-237q1 125 80.5 205t235.5 80zM733 -31q-192 0 -333.5 78t-213 211.5t-71.5 305.5v875h368v-823q0 -138 66.5 -221t183.5 -83q118 0 185.5 83t67.5 221v823h369v-875q0 -128 -42 -237
t-120.5 -188.5t-196.5 -124.5t-263 -45z" />
    <glyph glyph-name="uni0217" unicode="&#x217;" horiz-adv-x="1307" 
d="M668 1309q-44 0 -62.5 -24t-18.5 -82h-229q1 138 77.5 219t232.5 81t232 -80t76 -220h-226q0 58 -19.5 82t-62.5 24zM842 496v589h346v-1085h-266l-51 130q-62 -68 -161.5 -110.5t-191.5 -42.5q-193 0 -311 126.5t-118 346.5v635h346v-573q0 -104 51 -161.5t137 -57.5
q91 0 155 61.5t64 141.5z" />
    <glyph glyph-name="uni0218" unicode="&#x218;" horiz-adv-x="1225" 
d="M618 -25q-351 0 -596 262l233 242q169 -163 354 -163q87 0 130 30t43 81q0 34 -17 58.5t-72 52t-159 57.5q-60 17 -109 37t-109.5 57.5t-101.5 83t-69.5 115.5t-28.5 154t28 157.5t85 134.5t154.5 96.5t224.5 35.5q307 0 529 -204l-208 -254q-56 51 -139 87.5t-166 36.5
q-67 0 -103.5 -28t-36.5 -75q0 -43 63 -75q33 -17 169 -64q108 -38 183.5 -77t136 -93t90.5 -125t30 -161q0 -207 -147 -333t-391 -126zM645 -472l-59 56q78 74 78 113v5q-40 0 -66.5 27t-26.5 65q0 41 30.5 68.5t74.5 27.5t73 -29t29 -85q0 -138 -133 -248z" />
    <glyph glyph-name="uni0219" unicode="&#x219;" horiz-adv-x="997" 
d="M525 -31q-273 0 -498 163l149 238q68 -43 161 -74t175 -31q106 0 106 56q0 29 -39.5 49.5t-157.5 52.5q-72 19 -132 48t-110 70.5t-78 98.5t-28 125q0 149 123 247t335 98q201 0 411 -132l-154 -247q-53 33 -132 57.5t-141 24.5q-98 0 -98 -54q0 -28 37 -46.5t147 -47.5
q181 -46 272.5 -125.5t91.5 -222.5q0 -151 -121.5 -249.5t-318.5 -98.5zM441 -492l-59 57q78 75 78 112v6q-40 0 -66 27t-26 66q0 41 30 68t74 27t73 -29.5t29 -85.5q0 -138 -133 -248z" />
    <glyph glyph-name="uni021A" unicode="&#x21a;" horiz-adv-x="1264" 
d="M816 0h-369v1096h-386v343h1142v-343h-387v-1096zM615 -472l-59 56q78 74 78 113v5q-40 0 -66 27t-26 65q0 42 30 69t74 27t73.5 -29.5t29.5 -84.5q0 -137 -134 -248z" />
    <glyph glyph-name="uni021B" unicode="&#x21b;" horiz-adv-x="707" 
d="M492 0h-347v769h-131v316h130v252l349 86v-338h209v-316h-210v-769zM287 -492l-60 57q78 75 78 112v6q-40 0 -66 27t-26 66q0 41 30 68t74 27t73.5 -29.5t29.5 -85.5q0 -138 -133 -248z" />
    <glyph glyph-name="uni021E" unicode="&#x21e;" horiz-adv-x="1549" 
d="M467 1738l112 155l205 -134l206 134l111 -155l-287 -204h-58zM512 0h-369v1439h369v-510h525v510h369v-1439h-369v577h-525v-577z" />
    <glyph glyph-name="uni021F" unicode="&#x21f;" horiz-adv-x="1305" 
d="M1037 1798l-286 -204h-59l-289 204l112 156l206 -134l206 134zM786 1108q194 0 312.5 -126.5t118.5 -345.5v-636h-347v573q0 104 -51 162t-136 58q-91 0 -155.5 -61.5t-64.5 -141.5v-590h-344v1536h344v-552q65 56 153.5 90t169.5 34z" />
    <glyph glyph-name="uni0226" unicode="&#x226;" horiz-adv-x="1449" 
d="M710 1532q-65 0 -106.5 40t-41.5 101q0 64 41.5 104t106.5 40t106 -40t41 -104q0 -62 -41.5 -101.5t-105.5 -39.5zM1440 0h-380l-77 225h-516l-77 -225h-380l555 1441h323zM709 936l-138 -404h309l-138 404l-16 65h-2z" />
    <glyph glyph-name="uni0227" unicode="&#x227;" horiz-adv-x="1323" 
d="M660 1193q-64 0 -105.5 39.5t-41.5 101.5q0 64 41 104t106 40t106.5 -40t41.5 -104q0 -61 -41.5 -101t-106.5 -40zM904 980l44 105h256v-1085h-266l-38 98q-117 -124 -299 -124q-149 0 -275 76t-199.5 207t-73.5 286q0 154 73.5 284t199.5 205.5t275 75.5q183 0 303 -128
zM634 297q103 0 171.5 68.5t68.5 174.5q0 105 -68 175t-170 70q-103 0 -171 -69.5t-68 -175.5t67.5 -174.5t169.5 -68.5z" />
    <glyph glyph-name="uni0228" unicode="&#x228;" horiz-adv-x="1277" 
d="M512 333h692v-333h-401q90 -134 90 -223q0 -44 -12.5 -75.5t-46.5 -61.5t-102.5 -47t-170.5 -21l-20 164q76 8 98.5 27t22.5 54q0 32 -20.5 72.5t-67.5 110.5h-431v1439h1046v-333h-677v-224h529v-309h-529v-240z" />
    <glyph glyph-name="uni0229" unicode="&#x229;" horiz-adv-x="1191" 
d="M1129 431h-735q29 -82 96 -126.5t155 -44.5q122 0 215 81l158 -227q-133 -118 -317 -140q77 -95 77 -173q0 -32 -7 -57t-27 -50.5t-53 -43t-89 -30t-131 -15.5l-20 155q76 8 98 27t22 54q0 29 -14.5 59t-50.5 82q-202 39 -327.5 195t-125.5 360q0 156 68.5 286
t193.5 207.5t280 77.5q171 0 295.5 -72.5t186.5 -198t62 -290.5q0 -50 -10 -116zM609 830q-83 0 -140.5 -45t-80.5 -130h434q-44 175 -213 175z" />
    <glyph glyph-name="uni022A" unicode="&#x22a;" horiz-adv-x="1643" 
d="M1125 1864h-585v204h585v-204zM606 1537q-65 0 -106 39.5t-41 101.5q0 63 41 103t106 40t106.5 -40t41.5 -103q0 -62 -41.5 -101.5t-106.5 -39.5zM1036 1537q-64 0 -105 39.5t-41 101.5q0 63 41 103t105 40q65 0 106.5 -40t41.5 -103q0 -62 -41.5 -101.5t-106.5 -39.5z
M822 -26q-156 0 -295 59t-238.5 159.5t-157 238.5t-57.5 291q0 205 98 376t270 269.5t380 98.5q156 0 294.5 -58t238 -157.5t157.5 -237t58 -291.5q0 -153 -58 -291t-157 -238.5t-238.5 -159.5t-294.5 -59zM822 328q153 0 263.5 114t110.5 279t-111 278.5t-263 113.5
t-263.5 -114t-111.5 -278q0 -165 111.5 -279t263.5 -114z" />
    <glyph glyph-name="uni022B" unicode="&#x22b;" horiz-adv-x="1284" 
d="M939 1530h-586v205h586v-205zM428 1194q-64 0 -105.5 39.5t-41.5 101.5q0 64 41 104t106 40t106 -40t41 -104q0 -62 -41.5 -101.5t-105.5 -39.5zM858 1194q-64 0 -105 39.5t-41 101.5q0 64 40.5 104t105.5 40t106.5 -40t41.5 -104q0 -62 -41.5 -101.5t-106.5 -39.5z
M639 -31q-122 0 -231 45t-186.5 121t-123 180.5t-45.5 220.5q0 157 77 288t212.5 207.5t299.5 76.5t299.5 -76.5t212.5 -207.5t77 -288q0 -116 -45.5 -221t-124 -181t-188.5 -120.5t-234 -44.5zM642 294q104 0 174.5 70t70.5 174q0 106 -70.5 175.5t-174.5 69.5
t-174.5 -69.5t-70.5 -175.5q0 -104 70.5 -174t174.5 -70z" />
    <glyph glyph-name="uni022C" unicode="&#x22c;" horiz-adv-x="1643" 
d="M1125 1854h-585v205h585v-205zM624 1532l-136 76q45 110 98.5 153.5t114.5 43.5q62 0 142.5 -31.5t102.5 -31.5q36 0 71 59l134 -76q-78 -197 -212 -197q-62 0 -142.5 31.5t-102.5 31.5q-35 0 -70 -59zM822 -26q-156 0 -295 59t-238.5 159.5t-157 238.5t-57.5 291
q0 205 98 376t270 269.5t380 98.5q156 0 294.5 -58t238 -157.5t157.5 -237t58 -291.5q0 -153 -58 -291t-157 -238.5t-238.5 -159.5t-294.5 -59zM822 328q153 0 263.5 114t110.5 279t-111 278.5t-263 113.5t-263.5 -114t-111.5 -278q0 -165 111.5 -279t263.5 -114z" />
    <glyph glyph-name="uni022D" unicode="&#x22d;" horiz-adv-x="1284" 
d="M939 1535h-586v205h586v-205zM447 1194l-135 76q45 110 98.5 153.5t114.5 43.5q62 0 142.5 -31.5t102.5 -31.5q36 0 71 59l134 -75q-78 -198 -212 -198q-62 0 -142.5 31.5t-102.5 31.5q-36 0 -71 -59zM639 -31q-122 0 -231 45t-186.5 121t-123 180.5t-45.5 220.5
q0 157 77 288t212.5 207.5t299.5 76.5t299.5 -76.5t212.5 -207.5t77 -288q0 -116 -45.5 -221t-124 -181t-188.5 -120.5t-234 -44.5zM642 294q104 0 174.5 70t70.5 174q0 106 -70.5 175.5t-174.5 69.5t-174.5 -69.5t-70.5 -175.5q0 -104 70.5 -174t174.5 -70z" />
    <glyph glyph-name="uni022E" unicode="&#x22e;" horiz-adv-x="1643" 
d="M821 1532q-64 0 -105.5 39.5t-41.5 101.5q0 64 41 104t106 40t106.5 -40t41.5 -104q0 -61 -41.5 -101t-106.5 -40zM822 -26q-156 0 -295 59t-238.5 159.5t-157 238.5t-57.5 291q0 205 98 376t270 269.5t380 98.5q156 0 294.5 -58t238 -157.5t157.5 -237t58 -291.5
q0 -153 -58 -291t-157 -238.5t-238.5 -159.5t-294.5 -59zM822 328q153 0 263.5 114t110.5 279t-111 278.5t-263 113.5t-263.5 -114t-111.5 -278q0 -165 111.5 -279t263.5 -114z" />
    <glyph glyph-name="uni022F" unicode="&#x22f;" horiz-adv-x="1284" 
d="M643 1194q-64 0 -105.5 39.5t-41.5 101.5q0 64 41 104t106 40t106.5 -40t41.5 -104q0 -61 -41.5 -101t-106.5 -40zM639 -31q-122 0 -231 45t-186.5 121t-123 180.5t-45.5 220.5q0 157 77 288t212.5 207.5t299.5 76.5t299.5 -76.5t212.5 -207.5t77 -288q0 -116 -45.5 -221
t-124 -181t-188.5 -120.5t-234 -44.5zM642 294q104 0 174.5 70t70.5 174q0 106 -70.5 175.5t-174.5 69.5t-174.5 -69.5t-70.5 -175.5q0 -104 70.5 -174t174.5 -70z" />
    <glyph glyph-name="uni0230" unicode="&#x230;" horiz-adv-x="1643" 
d="M1125 1857h-585v204h585v-204zM821 1532q-64 0 -105.5 39.5t-41.5 101.5q0 64 41 104t106 40t106.5 -40t41.5 -104q0 -61 -41.5 -101t-106.5 -40zM822 -26q-156 0 -295 59t-238.5 159.5t-157 238.5t-57.5 291q0 205 98 376t270 269.5t380 98.5q156 0 294.5 -58
t238 -157.5t157.5 -237t58 -291.5q0 -153 -58 -291t-157 -238.5t-238.5 -159.5t-294.5 -59zM822 328q153 0 263.5 114t110.5 279t-111 278.5t-263 113.5t-263.5 -114t-111.5 -278q0 -165 111.5 -279t263.5 -114z" />
    <glyph glyph-name="uni0231" unicode="&#x231;" horiz-adv-x="1284" 
d="M939 1524h-586v205h586v-205zM643 1194q-64 0 -105.5 39.5t-41.5 101.5q0 64 41 104t106 40t106.5 -40t41.5 -104q0 -61 -41.5 -101t-106.5 -40zM639 -31q-122 0 -231 45t-186.5 121t-123 180.5t-45.5 220.5q0 157 77 288t212.5 207.5t299.5 76.5t299.5 -76.5
t212.5 -207.5t77 -288q0 -116 -45.5 -221t-124 -181t-188.5 -120.5t-234 -44.5zM642 294q104 0 174.5 70t70.5 174q0 106 -70.5 175.5t-174.5 69.5t-174.5 -69.5t-70.5 -175.5q0 -104 70.5 -174t174.5 -70z" />
    <glyph glyph-name="uni0232" unicode="&#x232;" horiz-adv-x="1390" 
d="M1000 1539h-585v205h585v-205zM880 0h-369v549l-501 890h426l262 -546l254 546h428l-500 -888v-551z" />
    <glyph glyph-name="uni0233" unicode="&#x233;" horiz-adv-x="1219" 
d="M906 1197h-585v205h585v-205zM654 -364h-368l150 367l-429 1082h378l222 -679l222 679h383z" />
    <glyph glyph-name="uni0237" unicode="&#x237;" horiz-adv-x="585" 
d="M28 -393h-63v304h19q138 0 138 137v1037h345v-1030q0 -220 -115.5 -334t-323.5 -114z" />
    <glyph glyph-name="uni0259" unicode="&#x259;" horiz-adv-x="1191" 
d="M569 1115q163 0 295 -77.5t203.5 -206.5t71.5 -282q0 -156 -68.5 -286.5t-193.5 -208t-280 -77.5q-129 0 -232.5 42t-171.5 116.5t-104 177.5t-36 226q0 56 9 115h736q-29 82 -96 126.5t-155 44.5q-122 0 -215 -81l-158 228q161 143 395 143zM583 255q83 0 140.5 45
t80.5 130h-434q44 -175 213 -175z" />
    <glyph glyph-name="uni0272" unicode="&#x272;" horiz-adv-x="1306" 
d="M788 1108q194 0 312 -126t118 -346v-636h-347v573q0 104 -50.5 162t-136.5 58q-91 0 -155 -61.5t-64 -141.5v-445h7v-169q0 -199 -109 -302.5t-304 -103.5h-58v302h17q57 0 83 29.5t26 92.5v6h-8v1085h266l50 -130q62 68 161.5 110.5t191.5 42.5z" />
    <glyph glyph-name="circumflex" unicode="&#x2c6;" horiz-adv-x="766" 
d="M383 1341l-205 -121l-104 156l279 179h62l278 -179l-103 -156z" />
    <glyph glyph-name="caron" unicode="&#x2c7;" horiz-adv-x="766" 
d="M74 1397l104 156l205 -121l207 121l103 -156l-278 -180h-62z" />
    <glyph glyph-name="breve" unicode="&#x2d8;" horiz-adv-x="764" 
d="M383 1229q-155 0 -231.5 81t-77.5 218h228q0 -58 18.5 -82t62.5 -24q43 0 62.5 24t19.5 82h226q0 -139 -76.5 -219t-231.5 -80z" />
    <glyph glyph-name="dotaccent" unicode="&#x2d9;" horiz-adv-x="442" 
d="M221 1226q-64 0 -105.5 39.5t-41.5 101.5q0 64 41 103.5t106 39.5t106.5 -40t41.5 -103q0 -61 -41.5 -101t-106.5 -40z" />
    <glyph glyph-name="ring" unicode="&#x2da;" horiz-adv-x="556" 
d="M278 1234q-91 0 -147.5 50t-56.5 135q0 87 56.5 137.5t147.5 50.5t147.5 -50.5t56.5 -137.5q0 -85 -56.5 -135t-147.5 -50zM278 1353q32 0 51.5 18t19.5 49t-19.5 50t-51.5 19q-31 0 -51 -19t-20 -50q0 -30 20 -48.5t51 -18.5z" />
    <glyph glyph-name="ogonek" unicode="&#x2db;" horiz-adv-x="499" 
d="M204 0h172q-98 -77 -98 -151q0 -30 17 -49.5t47 -19.5q22 0 67 9l17 -140q-67 -35 -160 -35q-100 0 -146 49t-46 119q0 64 44 126.5t86 91.5z" />
    <glyph glyph-name="tilde" unicode="&#x2dc;" horiz-adv-x="809" 
d="M209 1226l-135 76q45 110 98.5 153.5t114.5 43.5q62 0 142 -31.5t102 -31.5q36 0 71 59l134 -76q-78 -197 -212 -197q-62 0 -142 31.5t-102 31.5q-36 0 -71 -59z" />
    <glyph glyph-name="hungarumlaut" unicode="&#x2dd;" horiz-adv-x="861" 
d="M484 1531l-201 -297h-209l123 297h287zM787 1531l-200 -297h-209l122 297h287z" />
    <glyph glyph-name="gravecomb" unicode="&#x300;" 
d="M-74 1198h-237l-229 297h327z" />
    <glyph glyph-name="acutecomb" unicode="&#x301;" 
d="M-74 1495l-228 -297h-238l140 297h326z" />
    <glyph glyph-name="uni0302" unicode="&#x302;" 
d="M-384 1294l-205 -122l-104 157l279 180h62l278 -180l-103 -157z" />
    <glyph glyph-name="tildecomb" unicode="&#x303;" 
d="M-601 1190l-135 76q45 110 98.5 153.5t114.5 43.5q62 0 142 -31.5t102 -31.5q36 0 71 59l134 -76q-78 -197 -212 -197q-62 0 -142 31.5t-102 31.5q-36 0 -71 -59z" />
    <glyph glyph-name="uni0304" unicode="&#x304;" 
d="M-74 1197h-585v205h585v-205z" />
    <glyph glyph-name="uni0306" unicode="&#x306;" 
d="M-382 1193q-156 0 -232 81t-77 219h228q0 -58 18.5 -82.5t62.5 -24.5q43 0 62.5 24.5t19.5 82.5h226q0 -140 -76 -220t-232 -80z" />
    <glyph glyph-name="uni0307" unicode="&#x307;" 
d="M-221 1190q-65 0 -106.5 40t-41.5 101q0 64 41.5 104t106.5 40t106 -40t41 -104q0 -62 -41.5 -101.5t-105.5 -39.5z" />
    <glyph glyph-name="uni0308" unicode="&#x308;" 
d="M-651 1190q-65 0 -106.5 40t-41.5 101q0 64 41.5 104t106.5 40t106 -40t41 -104q0 -62 -41.5 -101.5t-105.5 -39.5zM-221 1190q-64 0 -105.5 39.5t-41.5 101.5q0 64 41 104t106 40t106 -40t41 -104q0 -62 -41 -101.5t-106 -39.5z" />
    <glyph glyph-name="hookabovecomb" unicode="&#x309;" 
d="M-166 1205h-136q39 62 39 103q0 33 -30 33t-69 -24l-25 105q85 51 163 51q66 0 108 -25.5t42 -70.5q0 -26 -14.5 -57.5t-27 -48.5t-50.5 -66z" />
    <glyph glyph-name="uni030A" unicode="&#x30a;" 
d="M-279 1198q-91 0 -147 50t-56 135q0 87 56 137.5t147 50.5t148 -50.5t57 -137.5q0 -85 -57 -135t-148 -50zM-279 1317q32 0 52 18.5t20 48.5q0 31 -20 50t-52 19q-31 0 -50.5 -19t-19.5 -50q0 -30 19.5 -48.5t50.5 -18.5z" />
    <glyph glyph-name="uni030B" unicode="&#x30b;" 
d="M-377 1495l-202 -297h-208l122 297h288zM-74 1495l-200 -297h-209l122 297h287z" />
    <glyph glyph-name="uni030C" unicode="&#x30c;" 
d="M-693 1361l104 157l205 -122l207 122l103 -157l-278 -179h-62z" />
    <glyph glyph-name="uni030F" unicode="&#x30f;" 
d="M-386 1190h-211l-204 264h291zM-74 1189h-211l-203 264h290z" />
    <glyph glyph-name="uni0311" unicode="&#x311;" 
d="M-382 1503q156 0 232 -80t76 -220h-226q0 58 -19.5 82t-62.5 24q-44 0 -62.5 -24t-18.5 -82h-228q1 138 77 219t232 81z" />
    <glyph glyph-name="uni0312" unicode="&#x312;" 
d="M-147 1588l59 -56q-79 -75 -79 -113v-5q41 0 67 -27t26 -66q0 -41 -30 -68t-74 -27t-73.5 29t-29.5 85q0 137 134 248z" />
    <glyph glyph-name="uni031B" unicode="&#x31b;" 
d="M-386 956v129q77 1 88.5 58t-36.5 136l222 44q48 -105 33 -185t-95.5 -129t-211.5 -53z" />
    <glyph glyph-name="dotbelowcomb" unicode="&#x323;" 
d="M-221 -391q-65 0 -106.5 39.5t-41.5 101.5q0 64 41.5 104t106.5 40t106 -40t41 -104q0 -62 -41 -101.5t-106 -39.5z" />
    <glyph glyph-name="uni0324" unicode="&#x324;" 
d="M-651 -389q-65 0 -106.5 39.5t-41.5 101.5q0 63 41.5 103.5t106.5 40.5q64 0 105.5 -40.5t41.5 -103.5q0 -62 -41 -101.5t-106 -39.5zM-221 -389q-65 0 -106 39.5t-41 101.5q0 63 41.5 103.5t105.5 40.5q65 0 106 -40.5t41 -103.5q0 -62 -41 -101.5t-106 -39.5z" />
    <glyph glyph-name="uni0325" unicode="&#x325;" 
d="M-279 -479q-91 0 -147 50t-56 135q0 87 56 137.5t147 50.5t148 -50.5t57 -137.5q0 -85 -57 -135t-148 -50zM-279 -360q32 0 52 18.5t20 48.5q0 31 -20 50t-52 19q-31 0 -50.5 -19t-19.5 -50q0 -30 19.5 -48.5t50.5 -18.5z" />
    <glyph glyph-name="uni0326" unicode="&#x326;" 
d="M-207 -492l-59 57q78 75 78 112v6q-41 0 -67 27t-26 66q0 41 30.5 68t74.5 27t73 -29.5t29 -85.5q0 -138 -133 -248z" />
    <glyph glyph-name="uni0327" unicode="&#x327;" 
d="M-367 10h184q42 -41 75.5 -99t33.5 -110q0 -32 -7 -57t-27 -50.5t-53 -43t-89 -30t-131 -15.5l-20 155q76 8 98 27t22 54q0 32 -17.5 64.5t-68.5 104.5z" />
    <glyph glyph-name="uni0328" unicode="&#x328;" 
d="M-296 0h172q-98 -77 -98 -151q0 -30 17 -49.5t47 -19.5q22 0 67 9l17 -140q-67 -35 -159 -35q-100 0 -146.5 49t-46.5 119q0 64 44 126.5t86 91.5z" />
    <glyph glyph-name="uni032D" unicode="&#x32d;" 
d="M-384 -345l-205 -122l-104 157l279 180h62l278 -180l-103 -157z" />
    <glyph glyph-name="uni032E" unicode="&#x32e;" 
d="M-382 -435q-156 0 -232 81t-77 219h228q0 -58 18.5 -82.5t62.5 -24.5q43 0 62.5 24.5t19.5 82.5h226q0 -140 -76 -220t-232 -80z" />
    <glyph glyph-name="uni0330" unicode="&#x330;" 
d="M-601 -399l-135 75q81 198 213 198q62 0 142 -31.5t102 -31.5q36 0 71 59l134 -76q-78 -197 -212 -197q-62 0 -142 31.5t-102 31.5q-36 0 -71 -59z" />
    <glyph glyph-name="uni0331" unicode="&#x331;" 
d="M-74 -377h-585v205h585v-205z" />
    <glyph glyph-name="uni0335" unicode="&#x335;" 
d="M-74 400h-760v283h760v-283z" />
    <glyph glyph-name="uni0336" unicode="&#x336;" 
d="M-79 1067h-941v220h941v-220z" />
    <glyph glyph-name="uni0337" unicode="&#x337;" 
d="M39 880l-603 -352l-70 121l603 351z" />
    <glyph glyph-name="uni0338" unicode="&#x338;" 
d="M-109 1166l-797 -1249h-275l801 1249h271z" />
    <glyph glyph-name="tonos" unicode="&#x384;" horiz-adv-x="404" 
d="M312 1189h-215l-23 318h267z" />
    <glyph glyph-name="dieresistonos" unicode="&#x385;" horiz-adv-x="826" 
d="M463 1379h-135l86 226h218zM200 1192q-55 0 -90.5 34t-35.5 87q0 55 35 89.5t91 34.5t91 -34.5t35 -89.5q0 -53 -35.5 -87t-90.5 -34zM626 1192q-55 0 -90.5 34t-35.5 87q0 55 35 89.5t91 34.5t91.5 -34.5t35.5 -89.5q0 -53 -35.5 -87t-91.5 -34z" />
    <glyph glyph-name="Alphatonos" unicode="&#x386;" horiz-adv-x="1449" 
d="M284 1443l-29 -337l-231 1l-24 336h284zM1440 0h-380l-77 225h-516l-77 -225h-380l555 1441h323zM709 936l-138 -404h309l-138 404l-16 65h-2z" />
    <glyph glyph-name="Epsilontonos" unicode="&#x388;" horiz-adv-x="1277" 
d="M-52 1106l-232 1l-23 336h283zM1204 0h-1061v1439h1046v-333h-677v-224h529v-309h-529v-240h692v-333z" />
    <glyph glyph-name="Etatonos" unicode="&#x389;" horiz-adv-x="1549" 
d="M-52 1106l-232 1l-23 336h283zM512 0h-369v1439h369v-510h525v510h369v-1439h-369v577h-525v-577z" />
    <glyph glyph-name="Iotatonos" unicode="&#x38a;" horiz-adv-x="655" 
d="M-52 1106l-232 1l-23 336h283zM512 0h-369v1439h369v-1439z" />
    <glyph glyph-name="Omicrontonos" unicode="&#x38c;" horiz-adv-x="1643" 
d="M822 -26q-156 0 -295 59t-238.5 159.5t-157 238.5t-57.5 291q0 205 98 376t270 269.5t380 98.5q156 0 294.5 -58t238 -157.5t157.5 -237t58 -291.5q0 -153 -58 -291t-157 -238.5t-238.5 -159.5t-294.5 -59zM-52 1106l-232 1l-23 336h283zM822 328q153 0 263.5 114
t110.5 279t-111 278.5t-263 113.5t-263.5 -114t-111.5 -278q0 -165 111.5 -279t263.5 -114z" />
    <glyph glyph-name="Upsilontonos" unicode="&#x38e;" horiz-adv-x="1390" 
d="M-52 1106l-232 1l-23 336h283zM880 0h-369v549l-501 890h426l262 -546l254 546h428l-500 -888v-551z" />
    <glyph glyph-name="Omegatonos" unicode="&#x38f;" horiz-adv-x="1519" 
d="M708 0h-615v342h275v25q-35 14 -71 38t-77 66.5t-72.5 94.5t-52.5 126.5t-21 157.5q0 281 185.5 450t501.5 169t500.5 -169t184.5 -450q0 -83 -21 -157t-52 -126t-72 -94.5t-77 -67t-70 -38.5v-25h272v-342h-613v536q261 68 261 314q0 123 -89 207.5t-224 84.5
t-225.5 -84.5t-90.5 -208.5q0 -244 263 -313v-536zM67 1106l-232 1l-23 336h283z" />
    <glyph glyph-name="iotadieresistonos" unicode="&#x390;" horiz-adv-x="643" 
d="M307 1379h-135l86 226h218zM44 1192q-55 0 -90.5 34t-35.5 87q0 55 35 89.5t91 34.5t91 -34.5t35 -89.5q0 -53 -35.5 -87t-90.5 -34zM470 1192q-55 0 -90.5 34t-35.5 87q0 55 35 89.5t91 34.5t91.5 -34.5t35.5 -89.5q0 -53 -35.5 -87t-91.5 -34zM563 202l-83 -233
q-114 8 -189 33t-120.5 73t-64 115t-18.5 165v730h345v-712q0 -76 27.5 -114t102.5 -57z" />
    <glyph glyph-name="Alpha" unicode="&#x391;" horiz-adv-x="1449" 
d="M1440 0h-380l-77 225h-516l-77 -225h-380l555 1441h323zM709 936l-138 -404h309l-138 404l-16 65h-2z" />
    <glyph glyph-name="Beta" unicode="&#x392;" horiz-adv-x="1346" 
d="M796 0h-653v1439h593q222 0 353 -105.5t131 -289.5q0 -88 -47 -166.5t-114 -106.5q99 -34 162.5 -132t63.5 -216q0 -102 -38.5 -183t-105 -133t-155 -79.5t-190.5 -27.5zM512 1125v-241h195q65 0 105 36t40 90q0 51 -37.5 83t-98.5 32h-204zM512 608v-301h254
q67 0 108 43t41 111q0 60 -45 103.5t-117 43.5h-241z" />
    <glyph glyph-name="Gamma" unicode="&#x393;" horiz-adv-x="1083" 
d="M515 0h-372v1439h869v-345h-497v-1094z" />
    <glyph glyph-name="uni0394" unicode="&#x394;" horiz-adv-x="1419" 
d="M565 1441h293l551 -1441h-1399zM700 914l-212 -607h445l-209 607l-10 45h-3z" />
    <glyph glyph-name="Epsilon" unicode="&#x395;" horiz-adv-x="1277" 
d="M1204 0h-1061v1439h1046v-333h-677v-224h529v-309h-529v-240h692v-333z" />
    <glyph glyph-name="Zeta" unicode="&#x396;" horiz-adv-x="1305" 
d="M1232 0h-1158v269l634 837h-622v333h1112v-252l-645 -854h679v-333z" />
    <glyph glyph-name="Eta" unicode="&#x397;" horiz-adv-x="1549" 
d="M512 0h-369v1439h369v-510h525v510h369v-1439h-369v577h-525v-577z" />
    <glyph glyph-name="Theta" unicode="&#x398;" horiz-adv-x="1643" 
d="M822 -26q-156 0 -295 59t-238.5 159.5t-157 238.5t-57.5 291q0 205 98 376t270 269.5t380 98.5q156 0 294.5 -58t238 -157.5t157.5 -237t58 -291.5q0 -153 -58 -291t-157 -238.5t-238.5 -159.5t-294.5 -59zM822 328q153 0 263.5 114t110.5 279t-111 278.5t-263 113.5
t-263.5 -114t-111.5 -278q0 -165 111.5 -279t263.5 -114zM1067 631h-495v184h495v-184z" />
    <glyph glyph-name="Iota" unicode="&#x399;" horiz-adv-x="655" 
d="M512 0h-369v1439h369v-1439z" />
    <glyph glyph-name="Kappa" unicode="&#x39a;" horiz-adv-x="1488" 
d="M1468 0h-439l-359 559l-158 -185v-374h-369v1439h369v-565l455 565h449l-508 -598z" />
    <glyph glyph-name="Lambda" unicode="&#x39b;" horiz-adv-x="1429" 
d="M10 0l551 1439h307l551 -1439h-395l-307 919h-4l-309 -919h-394z" />
    <glyph glyph-name="Mu" unicode="&#x39c;" horiz-adv-x="1850" 
d="M441 0h-372l185 1439h414l257 -929l256 929h414l187 -1440h-374l-90 848l-231 -847h-321l-230 847z" />
    <glyph glyph-name="Nu" unicode="&#x39d;" horiz-adv-x="1542" 
d="M502 0h-359v1439h369l528 -813v813h359v-1439h-334l-563 858v-858z" />
    <glyph glyph-name="Xi" unicode="&#x39e;" horiz-adv-x="1220" 
d="M1126 1094h-1036v345h1036v-345zM1008 577h-799v289h799v-289zM1147 0h-1073v345h1073v-345z" />
    <glyph glyph-name="Omicron" unicode="&#x39f;" horiz-adv-x="1643" 
d="M822 -26q-156 0 -295 59t-238.5 159.5t-157 238.5t-57.5 291q0 205 98 376t270 269.5t380 98.5q156 0 294.5 -58t238 -157.5t157.5 -237t58 -291.5q0 -153 -58 -291t-157 -238.5t-238.5 -159.5t-294.5 -59zM822 328q153 0 263.5 114t110.5 279t-111 278.5t-263 113.5
t-263.5 -114t-111.5 -278q0 -165 111.5 -279t263.5 -114z" />
    <glyph glyph-name="Pi" unicode="&#x3a0;" horiz-adv-x="1542" 
d="M515 0h-372v1439h1256v-1439h-372v1109h-512v-1109z" />
    <glyph glyph-name="Rho" unicode="&#x3a1;" horiz-adv-x="1297" 
d="M512 0h-369v1439h595q234 0 376 -136t142 -348q0 -227 -137 -364.5t-377 -137.5h-230v-453zM512 1106v-321h201q75 0 125 47.5t50 119.5q0 68 -50 111t-124 43h-202z" />
    <glyph glyph-name="Sigma" unicode="&#x3a3;" horiz-adv-x="1216" 
d="M1143 0h-1069v324l463 398l-462 392v325h1064v-345h-566l300 -259v-226l-304 -265h574v-344z" />
    <glyph glyph-name="Tau" unicode="&#x3a4;" horiz-adv-x="1264" 
d="M816 0h-369v1096h-386v343h1142v-343h-387v-1096z" />
    <glyph glyph-name="Upsilon" unicode="&#x3a5;" horiz-adv-x="1390" 
d="M880 0h-369v549l-501 890h426l262 -546l254 546h428l-500 -888v-551z" />
    <glyph glyph-name="Phi" unicode="&#x3a6;" horiz-adv-x="1699" 
d="M1036 0h-369v148q-178 11 -314.5 93.5t-207.5 209.5t-71 278q0 107 41.5 205t117 174.5t188 126t246.5 59.5v145h369v-142q171 -12 306.5 -92.5t209.5 -205.5t74 -270q0 -109 -39 -206.5t-111.5 -175.5t-185.5 -130.5t-254 -68.5v-148zM667 503v434q-104 -4 -163 -65.5
t-59 -150.5q0 -88 59.5 -148t162.5 -70zM1036 937v-434q101 10 160 69.5t59 148.5q0 87 -57.5 149.5t-161.5 66.5z" />
    <glyph glyph-name="Chi" unicode="&#x3a7;" horiz-adv-x="1428" 
d="M441 0h-433l472 733l-443 706h437l235 -429l229 429h439l-428 -706l459 -733h-435l-265 467z" />
    <glyph glyph-name="Psi" unicode="&#x3a8;" horiz-adv-x="1698" 
d="M1212 930v509h372v-512q0 -223 -147.5 -366.5t-401.5 -165.5v-395h-370v395q-256 21 -403 164t-147 368v512h371v-509q0 -92 43.5 -136t135.5 -49v694h370v-694q91 5 134 49t43 136z" />
    <glyph glyph-name="uni03A9" unicode="&#x3a9;" horiz-adv-x="1519" 
d="M708 0h-615v342h275v25q-35 14 -71 38t-77 66.5t-72.5 94.5t-52.5 126.5t-21 157.5q0 281 185.5 450t501.5 169t500.5 -169t184.5 -450q0 -83 -21 -157t-52 -126t-72 -94.5t-77 -67t-70 -38.5v-25h272v-342h-613v536q261 68 261 314q0 123 -89 207.5t-224 84.5
t-225.5 -84.5t-90.5 -208.5q0 -244 263 -313v-536z" />
    <glyph glyph-name="Iotadieresis" unicode="&#x3aa;" horiz-adv-x="655" 
d="M100 1537q-65 0 -106 39.5t-41 101.5q0 63 41 103t106 40t106.5 -40t41.5 -103q0 -62 -41.5 -101.5t-106.5 -39.5zM530 1537q-64 0 -105 39.5t-41 101.5q0 63 41 103t105 40q65 0 106.5 -40t41.5 -103q0 -62 -41.5 -101.5t-106.5 -39.5zM512 0h-369v1439h369v-1439z" />
    <glyph glyph-name="Upsilondieresis" unicode="&#x3ab;" horiz-adv-x="1390" 
d="M498 1537q-65 0 -106.5 39.5t-41.5 101.5q0 63 41.5 103t106.5 40t106 -40t41 -103q0 -62 -41 -101.5t-106 -39.5zM928 1537q-65 0 -106 39.5t-41 101.5q0 63 41 103t106 40t106 -40t41 -103q0 -62 -41 -101.5t-106 -39.5zM880 0h-369v549l-501 890h426l262 -546l254 546
h428l-500 -888v-551z" />
    <glyph glyph-name="alphatonos" unicode="&#x3ac;" horiz-adv-x="1417" 
d="M815 1189h-215l-23 318h267zM614 -30q-169 0 -298 77.5t-196 207t-67 288.5q0 152 69 280t201 206.5t301 78.5q107 0 202.5 -50t148.5 -132l29 159h330l-67 -537l67 -548h-330l-28 148q-138 -178 -362 -178zM652 285q96 0 161.5 75t92.5 184q-21 106 -89.5 177.5
t-161.5 71.5q-115 0 -187 -73t-72 -176q0 -108 73.5 -183.5t182.5 -75.5z" />
    <glyph glyph-name="epsilontonos" unicode="&#x3ad;" horiz-adv-x="982" 
d="M600 1189h-215l-24 318h268zM520 -31q-91 0 -172 20t-148.5 60t-107 108t-39.5 156q0 56 23 103t60 76.5t76.5 47.5t79.5 25q-36 9 -70 28t-66 48t-51.5 73t-19.5 96q0 78 34.5 136.5t94 92t131.5 50t155 16.5q115 0 233 -42.5t203 -129.5l-182 -208q-106 89 -218 89
q-120 0 -120 -68q0 -41 39.5 -60t102.5 -19h101v-236h-96q-167 0 -167 -88q0 -31 23.5 -51t55.5 -27.5t69 -7.5q68 0 126 26t124 77l161 -214q-204 -177 -435 -177z" />
    <glyph glyph-name="etatonos" unicode="&#x3ae;" horiz-adv-x="1306" 
d="M801 1507l-29 -318h-215l-23 318h267zM1218 636v-492h9v-167q0 -197 -109 -299.5t-304 -102.5h-58v298h17q57 0 82.5 29t25.5 92v6h-10v573q0 104 -50.5 162t-136.5 58q-91 0 -155 -61.5t-64 -141.5v-590h-346v1085h266l50 -130q62 68 161.5 110.5t191.5 42.5
q194 0 312 -126t118 -346z" />
    <glyph glyph-name="iotatonos" unicode="&#x3af;" horiz-adv-x="643" 
d="M366 1189h-215l-24 318h267zM563 202l-83 -233q-114 8 -189 33t-120.5 73t-64 115t-18.5 165v730h345v-712q0 -76 27.5 -114t102.5 -57z" />
    <glyph glyph-name="upsilondieresistonos" unicode="&#x3b0;" horiz-adv-x="1274" 
d="M682 1379h-135l86 226h218zM419 1192q-55 0 -90.5 34t-35.5 87q0 55 35 89.5t91 34.5t91 -34.5t35 -89.5q0 -53 -35.5 -87t-90.5 -34zM845 1192q-55 0 -90.5 34t-35.5 87q0 55 35 89.5t91 34.5t91.5 -34.5t35.5 -89.5q0 -53 -35.5 -87t-91.5 -34zM787 1085h346
q53 -266 53 -541q0 -130 -31 -232t-95 -178.5t-170.5 -117t-250.5 -40.5q-104 0 -188 19t-143.5 54t-102.5 82t-68 107t-36.5 124t-11.5 138v585h345v-573q0 -219 203 -219q96 0 150 66.5t54 189.5q0 267 -54 536z" />
    <glyph glyph-name="alpha" unicode="&#x3b1;" horiz-adv-x="1417" 
d="M614 -30q-169 0 -298 77.5t-196 207t-67 288.5q0 152 69 280t201 206.5t301 78.5q107 0 202.5 -50t148.5 -132l29 159h330l-67 -537l67 -548h-330l-28 148q-138 -178 -362 -178zM652 285q96 0 161.5 75t92.5 184q-21 106 -89.5 177.5t-161.5 71.5q-115 0 -187 -73
t-72 -176q0 -108 73.5 -183.5t182.5 -75.5z" />
    <glyph glyph-name="beta" unicode="&#x3b2;" horiz-adv-x="1240" 
d="M880 817q145 -28 226 -139t81 -244q0 -200 -133 -334t-343 -134q-109 0 -235 48v-378h-357v1461q0 139 65 242t176 155.5t252 52.5q214 0 353 -116t139 -302q0 -111 -57.5 -191.5t-166.5 -120.5zM656 296q91 0 139.5 49.5t48.5 127.5q0 92 -56 143t-148 51h-86v266h57
q58 0 104 38.5t46 105.5q0 75 -39.5 117.5t-99.5 42.5q-146 0 -146 -162v-745q106 -34 180 -34z" />
    <glyph glyph-name="gamma" unicode="&#x3b3;" horiz-adv-x="1219" 
d="M831 1085h382l-431 -1075v-378h-344v373l-431 1080h381l221 -694z" />
    <glyph glyph-name="delta" unicode="&#x3b4;" horiz-adv-x="1224" 
d="M616 1117q157 -63 265 -130t171.5 -142t91 -155t27.5 -178q0 -235 -157.5 -388.5t-400.5 -153.5q-124 0 -230 43t-177.5 114.5t-112 165t-40.5 194.5q0 92 40 179.5t118 154.5t178 91q-72 39 -119.5 81t-69.5 86t-29.5 81t-7.5 85q0 123 105 207t297 84q114 0 232.5 -32
t203.5 -89l-141 -232q-125 68 -263 68q-82 0 -82 -47q0 -23 19.5 -42t81.5 -45zM613 284q105 0 161.5 65t56.5 166q0 156 -155 262l6 -5q-78 -14 -136 -42.5t-89.5 -67t-46 -79.5t-14.5 -86q0 -90 58 -151.5t159 -61.5z" />
    <glyph glyph-name="epsilon" unicode="&#x3b5;" horiz-adv-x="982" 
d="M520 -31q-91 0 -172 20t-148.5 60t-107 108t-39.5 156q0 56 23 103t60 76.5t76.5 47.5t79.5 25q-36 9 -70 28t-66 48t-51.5 73t-19.5 96q0 78 34.5 136.5t94 92t131.5 50t155 16.5q115 0 233 -42.5t203 -129.5l-182 -208q-106 89 -218 89q-120 0 -120 -68q0 -41 39.5 -60
t102.5 -19h101v-236h-96q-167 0 -167 -88q0 -31 23.5 -51t55.5 -27.5t69 -7.5q68 0 126 26t124 77l161 -214q-204 -177 -435 -177z" />
    <glyph glyph-name="zeta" unicode="&#x3b6;" horiz-adv-x="1029" 
d="M844 -437l-212 181q55 61 55 117q0 72 -143 91q-223 32 -357 169.5t-134 323.5q0 215 174 450l250 340h-398v301h823v-245l-377 -557q-71 -105 -99.5 -165t-28.5 -113q0 -70 60.5 -108.5t170.5 -58.5q400 -71 400 -374q0 -174 -184 -352z" />
    <glyph glyph-name="eta" unicode="&#x3b7;" horiz-adv-x="1306" 
d="M1218 636v-492h9v-167q0 -197 -109 -299.5t-304 -102.5h-58v298h17q57 0 82.5 29t25.5 92v6h-10v573q0 104 -50.5 162t-136.5 58q-91 0 -155 -61.5t-64 -141.5v-590h-346v1085h266l50 -130q62 68 161.5 110.5t191.5 42.5q194 0 312 -126t118 -346z" />
    <glyph glyph-name="theta" unicode="&#x3b8;" horiz-adv-x="1226" 
d="M613 1558q276 0 418.5 -202t142.5 -592q0 -391 -142.5 -593t-418.5 -202t-418 202t-142 593q0 390 142 592t418 202zM613 1278q-104 0 -157.5 -85.5t-66.5 -274.5h450q-13 189 -67 274.5t-159 85.5zM613 247q107 0 161 88.5t66 287.5h-452q12 -198 65.5 -287t159.5 -89z
" />
    <glyph glyph-name="iota" unicode="&#x3b9;" horiz-adv-x="643" 
d="M563 202l-83 -233q-114 8 -189 33t-120.5 73t-64 115t-18.5 165v730h345v-712q0 -76 27.5 -114t102.5 -57z" />
    <glyph glyph-name="kappa" unicode="&#x3ba;" horiz-adv-x="1270" 
d="M1276 0h-410l-271 394l-130 -140v-254h-346v1085h346v-398l337 398h437l-415 -445z" />
    <glyph glyph-name="lambda" unicode="&#x3bb;" horiz-adv-x="1212" 
d="M738 1242l306 -838q13 -35 31.5 -61.5t43.5 -44t42 -26t44 -19.5l-38 -280q-135 7 -220 40.5t-130 87t-78 144.5l-129 349l-225 -594h-378l440 1036l-28 77q-11 29 -29.5 53t-36 39t-42.5 29t-40.5 20t-38.5 14l38 281q189 -12 303 -89.5t165 -217.5z" />
    <glyph glyph-name="uni03BC" unicode="&#x3bc;" horiz-adv-x="1307" 
d="M842 496v589h346v-1085h-266l-51 130q-62 -68 -161.5 -110.5t-191.5 -42.5q-22 0 -58 4v-413h-344v696q-27 87 -27 186v635h346v-543h25v-151q47 -98 163 -98q91 0 155 61.5t64 141.5z" />
    <glyph glyph-name="nu" unicode="&#x3bd;" horiz-adv-x="1219" 
d="M777 0h-337l-433 1085h381l221 -694q181 225 222 694h382q-136 -667 -436 -1085z" />
    <glyph glyph-name="xi" unicode="&#x3be;" horiz-adv-x="1048" 
d="M865 -428l-196 169q34 36 47 62.5t13 56.5q0 40 -44.5 63t-132.5 35q-229 31 -364 150t-135 299q0 151 110.5 260t270.5 143q-268 20 -268 220q0 82 47 146t111 92l-200 -7v275h803v-272h-196q-83 0 -148 -51t-65 -121q0 -150 234 -154l-2 -275q-154 -5 -245.5 -56
t-91.5 -145q0 -154 207 -188q428 -71 428 -364q0 -167 -183 -338z" />
    <glyph glyph-name="omicron" unicode="&#x3bf;" horiz-adv-x="1284" 
d="M639 -31q-122 0 -231 45t-186.5 121t-123 180.5t-45.5 220.5q0 157 77 288t212.5 207.5t299.5 76.5t299.5 -76.5t212.5 -207.5t77 -288q0 -116 -45.5 -221t-124 -181t-188.5 -120.5t-234 -44.5zM642 294q104 0 174.5 70t70.5 174q0 106 -70.5 175.5t-174.5 69.5
t-174.5 -69.5t-70.5 -175.5q0 -104 70.5 -174t174.5 -70z" />
    <glyph glyph-name="pi" unicode="&#x3c0;" horiz-adv-x="1331" 
d="M463 0h-344v1085h1093v-1085h-344v768h-405v-768z" />
    <glyph glyph-name="rho" unicode="&#x3c1;" horiz-adv-x="1299" 
d="M667 1108q167 0 300.5 -77t206 -207.5t72.5 -287.5q0 -156 -72 -286t-202.5 -206.5t-292.5 -76.5q-117 0 -247 56v-387h-343v899q0 158 72 288t205 207.5t301 77.5zM669 284q101 0 167.5 72t66.5 182t-66.5 182t-167.5 72q-102 0 -169.5 -72.5t-67.5 -184.5v-195
q150 -56 237 -56z" />
    <glyph glyph-name="uni03C2" unicode="&#x3c2;" horiz-adv-x="1046" 
d="M840 -437l-212 181q56 62 56 117q0 72 -134 92q-228 34 -362.5 189t-134.5 386q0 159 72.5 291.5t203.5 210.5t293 78q233 0 391 -143l-170 -248q-95 77 -208 77q-100 0 -169 -73t-69 -185q0 -200 236 -246q109 -19 187 -55.5t121.5 -86.5t63 -107t19.5 -126
q0 -174 -184 -352z" />
    <glyph glyph-name="sigma" unicode="&#x3c3;" horiz-adv-x="1335" 
d="M821 1085h461v-280h-104q65 -124 65 -269q0 -116 -44 -219.5t-121.5 -180t-190 -121.5t-242.5 -45q-128 0 -239.5 45t-188 122t-120.5 180.5t-44 218.5q0 157 74 287t211 207.5t309 77.5q85 0 174 -23zM649 286q109 0 180 71.5t71 180.5q0 110 -71.5 182t-179.5 72
q-110 0 -181.5 -72t-71.5 -182q0 -108 72.5 -180t180.5 -72z" />
    <glyph glyph-name="tau" unicode="&#x3c4;" horiz-adv-x="992" 
d="M987 1085v-277h-311v-435q0 -76 27.5 -114t102.5 -57l-83 -233q-114 8 -189 33t-120 73.5t-63.5 115t-18.5 164.5v453h-318v231q71 46 189 46h784z" />
    <glyph glyph-name="upsilon" unicode="&#x3c5;" horiz-adv-x="1274" 
d="M787 1085h346q53 -266 53 -541q0 -130 -31 -232t-95 -178.5t-170.5 -117t-250.5 -40.5q-104 0 -188 19t-143.5 54t-102.5 82t-68 107t-36.5 124t-11.5 138v585h345v-573q0 -219 203 -219q96 0 150 66.5t54 189.5q0 267 -54 536z" />
    <glyph glyph-name="phi" unicode="&#x3c6;" horiz-adv-x="1639" 
d="M1586 536q0 -115 -43.5 -218.5t-120.5 -180t-190 -122t-244 -48.5v-331h-336v331q-263 4 -431 168.5t-168 400.5q0 116 43.5 220t121 181t190 123t244.5 48v428h336v-428q131 -3 243.5 -49t190 -122.5t121 -180.5t43.5 -220zM396 538q0 -106 72.5 -177.5t183.5 -76.5v508
q-113 -4 -184.5 -75t-71.5 -179zM988 792v-508q114 4 185 75t71 179q0 107 -71.5 178.5t-184.5 75.5z" />
    <glyph glyph-name="chi" unicode="&#x3c7;" horiz-adv-x="1252" 
d="M399 -375h-374l367 773l-344 687h380l198 -411l201 411h378l-344 -686l371 -774h-384l-224 488z" />
    <glyph glyph-name="psi" unicode="&#x3c8;" horiz-adv-x="1632" 
d="M989 -365h-343v379q-267 2 -412 150t-145 393v528h343v-512q0 -137 56.5 -203.5t157.5 -68.5v784h343v-784q212 7 212 272v512h342v-528q0 -245 -144 -392.5t-410 -150.5v-379z" />
    <glyph glyph-name="omega" unicode="&#x3c9;" horiz-adv-x="2030" 
d="M609 -31q-252 0 -386 148.5t-134 409.5q0 282 76 558h343q-76 -250 -76 -505q0 -152 53 -219t153 -67q96 0 151 61t55 193v537h342v-538q0 -122 52.5 -187.5t153.5 -65.5q203 0 203 286q0 258 -69 505h345q71 -274 71 -534q0 -269 -136 -425.5t-387 -156.5
q-306 0 -404 201q-98 -201 -406 -201z" />
    <glyph glyph-name="iotadieresis" unicode="&#x3ca;" horiz-adv-x="643" 
d="M44 1190q-64 0 -105.5 39.5t-41.5 101.5q0 64 41 104t106 40t106 -40t41 -104q0 -62 -41.5 -101.5t-105.5 -39.5zM474 1190q-64 0 -105 39.5t-41 101.5q0 64 40.5 104t105.5 40t106.5 -40t41.5 -104q0 -62 -41.5 -101.5t-106.5 -39.5zM563 202l-83 -233q-114 8 -189 33
t-120.5 73t-64 115t-18.5 165v730h345v-712q0 -76 27.5 -114t102.5 -57z" />
    <glyph glyph-name="upsilondieresis" unicode="&#x3cb;" horiz-adv-x="1274" 
d="M419 1190q-65 0 -106.5 40t-41.5 101q0 64 41.5 104t106.5 40t106 -40t41 -104q0 -62 -41.5 -101.5t-105.5 -39.5zM849 1190q-64 0 -105.5 39.5t-41.5 101.5q0 64 41 104t106 40t106 -40t41 -104q0 -62 -41 -101.5t-106 -39.5zM787 1085h346q53 -266 53 -541
q0 -130 -31 -232t-95 -178.5t-170.5 -117t-250.5 -40.5q-104 0 -188 19t-143.5 54t-102.5 82t-68 107t-36.5 124t-11.5 138v585h345v-573q0 -219 203 -219q96 0 150 66.5t54 189.5q0 267 -54 536z" />
    <glyph glyph-name="omicrontonos" unicode="&#x3cc;" horiz-adv-x="1284" 
d="M749 1193h-215l-24 318h267zM639 -31q-122 0 -231 45t-186.5 121t-123 180.5t-45.5 220.5q0 157 77 288t212.5 207.5t299.5 76.5t299.5 -76.5t212.5 -207.5t77 -288q0 -116 -45.5 -221t-124 -181t-188.5 -120.5t-234 -44.5zM642 294q104 0 174.5 70t70.5 174
q0 106 -70.5 175.5t-174.5 69.5t-174.5 -69.5t-70.5 -175.5q0 -104 70.5 -174t174.5 -70z" />
    <glyph glyph-name="upsilontonos" unicode="&#x3cd;" horiz-adv-x="1274" 
d="M740 1189h-215l-23 318h267zM787 1085h346q53 -266 53 -541q0 -130 -31 -232t-95 -178.5t-170.5 -117t-250.5 -40.5q-104 0 -188 19t-143.5 54t-102.5 82t-68 107t-36.5 124t-11.5 138v585h345v-573q0 -219 203 -219q96 0 150 66.5t54 189.5q0 267 -54 536z" />
    <glyph glyph-name="omegatonos" unicode="&#x3ce;" horiz-adv-x="2030" 
d="M1121 1189h-215l-23 318h267zM609 -31q-252 0 -386 148.5t-134 409.5q0 282 76 558h343q-76 -250 -76 -505q0 -152 53 -219t153 -67q96 0 151 61t55 193v537h342v-538q0 -122 52.5 -187.5t153.5 -65.5q203 0 203 286q0 258 -69 505h345q71 -274 71 -534
q0 -269 -136 -425.5t-387 -156.5q-306 0 -404 201q-98 -201 -406 -201z" />
    <glyph glyph-name="uni0400" unicode="&#x400;" horiz-adv-x="1277" 
d="M750 1536h-261l-250 260h332zM1204 0h-1061v1439h1046v-333h-677v-224h529v-309h-529v-240h692v-333z" />
    <glyph glyph-name="uni0400" unicode="&#x450;" horiz-adv-x="1277" 
d="M750 1536h-261l-250 260h332zM1204 0h-1061v1439h1046v-333h-677v-224h529v-309h-529v-240h692v-333z" />
    <glyph glyph-name="uni0401" unicode="&#x401;" horiz-adv-x="1277" 
d="M389 1537q-65 0 -106 39.5t-41 101.5q0 63 41 103t106 40t106.5 -40t41.5 -103q0 -62 -41.5 -101.5t-106.5 -39.5zM819 1537q-64 0 -105 39.5t-41 101.5q0 63 41 103t105 40q65 0 106.5 -40t41.5 -103q0 -62 -41.5 -101.5t-106.5 -39.5zM1204 0h-1061v1439h1046v-333
h-677v-224h529v-309h-529v-240h692v-333z" />
    <glyph glyph-name="uni0402" unicode="&#x402;" horiz-adv-x="1569" 
d="M976 970q246 0 383 -148.5t137 -390.5q0 -70 -7 -129.5t-29 -129.5t-59 -131.5t-100 -127.5t-148 -125l-201 186q174 178 174 408q0 122 -51 180.5t-165 58.5q-127 0 -230 -84v-537h-370v1085h-249v354h974v-354h-355v-196q140 81 296 81z" />
    <glyph glyph-name="uni0403" unicode="&#x403;" horiz-adv-x="1083" 
d="M880 1796l-251 -260h-260l178 260h333zM515 0h-372v1439h869v-345h-497v-1094z" />
    <glyph glyph-name="uni0404" unicode="&#x404;" horiz-adv-x="1351" 
d="M822 328q80 0 144 23t138 81l204 -282q-98 -84 -223 -130t-263 -46q-156 0 -295 59t-238.5 159.5t-157 238.5t-57.5 291q0 205 98 376t270 269.5t380 98.5q280 0 486 -174l-207 -280q-56 44 -130.5 72.5t-148.5 28.5q-108 0 -200 -61t-138 -161h434v-336h-436
q46 -102 139 -164.5t201 -62.5z" />
    <glyph glyph-name="uni0405" unicode="&#x405;" horiz-adv-x="1225" 
d="M618 -25q-351 0 -596 262l233 242q169 -163 354 -163q87 0 130 30t43 81q0 34 -17 58.5t-72 52t-159 57.5q-60 17 -109 37t-109.5 57.5t-101.5 83t-69.5 115.5t-28.5 154t28 157.5t85 134.5t154.5 96.5t224.5 35.5q307 0 529 -204l-208 -254q-56 51 -139 87.5t-166 36.5
q-67 0 -103.5 -28t-36.5 -75q0 -43 63 -75q33 -17 169 -64q108 -38 183.5 -77t136 -93t90.5 -125t30 -161q0 -207 -147 -333t-391 -126z" />
    <glyph glyph-name="uni0406" unicode="&#x406;" horiz-adv-x="655" 
d="M512 0h-369v1439h369v-1439z" />
    <glyph glyph-name="uni0407" unicode="&#x407;" horiz-adv-x="655" 
d="M100 1537q-65 0 -106 39.5t-41 101.5q0 63 41 103t106 40t106.5 -40t41.5 -103q0 -62 -41.5 -101.5t-106.5 -39.5zM530 1537q-64 0 -105 39.5t-41 101.5q0 63 41 103t105 40q65 0 106.5 -40t41.5 -103q0 -62 -41.5 -101.5t-106.5 -39.5zM512 0h-369v1439h369v-1439z" />
    <glyph glyph-name="uni0408" unicode="&#x408;" horiz-adv-x="984" 
d="M391 -31q-89 0 -188.5 45t-188.5 126l201 262q100 -78 173 -78q53 0 83 34.5t30 104.5v976h368v-1002q0 -216 -128 -342t-350 -126z" />
    <glyph glyph-name="uni0409" unicode="&#x409;" horiz-adv-x="2138" 
d="M1395 972h176q119 0 216.5 -37t162.5 -102.5t100 -155t35 -193.5q0 -212 -142 -348t-376 -136h-543v1095l-1 -1h-347q0 -129 -2 -216.5t-12.5 -214.5t-29.5 -213t-56 -182t-88.5 -153.5t-130.5 -95.5t-179 -38q-40 0 -158 20v333q70 -9 113 -9q132 0 164.5 248t32.5 866
h1065v-467zM1395 328h137q74 0 123.5 43t49.5 114q0 66 -50.5 112t-124.5 46h-135v-315z" />
    <glyph glyph-name="uni040A" unicode="&#x40a;" horiz-adv-x="2113" 
d="M1371 942h176q114 0 211 -36.5t162.5 -99t102.5 -147t37 -180.5q0 -211 -143.5 -345t-373.5 -134h-544v598h-484v-598h-372v1439h372v-496h484v496h372v-497zM1371 328h147q73 0 117 39.5t44 101.5q0 55 -44.5 92t-117.5 37h-146v-270z" />
    <glyph glyph-name="uni040B" unicode="&#x40b;" horiz-adv-x="1610" 
d="M976 970q164 0 283 -69t178 -187t59 -271v-443h-370v385q0 120 -51 178t-165 58q-127 0 -230 -84v-537h-370v1085h-249v354h974v-354h-355v-196q140 81 296 81z" />
    <glyph glyph-name="uni040C" unicode="&#x40c;" horiz-adv-x="1417" 
d="M1042 1796l-250 -260h-261l179 260h332zM515 0h-372v1439h372v-533h144l318 533h416l-458 -698l462 -741h-417l-321 577l-144 -2v-575z" />
    <glyph glyph-name="uni040D" unicode="&#x40d;" horiz-adv-x="1542" 
d="M946 1536h-260l-251 260h333zM1399 1439v-1439h-359v858l-563 -858h-334v1439h359v-813l528 813h369z" />
    <glyph glyph-name="uni040E" unicode="&#x40e;" horiz-adv-x="1298" 
d="M650 1546q-156 0 -232 81t-77 219h228q0 -58 18.5 -82t62.5 -24q43 0 62.5 24t19.5 82h226q0 -140 -76 -220t-232 -80zM388 -28q-105 0 -215 30l2 308q75 -16 136 -16q112 0 150 90l21 48l-472 1007h402l239 -574h4l232 574h401l-556 -1187q-66 -143 -144 -211.5
t-200 -68.5z" />
    <glyph glyph-name="uni040F" unicode="&#x40f;" horiz-adv-x="1542" 
d="M936 -263h-329v263h-464v1439h372v-1109h512v1109h372v-1439h-463v-263z" />
    <glyph glyph-name="uni0410" unicode="&#x410;" horiz-adv-x="1449" 
d="M1440 0h-380l-77 225h-516l-77 -225h-380l555 1441h323zM709 936l-138 -404h309l-138 404l-16 65h-2z" />
    <glyph glyph-name="uni0411" unicode="&#x411;" horiz-adv-x="1300" 
d="M726 0h-583v1439h935v-330h-588v-216h239q229 0 363.5 -112.5t134.5 -313.5q0 -212 -141 -339.5t-360 -127.5zM490 615v-294h231q157 0 157 146q0 42 -16 72.5t-41.5 46t-50.5 22.5t-50 7h-230z" />
    <glyph glyph-name="uni0412" unicode="&#x412;" horiz-adv-x="1346" 
d="M796 0h-653v1439h593q222 0 353 -105.5t131 -289.5q0 -88 -47 -166.5t-114 -106.5q99 -34 162.5 -132t63.5 -216q0 -102 -38.5 -183t-105 -133t-155 -79.5t-190.5 -27.5zM512 1125v-241h195q65 0 105 36t40 90q0 51 -37.5 83t-98.5 32h-204zM512 608v-301h254
q67 0 108 43t41 111q0 60 -45 103.5t-117 43.5h-241z" />
    <glyph glyph-name="uni0413" unicode="&#x413;" horiz-adv-x="1083" 
d="M515 0h-372v1439h869v-345h-497v-1094z" />
    <glyph glyph-name="uni0414" unicode="&#x414;" horiz-adv-x="1542" 
d="M349 -278h-329v622h120q102 141 146 346t44 484v265h993v-1095h199v-622h-329v278h-844v-278zM524 344h429v750h-285v-122q0 -169 -41.5 -339t-102.5 -289z" />
    <glyph glyph-name="uni0415" unicode="&#x415;" horiz-adv-x="1277" 
d="M1204 0h-1061v1439h1046v-333h-677v-224h529v-309h-529v-240h692v-333z" />
    <glyph glyph-name="uni0416" unicode="&#x416;" horiz-adv-x="1899" 
d="M1875 1439l-380 -698l384 -741h-416l-249 577h-78v-577h-372v577h-80l-248 -577h-416l384 741l-379 698h415l244 -533h80v533h372v-533h78l245 533h416z" />
    <glyph glyph-name="uni0417" unicode="&#x417;" horiz-adv-x="1266" 
d="M641 -30q-202 0 -346 91t-221 267l284 131q83 -159 258 -159q99 0 158 44t59 126q0 79 -67 125t-187 46h-114v259h138q96 0 148.5 35.5t52.5 92.5q0 53 -49 83t-124 30q-159 0 -219 -142l-269 114q65 173 200.5 264t313.5 91q213 0 346.5 -108.5t133.5 -273.5
q0 -102 -61 -183.5t-172 -121.5q132 -34 210.5 -119.5t78.5 -225.5q0 -90 -38.5 -173.5t-107.5 -148.5t-175 -104.5t-231 -39.5z" />
    <glyph glyph-name="uni0418" unicode="&#x418;" horiz-adv-x="1542" 
d="M1399 1439v-1439h-359v858l-563 -858h-334v1439h359v-813l528 813h369z" />
    <glyph glyph-name="uni0419" unicode="&#x419;" horiz-adv-x="1542" 
d="M804 1546q-156 0 -232 81t-77 219h228q0 -58 18.5 -82t62.5 -24q43 0 62.5 24t19.5 82h226q0 -140 -76 -220t-232 -80zM1399 1439v-1439h-359v858l-563 -858h-334v1439h359v-813l528 813h369z" />
    <glyph glyph-name="uni041A" unicode="&#x41a;" horiz-adv-x="1417" 
d="M515 0h-372v1439h372v-533h144l318 533h416l-458 -698l462 -741h-417l-321 577l-144 -2v-575z" />
    <glyph glyph-name="uni041B" unicode="&#x41b;" horiz-adv-x="1586" 
d="M172 -19q-40 0 -158 20v333q70 -9 112 -9q133 0 165.5 248t32.5 866h1119v-1439h-372v1094h-400q0 -129 -2 -217t-13 -214.5t-30 -212.5t-56 -182t-88.5 -153.5t-130.5 -95.5t-179 -38z" />
    <glyph glyph-name="uni041C" unicode="&#x41c;" horiz-adv-x="1850" 
d="M441 0h-372l185 1439h414l257 -929l256 929h414l187 -1440h-374l-90 848l-231 -847h-321l-230 847z" />
    <glyph glyph-name="uni041D" unicode="&#x41d;" horiz-adv-x="1549" 
d="M512 0h-369v1439h369v-510h525v510h369v-1439h-369v577h-525v-577z" />
    <glyph glyph-name="uni041E" unicode="&#x41e;" horiz-adv-x="1643" 
d="M822 -26q-156 0 -295 59t-238.5 159.5t-157 238.5t-57.5 291q0 205 98 376t270 269.5t380 98.5q156 0 294.5 -58t238 -157.5t157.5 -237t58 -291.5q0 -153 -58 -291t-157 -238.5t-238.5 -159.5t-294.5 -59zM822 328q153 0 263.5 114t110.5 279t-111 278.5t-263 113.5
t-263.5 -114t-111.5 -278q0 -165 111.5 -279t263.5 -114z" />
    <glyph glyph-name="uni041F" unicode="&#x41f;" horiz-adv-x="1542" 
d="M515 0h-372v1439h1256v-1439h-372v1109h-512v-1109z" />
    <glyph glyph-name="uni0420" unicode="&#x420;" horiz-adv-x="1297" 
d="M512 0h-369v1439h595q234 0 376 -136t142 -348q0 -227 -137 -364.5t-377 -137.5h-230v-453zM512 1106v-321h201q75 0 125 47.5t50 119.5q0 68 -50 111t-124 43h-202z" />
    <glyph glyph-name="uni0421" unicode="&#x421;" horiz-adv-x="1351" 
d="M822 -26q-156 0 -295 59t-238.5 159.5t-157 238.5t-57.5 291q0 205 98 376t270 269.5t380 98.5q280 0 486 -174l-207 -280q-56 44 -130.5 72.5t-148.5 28.5q-152 0 -263.5 -114t-111.5 -278q0 -165 111.5 -279t263.5 -114q80 0 144 23t138 81l204 -282q-98 -84 -223 -130
t-263 -46z" />
    <glyph glyph-name="uni0422" unicode="&#x422;" horiz-adv-x="1264" 
d="M816 0h-369v1096h-386v343h1142v-343h-387v-1096z" />
    <glyph glyph-name="uni0423" unicode="&#x423;" horiz-adv-x="1298" 
d="M388 -28q-105 0 -215 30l2 308q75 -16 136 -16q112 0 150 90l21 48l-472 1007h402l239 -574h4l232 574h401l-556 -1187q-66 -143 -144 -211.5t-200 -68.5z" />
    <glyph glyph-name="uni0424" unicode="&#x424;" horiz-adv-x="1699" 
d="M1036 0h-369v148q-178 11 -314.5 93.5t-207.5 209.5t-71 278q0 107 41.5 205t117 174.5t188 126t246.5 59.5v145h369v-142q171 -12 306.5 -92.5t209.5 -205.5t74 -270q0 -109 -39 -206.5t-111.5 -175.5t-185.5 -130.5t-254 -68.5v-148zM667 503v434q-104 -4 -163 -65.5
t-59 -150.5q0 -88 59.5 -148t162.5 -70zM1036 937v-434q101 10 160 69.5t59 148.5q0 87 -57.5 149.5t-161.5 66.5z" />
    <glyph glyph-name="uni0425" unicode="&#x425;" horiz-adv-x="1428" 
d="M441 0h-433l472 733l-443 706h437l235 -429l229 429h439l-428 -706l459 -733h-435l-265 467z" />
    <glyph glyph-name="uni0426" unicode="&#x426;" horiz-adv-x="1523" 
d="M1503 -279h-347v279h-1013v1439h372v-1094h448v1094h371v-1094h169v-624z" />
    <glyph glyph-name="uni0427" unicode="&#x427;" horiz-adv-x="1443" 
d="M1300 0h-368v510q-141 -81 -296 -81q-246 0 -383.5 145.5t-137.5 380.5v484h369v-425q0 -120 51 -178t165 -58q116 0 232 83v578h368v-1439z" />
    <glyph glyph-name="uni0428" unicode="&#x428;" horiz-adv-x="2159" 
d="M2016 0h-1873v1439h372v-1094h379v1095h372v-1095h379v1094h371v-1439z" />
    <glyph glyph-name="uni0429" unicode="&#x429;" horiz-adv-x="2204" 
d="M2184 -279h-346v279h-1695v1439h372v-1094h379v1095h372v-1095h379v1094h371v-1094h168v-624z" />
    <glyph glyph-name="uni042A" unicode="&#x42a;" horiz-adv-x="1577" 
d="M771 973h220q237 0 375 -137t138 -352q0 -212 -142 -348t-376 -136h-587v1095h-338v344h710v-466zM771 328h180q74 0 123.5 43t49.5 114q0 67 -50.5 113t-123.5 46h-179v-316z" />
    <glyph glyph-name="uni042B" unicode="&#x42b;" horiz-adv-x="1956" 
d="M730 0h-587v1439h372v-466h220q237 0 375 -137t138 -352q0 -212 -142 -348t-376 -136zM1814 0h-369v1439h369v-1439zM515 644v-316h180q74 0 123.5 43t49.5 114q0 67 -50.5 113t-123.5 46h-179z" />
    <glyph glyph-name="uni042C" unicode="&#x42c;" horiz-adv-x="1301" 
d="M730 0h-587v1439h372v-466h220q237 0 375 -137t138 -352q0 -212 -142 -348t-376 -136zM515 644v-316h180q74 0 123.5 43t49.5 114q0 67 -50.5 113t-123.5 46h-179z" />
    <glyph glyph-name="uni042D" unicode="&#x42d;" horiz-adv-x="1351" 
d="M529 1466q156 0 295.5 -58t238.5 -157.5t157 -237t58 -291.5q0 -153 -58 -291t-157 -238.5t-238.5 -159.5t-295.5 -59q-279 0 -485 176l204 282q74 -58 137.5 -81t143.5 -23q108 0 201 62.5t139 164.5h-435v336h433q-46 100 -138 161t-200 61q-74 0 -148 -28.5
t-130 -72.5l-207 280q206 174 485 174z" />
    <glyph glyph-name="uni042E" unicode="&#x42e;" horiz-adv-x="2298" 
d="M1478 1466q156 0 294.5 -58t237.5 -157.5t157 -237t58 -291.5q0 -204 -98 -376t-270 -272t-379 -100q-269 0 -470.5 162.5t-258.5 414.5h-237v-551h-369v1439h369v-558h233q54 256 256.5 420.5t476.5 164.5zM1478 328q153 0 263 114t110 279t-110.5 278.5t-262.5 113.5
t-263.5 -114t-111.5 -278q0 -165 111.5 -279t263.5 -114z" />
    <glyph glyph-name="uni042F" unicode="&#x42f;" horiz-adv-x="1361" 
d="M597 1439h622v-1439h-369v459h-149q-29 0 -44 1l-215 -460h-415l278 555q-214 129 -214 394q0 217 140.5 353.5t365.5 136.5zM631 781h219v325h-222q-68 0 -115.5 -42t-47.5 -116q0 -70 47 -118.5t119 -48.5z" />
    <glyph glyph-name="uni0430" unicode="&#x430;" horiz-adv-x="1323" 
d="M904 980l44 105h256v-1085h-266l-38 98q-117 -124 -299 -124q-149 0 -275 76t-199.5 207t-73.5 286q0 154 73.5 284t199.5 205.5t275 75.5q183 0 303 -128zM634 297q103 0 171.5 68.5t68.5 174.5q0 105 -68 175t-170 70q-103 0 -171 -69.5t-68 -175.5t67.5 -174.5
t169.5 -68.5z" />
    <glyph glyph-name="uni0431" unicode="&#x431;" horiz-adv-x="1361" 
d="M720 1108q169 0 304.5 -77t210 -207.5t74.5 -287.5q0 -116 -44 -220t-121.5 -180.5t-190 -121.5t-242.5 -45q-128 0 -239.5 45t-188 122t-120.5 181t-44 219v1v368q0 287 135 457.5t372 196.5q166 20 239.5 36.5t149.5 54.5l85 -269q-79 -38 -152 -60.5t-121.5 -30.5
t-134.5 -18q-201 -22 -236 -256q107 92 264 92zM715 286q109 0 180 71.5t71 180.5q0 110 -71.5 182t-179.5 72q-110 0 -182 -72t-72 -182q0 -108 73 -180t181 -72z" />
    <glyph glyph-name="uni0432" unicode="&#x432;" horiz-adv-x="1150" 
d="M676 0h-557v1085h507q197 0 306.5 -76.5t109.5 -227.5q0 -63 -41 -120t-104 -76q91 -25 146 -96.5t55 -160.5q0 -74 -25 -132t-65 -94t-96.5 -59.5t-114 -33t-121.5 -9.5zM449 831v-162h178q44 0 72.5 21t28.5 60t-28.5 60t-73.5 21h-177zM447 450v-192h210q18 0 34.5 4
t35 13.5t30 30.5t11.5 51q0 50 -35.5 71.5t-80.5 21.5h-205z" />
    <glyph glyph-name="uni0433" unicode="&#x433;" horiz-adv-x="920" 
d="M463 0h-344v1085h796v-315h-452v-770z" />
    <glyph glyph-name="uni0434" unicode="&#x434;" horiz-adv-x="1297" 
d="M324 -230h-310v537h113q35 62 58 112t47.5 147t34.5 217l25 302h890v-778h108v-537h-310v230h-656v-230zM470 307h368v471h-243l-11 -126q-3 -29 -6.5 -55t-9.5 -50.5t-9.5 -42t-13 -41t-13 -33.5t-15.5 -34t-14.5 -29.5t-16.5 -31t-16 -28.5z" />
    <glyph glyph-name="uni0435" unicode="&#x435;" horiz-adv-x="1191" 
d="M1129 431h-735q29 -82 96 -126.5t155 -44.5q122 0 215 81l158 -227q-162 -144 -395 -144q-123 0 -230 45.5t-181 122.5t-116.5 181t-42.5 218q0 156 68.5 286t193.5 207.5t280 77.5q171 0 295.5 -72.5t186.5 -198t62 -290.5q0 -50 -10 -116zM609 830q-83 0 -140.5 -45
t-80.5 -130h434q-44 175 -213 175z" />
    <glyph glyph-name="uni0436" unicode="&#x436;" horiz-adv-x="1679" 
d="M381 0h-386l333 570l-291 515h393l165 -369h73v369h345v-369h71l166 369h392l-290 -515l332 -570h-386l-214 391h-71v-391h-345v391h-73z" />
    <glyph glyph-name="uni0437" unicode="&#x437;" horiz-adv-x="982" 
d="M463 -31q-232 0 -436 177l161 214q66 -51 124 -77t126 -26q37 0 69 7.5t55.5 27.5t23.5 51q0 88 -166 88h-97v236h101q63 0 102.5 19t39.5 60q0 68 -120 68q-114 0 -217 -89l-183 208q85 87 203 129.5t233 42.5q83 0 155 -16.5t131.5 -50t94 -92t34.5 -136.5
q0 -52 -19.5 -96t-51.5 -73t-66 -48t-70 -28q40 -7 79.5 -25t76.5 -47.5t60 -76.5t23 -103q0 -88 -39.5 -156t-106.5 -108t-148 -60t-172 -20z" />
    <glyph glyph-name="uni0438" unicode="&#x438;" horiz-adv-x="1316" 
d="M1198 1085v-1085h-345v575l-411 -575h-323v1085h344v-521l388 521h347z" />
    <glyph glyph-name="uni0439" unicode="&#x439;" horiz-adv-x="1316" 
d="M659 1193q-156 0 -232 81t-77 219h229q0 -58 18 -82.5t62 -24.5q43 0 62.5 24.5t19.5 82.5h227q0 -139 -76.5 -219.5t-232.5 -80.5zM1198 1085v-1085h-345v575l-411 -575h-323v1085h344v-521l388 521h347z" />
    <glyph glyph-name="uni043A" unicode="&#x43a;" horiz-adv-x="1212" 
d="M463 0h-344v1085h344v-369h111l190 369h401l-324 -515l377 -570h-396l-248 391h-111v-391z" />
    <glyph glyph-name="uni043B" unicode="&#x43b;" horiz-adv-x="1357" 
d="M139 -31q-80 0 -174 26l21 279q66 -18 108 -18q38 0 60.5 20t36 80t13.5 168v561h1035v-1085h-345v768h-353v-236q0 -130 -23.5 -231t-62 -162.5t-92 -100.5t-108 -54t-116.5 -15z" />
    <glyph glyph-name="uni043C" unicode="&#x43c;" horiz-adv-x="1468" 
d="M356 0h-344l149 1085h389l184 -617l180 617h392l150 -1086h-344l-70 570l-170 -569h-275l-169 568z" />
    <glyph glyph-name="uni043D" unicode="&#x43d;" horiz-adv-x="1312" 
d="M464 0h-345v1085h345v-366h385v366h345v-1085h-345v408h-385v-408z" />
    <glyph glyph-name="uni043E" unicode="&#x43e;" horiz-adv-x="1284" 
d="M639 -31q-122 0 -231 45t-186.5 121t-123 180.5t-45.5 220.5q0 157 77 288t212.5 207.5t299.5 76.5t299.5 -76.5t212.5 -207.5t77 -288q0 -116 -45.5 -221t-124 -181t-188.5 -120.5t-234 -44.5zM642 294q104 0 174.5 70t70.5 174q0 106 -70.5 175.5t-174.5 69.5
t-174.5 -69.5t-70.5 -175.5q0 -104 70.5 -174t174.5 -70z" />
    <glyph glyph-name="uni043F" unicode="&#x43f;" horiz-adv-x="1331" 
d="M463 0h-344v1085h1093v-1085h-344v768h-405v-768z" />
    <glyph glyph-name="uni0440" unicode="&#x440;" horiz-adv-x="1323" 
d="M722 1108q149 0 275 -75.5t199.5 -205.5t73.5 -284q0 -155 -73.5 -286t-199.5 -207t-275 -76q-147 0 -257 85v-423h-346v1449h256l44 -105q120 128 303 128zM689 297q102 0 169.5 68.5t67.5 174.5t-68 175.5t-171 69.5q-102 0 -170 -70t-68 -175q0 -106 68.5 -174.5
t171.5 -68.5z" />
    <glyph glyph-name="uni0441" unicode="&#x441;" horiz-adv-x="1037" 
d="M623 -31q-123 0 -230 45.5t-181 122.5t-116.5 181t-42.5 219q0 156 72.5 286.5t204 207.5t292.5 77q233 0 391 -143l-170 -248q-95 77 -204 77q-101 0 -172 -73t-71 -184q0 -107 72 -180t171 -73q109 0 204 75l170 -246q-73 -67 -173.5 -105.5t-216.5 -38.5z" />
    <glyph glyph-name="uni0442" unicode="&#x442;" horiz-adv-x="954" 
d="M649 0h-344v768h-291v317h926v-317h-291v-768z" />
    <glyph glyph-name="uni0443" unicode="&#x443;" horiz-adv-x="1219" 
d="M654 -364h-368l150 367l-429 1082h378l222 -679l222 679h383z" />
    <glyph glyph-name="uni0444" unicode="&#x444;" horiz-adv-x="1639" 
d="M1586 536q0 -115 -43.5 -218.5t-120.5 -180t-190 -122t-244 -48.5v-331h-336v331q-263 4 -431 168.5t-168 400.5q0 116 43.5 220t121 181t190 123t244.5 48v428h336v-428q131 -3 243.5 -49t190 -122.5t121 -180.5t43.5 -220zM396 538q0 -106 72.5 -177.5t183.5 -76.5v508
q-113 -4 -184.5 -75t-71.5 -179zM988 792v-508q114 4 185 75t71 179q0 107 -71.5 178.5t-184.5 75.5z" />
    <glyph glyph-name="uni0445" unicode="&#x445;" horiz-adv-x="1215" 
d="M414 0h-405l378 551l-360 534h411l169 -314l173 314h407l-352 -534l371 -551h-404l-196 335z" />
    <glyph glyph-name="uni0446" unicode="&#x446;" horiz-adv-x="1326" 
d="M1319 -204h-324v204h-876v1085h344v-769h401v769h344v-769h111v-520z" />
    <glyph glyph-name="uni0447" unicode="&#x447;" horiz-adv-x="1234" 
d="M1116 0h-346v346q-119 -54 -278 -54q-208 0 -327.5 140t-119.5 358v295h345v-285q0 -222 183 -222q114 0 197 47v460h346v-1085z" />
    <glyph glyph-name="uni0448" unicode="&#x448;" horiz-adv-x="1963" 
d="M1844 0h-1725v1085h344v-755h346v755h345v-755h345v755h345v-1085z" />
    <glyph glyph-name="uni0449" unicode="&#x449;" horiz-adv-x="1963" 
d="M1844 1085v-769h108v-520h-323v204h-1510v1085h344v-755h346v755h345v-755h345v755h345z" />
    <glyph glyph-name="uni044A" unicode="&#x44a;" horiz-adv-x="1505" 
d="M711 795h323q178 0 298 -107t120 -295q0 -116 -58 -207t-153.5 -138.5t-210.5 -47.5h-663v769h-353v316h697v-290zM711 289h288q49 0 80 30.5t31 77.5q0 49 -30.5 79t-79.5 30h-289v-217z" />
    <glyph glyph-name="uni044B" unicode="&#x44b;" horiz-adv-x="1841" 
d="M782 0h-663v1085h344v-290h323q178 0 298 -107t120 -295q0 -116 -58 -207t-153.5 -138.5t-210.5 -47.5zM1722 0h-346v1085h346v-1085zM463 506v-217h289q48 0 79 30.5t31 77.5q0 49 -30 79t-79 30h-290z" />
    <glyph glyph-name="uni044C" unicode="&#x44c;" horiz-adv-x="1257" 
d="M782 0h-663v1085h344v-290h323q178 0 298 -107t120 -295q0 -116 -58 -207t-153.5 -138.5t-210.5 -47.5zM463 506v-217h289q48 0 79 30.5t31 77.5q0 49 -30 79t-79 30h-290z" />
    <glyph glyph-name="uni044D" unicode="&#x44d;" horiz-adv-x="1037" 
d="M416 1108q161 0 292 -77t203.5 -207.5t72.5 -286.5q0 -115 -42.5 -218.5t-116 -181t-180.5 -123t-230 -45.5q-116 0 -216.5 38.5t-173.5 105.5l170 246q95 -75 203 -75q70 0 129 38t89 103h-295v197h308q-25 78 -88.5 125t-142.5 47q-108 0 -203 -77l-170 248
q158 143 391 143z" />
    <glyph glyph-name="uni044E" unicode="&#x44e;" horiz-adv-x="1867" 
d="M1226 1108q164 0 299.5 -76.5t212.5 -207.5t77 -288q0 -116 -45.5 -221t-124 -181t-188.5 -120.5t-234 -44.5q-202 0 -356.5 113.5t-207.5 293.5h-194v-376h-346v1085h346v-379h198q55 178 208.5 290t354.5 112zM1226 294q104 0 174 70t70 174q0 106 -70 175.5t-174 69.5
t-174.5 -69.5t-70.5 -175.5q0 -104 70.5 -174t174.5 -70z" />
    <glyph glyph-name="uni044F" unicode="&#x44f;" horiz-adv-x="1181" 
d="M551 1085h512v-1085h-345v346h-82h-30l-164 -346h-389l232 427q-160 96 -160 288q0 163 119 266.5t307 103.5zM563 615h155v184h-156q-47 0 -75.5 -23.5t-28.5 -67.5q0 -39 28.5 -66t76.5 -27z" />
    <glyph glyph-name="uni0451" unicode="&#x451;" horiz-adv-x="1191" 
d="M384 1190q-64 0 -105.5 39.5t-41.5 101.5q0 64 41 104t106 40t106 -40t41 -104q0 -62 -41.5 -101.5t-105.5 -39.5zM814 1190q-64 0 -105 39.5t-41 101.5q0 64 40.5 104t105.5 40t106.5 -40t41.5 -104q0 -62 -41.5 -101.5t-106.5 -39.5zM1129 431h-735q29 -82 96 -126.5
t155 -44.5q122 0 215 81l158 -227q-162 -144 -395 -144q-123 0 -230 45.5t-181 122.5t-116.5 181t-42.5 218q0 156 68.5 286t193.5 207.5t280 77.5q171 0 295.5 -72.5t186.5 -198t62 -290.5q0 -50 -10 -116zM609 830q-83 0 -140.5 -45t-80.5 -130h434q-44 175 -213 175z" />
    <glyph glyph-name="uni0452" unicode="&#x452;" horiz-adv-x="1308" 
d="M826 1038q219 0 324 -131.5t105 -364.5q0 -74 -5.5 -132t-25.5 -130.5t-54.5 -136t-96 -136.5t-147.5 -144l-219 199q121 103 162 202t41 229q0 229 -187 229q-86 0 -152 -58.5t-66 -134.5v-529l-346 1v1190h-145v219h145v126h345v-126h437v-219h-437v-305q57 72 143 112
t179 40z" />
    <glyph glyph-name="uni0453" unicode="&#x453;" horiz-adv-x="920" 
d="M892 1495l-228 -297h-238l139 297h327zM463 0h-344v1085h796v-315h-452v-770z" />
    <glyph glyph-name="uni0454" unicode="&#x454;" horiz-adv-x="1037" 
d="M639 284q109 0 204 75l170 -246q-73 -67 -173.5 -105.5t-216.5 -38.5q-123 0 -230 45.5t-181 122.5t-116.5 181t-42.5 219q0 156 72.5 286.5t204 207.5t292.5 77q233 0 391 -143l-170 -248q-95 77 -204 77q-79 0 -142 -47t-88 -125h308v-197h-296q30 -65 89 -103t129 -38
z" />
    <glyph glyph-name="uni0455" unicode="&#x455;" horiz-adv-x="997" 
d="M525 -31q-273 0 -498 163l149 238q68 -43 161 -74t175 -31q106 0 106 56q0 29 -39.5 49.5t-157.5 52.5q-72 19 -132 48t-110 70.5t-78 98.5t-28 125q0 149 123 247t335 98q201 0 411 -132l-154 -247q-53 33 -132 57.5t-141 24.5q-98 0 -98 -54q0 -28 37 -46.5t147 -47.5
q181 -46 272.5 -125.5t91.5 -222.5q0 -151 -121.5 -249.5t-318.5 -98.5z" />
    <glyph glyph-name="uni0456" unicode="&#x456;" horiz-adv-x="583" 
d="M296 1219q-90 0 -148.5 59.5t-58.5 137.5t58.5 138.5t149.5 60.5t149 -60.5t58 -138.5q0 -79 -58 -138t-150 -59zM465 0h-346v1085h346v-1085z" />
    <glyph glyph-name="uni0457" unicode="&#x457;" horiz-adv-x="583" 
d="M77 1190q-65 0 -106.5 40t-41.5 101q0 64 41.5 104t106.5 40t106 -40t41 -104q0 -62 -41.5 -101.5t-105.5 -39.5zM507 1190q-64 0 -105.5 39.5t-41.5 101.5q0 64 41 104t106 40t106 -40t41 -104q0 -62 -41 -101.5t-106 -39.5zM465 0h-346v1085h346v-1085z" />
    <glyph glyph-name="uni0458" unicode="&#x458;" horiz-adv-x="585" 
d="M28 -393h-63v304h19q138 0 138 137v1037h345v-1030q0 -220 -115.5 -334t-323.5 -114z" />
    <glyph glyph-name="uni0459" unicode="&#x459;" horiz-adv-x="1952" 
d="M1200 795h282q108 0 201.5 -44.5t155 -138t61.5 -219.5q0 -93 -36 -169t-95.5 -124t-135 -74t-156.5 -26h-623v768h-313v-236q0 -130 -23.5 -231t-62 -162.5t-92 -100.5t-108 -54t-116.5 -15q-80 0 -174 26l21 279q66 -18 108 -18q38 0 60.5 20t36 80t13.5 168v561h996
v-290zM1200 289h247q49 0 80 30.5t31 77.5q0 49 -30.5 79t-80.5 30h-247v-217z" />
    <glyph glyph-name="uni045A" unicode="&#x45a;" horiz-adv-x="1850" 
d="M1137 751h242q114 0 208.5 -42.5t152 -125.5t57.5 -192q0 -174 -123 -282.5t-299 -108.5h-583v462h-328v-462h-345v1085h345v-337h328v337h345v-334zM1137 289h225q48 0 76 25.5t28 67.5q0 40 -28 65.5t-76 25.5h-225v-184z" />
    <glyph glyph-name="uni045B" unicode="&#x45b;" horiz-adv-x="1305" 
d="M786 1108q194 0 312.5 -126.5t118.5 -345.5v-636h-347v573q0 104 -51 162t-136 58q-91 0 -155.5 -61.5t-64.5 -141.5v-590h-344v1192h-110v233h110v111h344v-111h306v-233h-306v-208q65 56 153.5 90t169.5 34z" />
    <glyph glyph-name="uni045C" unicode="&#x45c;" horiz-adv-x="1212" 
d="M979 1495l-228 -297h-238l139 297h327zM463 0h-344v1085h344v-369h111l190 369h401l-324 -515l377 -570h-396l-248 391h-111v-391z" />
    <glyph glyph-name="uni045D" unicode="&#x45d;" horiz-adv-x="1316" 
d="M870 1198h-237l-229 297h327zM1198 1085v-1085h-345v575l-411 -575h-323v1085h344v-521l388 521h347z" />
    <glyph glyph-name="uni045E" unicode="&#x45e;" horiz-adv-x="1219" 
d="M611 1193q-156 0 -232 81t-77 219h228q0 -58 18.5 -82.5t62.5 -24.5q43 0 62.5 24.5t19.5 82.5h227q0 -139 -76.5 -219.5t-232.5 -80.5zM654 -364h-368l150 367l-429 1082h378l222 -679l222 679h383z" />
    <glyph glyph-name="uni045F" unicode="&#x45f;" horiz-adv-x="1331" 
d="M868 1085h344v-1085h-387v-240h-323v240h-383v1085h344v-768h405v768z" />
    <glyph glyph-name="uni0462" unicode="&#x462;" horiz-adv-x="1420" 
d="M613 973h221q237 0 375 -137t138 -352q0 -212 -142.5 -348t-376.5 -136h-585v1081h-182v283h182v75h370v-75h208v-283h-208v-108zM613 328h181q75 0 124.5 43t49.5 114q0 67 -50.5 113t-124.5 46h-180v-316z" />
    <glyph glyph-name="uni0463" unicode="&#x463;" horiz-adv-x="1294" 
d="M500 795h322q116 0 209.5 -45t151.5 -138t58 -219q0 -116 -58 -207t-154 -138.5t-211 -47.5h-663v1135h-141v233h141v168h345v-168h233v-233h-233v-340zM500 289h288q48 0 79 30.5t31 77.5q0 49 -30.5 79t-79.5 30h-288v-217z" />
    <glyph glyph-name="uni046A" unicode="&#x46a;" horiz-adv-x="1653" 
d="M1506 1146l-349 -372q204 -36 304.5 -153.5t100.5 -324.5v-296h-365v292q0 170 -190 214v-506h-359v505q-191 -45 -191 -213v-292h-365v296q0 207 100.5 324.5t303.5 153.5l-349 372v295h1359v-295zM824 821l210 303h-419z" />
    <glyph glyph-name="uni046B" unicode="&#x46b;" horiz-adv-x="1483" 
d="M1318 806l-256 -236q157 -34 230 -120.5t73 -228.5v-221h-335v220q0 63 -33 100t-112 53v-373h-316v372q-145 -29 -145 -152v-220h-335v221q0 142 73 228.5t230 120.5l-255 236v280h1181v-280zM727 595l192 200h-388z" />
    <glyph glyph-name="uni0472" unicode="&#x472;" horiz-adv-x="1643" 
d="M822 1466q156 0 294.5 -58t238 -157.5t157.5 -237t58 -291.5q0 -153 -58 -291t-157 -238.5t-238.5 -159.5t-294.5 -59q-156 0 -295 59t-238.5 159.5t-157 238.5t-57.5 291q0 205 98 376t270 269.5t380 98.5zM822 1113q-121 0 -219.5 -75t-136.5 -194q58 12 117 12
q61 0 127 -16t113.5 -34.5t110 -34.5t119.5 -16q76 0 139 21q-19 146 -126 241.5t-244 95.5zM822 328q117 0 213.5 71t136.5 185q-64 -16 -133 -16q-60 0 -125.5 16t-113.5 34.5t-111 34.5t-119 16q-60 0 -117 -16q24 -141 129.5 -233t239.5 -92z" />
    <glyph glyph-name="uni0473" unicode="&#x473;" horiz-adv-x="1284" 
d="M642 1108q164 0 299.5 -76.5t212.5 -207.5t77 -288q0 -116 -45.5 -221t-124 -181t-188.5 -120.5t-234 -44.5q-122 0 -231 45t-186.5 121t-123 180.5t-45.5 220.5q0 157 77 288t212.5 207.5t299.5 76.5zM642 783q-74 0 -133.5 -38t-89.5 -102q24 2 38 2q51 0 106.5 -16
t95.5 -34.5t92.5 -34.5t100.5 -16q13 0 35 2q-3 103 -73 170t-172 67zM642 294q73 0 131.5 36.5t88.5 97.5q-7 -1 -22 -1q-76 0 -200.5 49.5t-193.5 49.5q-29 0 -49 -4q6 -98 75.5 -163t169.5 -65z" />
    <glyph glyph-name="uni0474" unicode="&#x474;" horiz-adv-x="1580" 
d="M869 0h-305l-554 1439h396l309 -920h3l218 647q103 305 370 305q81 0 140.5 -15.5t123.5 -50.5l-87 -313q-49 32 -102 32q-41 0 -68 -20.5t-48 -75.5z" />
    <glyph glyph-name="uni0475" unicode="&#x475;" horiz-adv-x="1219" 
d="M778 0h-338l-433 1085h381l221 -694l222 694h382z" />
    <glyph glyph-name="uni048A" unicode="&#x48a;" horiz-adv-x="1626" 
d="M803 1546q-155 0 -231.5 81t-76.5 219h227q0 -58 19 -82t62 -24q44 0 63 24t19 82h226q0 -140 -76 -220t-232 -80zM1399 1439v-1148h207v-214l-128 -353h-226l56 276h-268v858l-563 -858h-334v1439h359v-813l528 813h369z" />
    <glyph glyph-name="uni048A" unicode="&#x48b;" horiz-adv-x="1626" 
d="M803 1546q-155 0 -231.5 81t-76.5 219h227q0 -58 19 -82t62 -24q44 0 63 24t19 82h226q0 -140 -76 -220t-232 -80zM1399 1439v-1148h207v-214l-128 -353h-226l56 276h-268v858l-563 -858h-334v1439h359v-813l528 813h369z" />
    <glyph glyph-name="uni048C" unicode="&#x48c;" horiz-adv-x="1301" 
d="M515 973h220q237 0 375 -137t138 -352q0 -212 -142 -348t-376 -136h-587v1103h-181v238h181v98h372v-98h207v-238h-207v-130zM515 328h180q74 0 123.5 43t49.5 114q0 67 -50.5 113t-123.5 46h-179v-316z" />
    <glyph glyph-name="uni048D" unicode="&#x48d;" horiz-adv-x="1294" 
d="M500 795h322q116 0 209.5 -45t151.5 -138t58 -219q0 -116 -58 -207t-154 -138.5t-211 -47.5h-663v1135h-141v233h141v168h345v-168h233v-233h-233v-340zM500 289h288q48 0 79 30.5t31 77.5q0 49 -30.5 79t-79.5 30h-288v-217z" />
    <glyph glyph-name="uni048E" unicode="&#x48e;" horiz-adv-x="1297" 
d="M1256 955q0 -160 -70 -278t-199 -176l107 -185l-97 -56l-118 206q-61 -13 -137 -13h-230v-453h-369v1439h595q234 0 376 -136t142 -348zM617 919l97 55l94 -163q37 22 58.5 59t21.5 82q0 68 -50 111t-124 43h-202v-321h182z" />
    <glyph glyph-name="uni048F" unicode="&#x48f;" horiz-adv-x="1323" 
d="M1270 543q0 -134 -56 -251t-153 -197l135 -190l-119 -83l-140 197q-102 -45 -215 -45q-147 0 -257 85v-423h-346v1449h256l44 -105q120 128 303 128q149 0 275 -75.5t199.5 -205.5t73.5 -284zM689 297q28 0 48 4l-177 251l119 84l186 -263q61 67 61 167q0 106 -68 175.5
t-171 69.5q-102 0 -170 -70t-68 -175q0 -106 68.5 -174.5t171.5 -68.5z" />
    <glyph glyph-name="uni0490" unicode="&#x490;" horiz-adv-x="1083" 
d="M683 1439v249h329v-594h-497v-1094h-372v1439h540z" />
    <glyph glyph-name="uni0491" unicode="&#x491;" horiz-adv-x="921" 
d="M591 1085v193h324v-508h-452v-770h-344v1085h472z" />
    <glyph glyph-name="uni0492" unicode="&#x492;" horiz-adv-x="1143" 
d="M1072 1439v-345h-497v-293h320v-232h-320v-569h-371v569h-144v232h144v638h868z" />
    <glyph glyph-name="uni0493" unicode="&#x493;" horiz-adv-x="964" 
d="M958 1085v-315h-451v-235h219v-208h-219v-327h-344v327h-150v208h150v550h795z" />
    <glyph glyph-name="uni0494" unicode="&#x494;" horiz-adv-x="1403" 
d="M809 970q246 0 383.5 -148.5t137.5 -390.5q0 -89 -13 -163.5t-48 -159.5t-106 -166t-176 -154l-202 186q176 179 176 408q0 122 -51.5 180.5t-165.5 58.5q-125 0 -231 -84v-537h-370v1439h959v-354h-589v-196q143 81 296 81z" />
    <glyph glyph-name="uni0495" unicode="&#x495;" horiz-adv-x="1130" 
d="M688 659q193 0 291 -114t98 -294q0 -83 -10 -147t-41.5 -145.5t-100 -165.5t-174.5 -171l-219 200q116 100 158.5 186.5t42.5 175.5q0 76 -40.5 117t-111.5 41q-62 0 -118 -18v-324h-344v1085h796v-315h-452v-167q110 56 225 56z" />
    <glyph glyph-name="uni0496" unicode="&#x496;" horiz-adv-x="1899" 
d="M1495 741l250 -483h230v-536h-310v278h-202l-249 577h-78v-577h-372v577h-80l-248 -577h-416l384 741l-379 698h415l244 -533h80v533h372v-533h78l245 533h416z" />
    <glyph glyph-name="uni0497" unicode="&#x497;" horiz-adv-x="1679" 
d="M1352 570l182 -312h191v-536h-310v278h-117l-214 391h-71v-391h-345v391h-73l-214 -391h-386l333 570l-291 515h393l165 -369h73v369h345v-369h71l166 369h392z" />
    <glyph glyph-name="uni0498" unicode="&#x498;" horiz-adv-x="1266" 
d="M1193 436q0 -147 -99.5 -270.5t-269.5 -171.5v-272h-328v262q-294 56 -422 344l284 131q83 -159 258 -159q99 0 158 44t59 126q0 79 -67 125t-187 46h-114v259h138q96 0 148.5 35.5t52.5 92.5q0 53 -49 83t-124 30q-159 0 -219 -142l-269 114q65 173 200.5 264t313.5 91
q213 0 346.5 -108.5t133.5 -273.5q0 -102 -61 -183.5t-172 -121.5q132 -34 210.5 -119.5t78.5 -225.5z" />
    <glyph glyph-name="uni0499" unicode="&#x499;" horiz-adv-x="982" 
d="M929 313q0 -132 -83.5 -213.5t-219.5 -112.5v-265h-329v272q-142 42 -270 152l161 214q66 -51 124 -77t126 -26q37 0 69 7.5t55.5 27.5t23.5 51q0 88 -166 88h-97v236h101q63 0 102.5 19t39.5 60q0 68 -120 68q-114 0 -217 -89l-183 208q85 87 203 129.5t233 42.5
q83 0 155 -16.5t131.5 -50t94 -92t34.5 -136.5q0 -52 -19.5 -96t-51.5 -73t-66 -48t-70 -28q40 -7 79.5 -25t76.5 -47.5t60 -76.5t23 -103z" />
    <glyph glyph-name="uni049A" unicode="&#x49a;" horiz-adv-x="1417" 
d="M935 741l301 -483h170v-536h-310v278h-116l-321 577l-144 -2v-575h-372v1439h372v-533h144l318 533h416z" />
    <glyph glyph-name="uni049B" unicode="&#x49b;" horiz-adv-x="1212" 
d="M841 570l207 -312h187v-536h-310v278h-103l-248 391h-111v-391h-344v1085h344v-369h111l190 369h401z" />
    <glyph glyph-name="uni049C" unicode="&#x49c;" horiz-adv-x="1498" 
d="M1474 1439l-458 -698l462 -741h-416l-321 577h-61v-232h-102v230h-63v-575h-372v1439h372v-533h63v245h102v-245h61l317 533h416z" />
    <glyph glyph-name="uni049D" unicode="&#x49d;" horiz-adv-x="1218" 
d="M1170 1085l-325 -515l379 -570h-399l-247 391h-11v-218h-59v218h-43v-391h-345v1085h345v-369h43v217h59v-217h11l190 369h402z" />
    <glyph glyph-name="uni049E" unicode="&#x49e;" horiz-adv-x="1529" 
d="M1506 1439l-457 -698l460 -741h-415l-321 577l-145 -2v-575h-371v1066h-196v283h196v90h371v-90h193v-283h-193v-160h145l317 533h416z" />
    <glyph glyph-name="uni049F" unicode="&#x49f;" horiz-adv-x="1233" 
d="M1187 1085l-325 -515l377 -570h-396l-247 391h-112v-391h-345v1098h-125v276h125v162h345v-162h189v-276h-189v-382h112l189 369h402z" />
    <glyph glyph-name="uni04A0" unicode="&#x4a0;" horiz-adv-x="1673" 
d="M1650 1439l-458 -698l461 -741h-417l-321 577l-144 -2v-575h-372v1095h-338v344h710v-533h144l318 533h417z" />
    <glyph glyph-name="uni04A1" unicode="&#x4a1;" horiz-adv-x="1460" 
d="M1413 1085l-324 -515l376 -570h-395l-248 391h-111v-391h-344v769h-353v316h697v-369h111l190 369h401z" />
    <glyph glyph-name="uni04A2" unicode="&#x4a2;" horiz-adv-x="1549" 
d="M1406 1439v-1181h92v-536h-310v278h-151v577h-525v-577h-369v1439h369v-510h525v510h369z" />
    <glyph glyph-name="uni04A3" unicode="&#x4a3;" horiz-adv-x="1307" 
d="M1194 1085v-827h106v-536h-310v278h-141v408h-385v-408h-345v1085h345v-366h385v366h345z" />
    <glyph glyph-name="uni04A4" unicode="&#x4a4;" horiz-adv-x="1763" 
d="M1712 1439v-344h-306v-1095h-369v577h-525v-577h-369v1439h369v-510h525v510h675z" />
    <glyph glyph-name="uni04A5" unicode="&#x4a5;" horiz-adv-x="1529" 
d="M849 1085h668v-316h-323v-769h-345v408h-385v-408h-345v1085h345v-366h385v366z" />
    <glyph glyph-name="uni04A6" unicode="&#x4a6;" horiz-adv-x="2237" 
d="M1645 970q246 0 382.5 -148.5t136.5 -390.5q0 -70 -7 -129.5t-29 -129.5t-59 -131.5t-100 -127.5t-148 -125l-201 186q174 177 174 408q0 122 -50.5 180.5t-163.5 58.5q-122 0 -227 -83v-538h-372v1109h-466v-1109h-372v1439h1210v-549q141 80 292 80z" />
    <glyph glyph-name="uni04A7" unicode="&#x4a7;" horiz-adv-x="1890" 
d="M1448 650q193 0 291 -113.5t98 -294.5q0 -82 -10.5 -147t-42 -146t-100 -165t-174.5 -171l-218 201q116 99 158 185.5t42 175.5q0 76 -40.5 117.5t-111.5 41.5q-62 0 -128 -22v-312h-344v768h-405v-768h-344v1085h1093v-496q114 61 236 61z" />
    <glyph glyph-name="uni04A8" unicode="&#x4a8;" horiz-adv-x="2040" 
d="M1796 416l183 -274q-75 -67 -193 -113t-254 -46q-188 0 -355 73q-168 -73 -346 -73q-162 0 -303 57.5t-240.5 157.5t-156.5 239.5t-57 297.5q0 191 80.5 342.5t219.5 243t318 119.5v-313q-96 -23 -171.5 -126t-75.5 -266q0 -180 101 -293t254 -113h26q-81 102 -124 217
t-43 224q0 259 147.5 415t383.5 156q235 0 381 -156t146 -415q0 -226 -178 -441q155 5 257 87zM1032 770q0 -229 151 -345q162 112 162 345q0 103 -44.5 164.5t-110.5 61.5q-67 0 -112.5 -61.5t-45.5 -164.5z" />
    <glyph glyph-name="uni04A9" unicode="&#x4a9;" horiz-adv-x="1802" 
d="M1627 328l168 -210q-71 -66 -182 -108t-246 -42q-153 0 -327 71q-175 -71 -341 -71q-147 0 -269 45.5t-204.5 124.5t-127.5 187.5t-45 233.5q0 214 149.5 370t365.5 175v-261q-64 -23 -118.5 -98.5t-54.5 -188.5q0 -127 81.5 -208.5t238.5 -90.5q-134 149 -134 322
q0 212 117.5 334t333.5 122q218 0 335 -121.5t117 -334.5q0 -174 -130 -323h20q96 0 162.5 24t90.5 48zM1032 735q-46 0 -76.5 -38t-30.5 -118q0 -156 112 -237q103 84 103 237q0 80 -30.5 118t-77.5 38z" />
    <glyph glyph-name="uni04AA" unicode="&#x4aa;" horiz-adv-x="1351" 
d="M1104 432l204 -282q-150 -129 -356 -164v-284h-328v298q-243 64 -396.5 264t-153.5 458q0 205 98 376t270 269.5t380 98.5q280 0 486 -174l-207 -280q-56 44 -130.5 72.5t-148.5 28.5q-152 0 -263.5 -114t-111.5 -278q0 -165 111.5 -279t263.5 -114q80 0 144 23t138 81z
" />
    <glyph glyph-name="uni04AB" unicode="&#x4ab;" horiz-adv-x="1037" 
d="M843 359l170 -246q-105 -94 -252 -128v-263h-329v278q-172 58 -275.5 205t-103.5 332q0 156 72.5 286.5t204 207.5t292.5 77q233 0 391 -143l-170 -248q-95 77 -204 77q-101 0 -172 -73t-71 -184q0 -107 72 -180t171 -73q109 0 204 75z" />
    <glyph glyph-name="uni04AC" unicode="&#x4ac;" horiz-adv-x="1264" 
d="M1203 1439v-343h-387v-838h263v-536h-310v278h-322v1096h-386v343h1142z" />
    <glyph glyph-name="uni04AD" unicode="&#x4ad;" horiz-adv-x="954" 
d="M940 1085v-317h-291v-510h215v-536h-310v278h-249v768h-291v317h926z" />
    <glyph glyph-name="uni04AE" unicode="&#x4ae;" horiz-adv-x="1390" 
d="M880 0h-369v549l-501 890h426l262 -546l254 546h428l-500 -888v-551z" />
    <glyph glyph-name="uni04AF" unicode="&#x4af;" horiz-adv-x="1219" 
d="M831 1085h382l-431 -1075v-378h-344v373l-431 1080h381l221 -694z" />
    <glyph glyph-name="uni04B0" unicode="&#x4b0;" horiz-adv-x="1390" 
d="M952 1439h428l-484 -859h301v-148h-317v-432h-369v432h-325v148h308l-484 859h426l262 -546z" />
    <glyph glyph-name="uni04B1" unicode="&#x4b1;" horiz-adv-x="1219" 
d="M831 1085h382l-376 -940h192v-282h-247v-231h-344v231h-250v282h194l-375 940h381l221 -694z" />
    <glyph glyph-name="uni04B2" unicode="&#x4b2;" horiz-adv-x="1428" 
d="M949 733l297 -475h173v-536h-310v278h-136l-265 467l-267 -467h-433l472 733l-443 706h437l235 -429l229 429h439z" />
    <glyph glyph-name="uni04B3" unicode="&#x4b3;" horiz-adv-x="1215" 
d="M835 551l197 -293h233v-536h-311v278h-152l-196 335l-192 -335h-405l378 551l-360 534h411l169 -314l173 314h407z" />
    <glyph glyph-name="uni04B4" unicode="&#x4b4;" horiz-adv-x="1803" 
d="M1613 1439v-1094h170v-624h-347v279h-1014v1180h-361v282h1080v-282h-347v-835h447v1094h372z" />
    <glyph glyph-name="uni04B5" unicode="&#x4b5;" horiz-adv-x="1478" 
d="M1361 1085v-769h110v-520h-324v204h-877v810h-256v283h869v-283h-268v-494h401v769h345z" />
    <glyph glyph-name="uni04B6" unicode="&#x4b6;" horiz-adv-x="1497" 
d="M1300 1439v-1181h177v-536h-311v278h-234v510q-141 -81 -296 -81q-246 0 -383.5 145.5t-137.5 380.5v484h369v-425q0 -120 51 -178t165 -58q116 0 232 83v578h368z" />
    <glyph glyph-name="uni04B7" unicode="&#x4b7;" horiz-adv-x="1277" 
d="M1116 1085v-827h155v-536h-310v278h-191v346q-119 -54 -278 -54q-208 0 -327.5 140t-119.5 358v295h345v-285q0 -222 183 -222q114 0 197 47v460h346z" />
    <glyph glyph-name="uni04B8" unicode="&#x4b8;" horiz-adv-x="1443" 
d="M932 861v578h368v-1439h-368v510q-68 -38 -129 -57v-315h-169v291q-246 1 -382.5 146.5t-136.5 379.5v484h369v-425q0 -201 150 -230v275h169v-265q53 17 129 67z" />
    <glyph glyph-name="uni04B9" unicode="&#x4b9;" horiz-adv-x="1234" 
d="M770 625v460h346v-1085h-346v346q-34 -14 -74 -25v-197h-110v174q-45 -6 -94 -6q-208 0 -327.5 140t-119.5 358v295h345v-285q0 -222 183 -222h13v199h110v-183q33 9 74 31z" />
    <glyph glyph-name="uni04BA" unicode="&#x4ba;" horiz-adv-x="1443" 
d="M143 1439h369v-510q141 81 296 81q246 0 383.5 -146t137.5 -381v-483h-370v425q0 120 -51 177.5t-165 57.5q-116 0 -231 -82v-578h-369v1439z" />
    <glyph glyph-name="uni04BB" unicode="&#x4bb;" horiz-adv-x="1305" 
d="M786 1108q194 0 312.5 -126.5t118.5 -345.5v-636h-347v573q0 104 -51 162t-136 58q-91 0 -155.5 -61.5t-64.5 -141.5v-590h-344v1536h344v-552q65 56 153.5 90t169.5 34z" />
    <glyph glyph-name="uni04BC" unicode="&#x4bc;" horiz-adv-x="1924" 
d="M1142 1467q139 0 254.5 -37t198.5 -105t141 -162.5t86 -209t28 -246.5q0 -109 -2 -125h-1022q34 -124 127.5 -192t220.5 -68q209 0 343 118l196 -269q-220 -199 -536 -199q-139 0 -264 47.5t-218.5 129.5t-157.5 194t-87 239h-21q-177 0 -272.5 85.5t-95.5 211.5
q0 85 28 192h272q-27 -108 -27 -152q0 -46 24.5 -69t84.5 -24q35 280 229 460.5t470 180.5zM1146 1120q-128 0 -215.5 -75.5t-112.5 -218.5h656q-24 140 -112.5 217t-215.5 77z" />
    <glyph glyph-name="uni04BD" unicode="&#x4bd;" horiz-adv-x="1424" 
d="M1363 432h-735q29 -83 94 -127t152 -44q123 0 217 81l159 -229q-164 -143 -396 -143q-218 0 -372 132t-189 333q-137 7 -211.5 83.5t-74.5 179.5q0 77 23 166h230q-22 -84 -22 -132q0 -62 58 -74q38 197 182.5 323.5t347.5 126.5q172 0 296.5 -73t186.5 -199t62 -291
q0 -54 -8 -113zM841 828q-81 0 -138 -44.5t-80 -129.5h430q-22 85 -76 129.5t-136 44.5z" />
    </font>
</defs>
</svg>
