<?xml version="1.0" encoding="UTF-8"?>
<svg width="17px" height="17px" viewBox="0 0 17 17" version="1.1" xmlns="http://www.w3.org/2000/svg" xmlns:xlink="http://www.w3.org/1999/xlink">
    <title>icons/moon</title>
    <defs>
        <filter color-interpolation-filters="auto" id="filter-1">
            <feColorMatrix in="SourceGraphic" type="matrix" values="0 0 0 0 0.000000 0 0 0 0 0.000000 0 0 0 0 0.000000 0 0 0 1.000000 0"></feColorMatrix>
        </filter>
    </defs>
    <g id="Web" stroke="none" stroke-width="1" fill="none" fill-rule="evenodd">
        <g id="Homepage-NEW-Dark-mode" transform="translate(-1142.000000, -18.000000)">
            <g id="Headernew" transform="translate(0.000000, -1.000000)">
                <g id="Group-8" transform="translate(1134.000000, 11.000000)">
                    <g id="icons/moon" transform="translate(8.500000, 8.500000)" filter="url(#filter-1)">
                        <g id="weather-sun" fill="#000000" fill-rule="nonzero">
                            <path d="M8,3.09666667 C5.29196378,3.09666667 3.09666667,5.29196378 3.09666667,8 C3.09666667,10.7080362 5.29196378,12.9033333 8,12.9033333 C10.7080362,12.9033333 12.9033333,10.7080362 12.9033333,8 C12.9003939,5.29318225 10.7068177,3.09960607 8,3.09666667 Z M8,11.57 C6.02834344,11.57 4.43,9.97165656 4.43,8 C4.43,6.02834344 6.02834344,4.43 8,4.43 C9.97165656,4.43 11.57,6.02834344 11.57,8 C11.5677956,9.97074274 9.97074274,11.5677956 8,11.57 Z" id="Shape"></path>
                            <path d="M8,2.31133333 C8.36818983,2.31133333 8.66666667,2.0128565 8.66666667,1.64466667 L8.66666667,0.666666667 C8.66666667,0.298476833 8.36818983,0 8,0 C7.63181017,0 7.33333333,0.298476833 7.33333333,0.666666667 L7.33333333,1.64466667 C7.33333333,2.0128565 7.63181017,2.31133333 8,2.31133333 Z" id="Path"></path>
                            <path d="M3.03466667,3.97733333 C3.20204965,4.15063772 3.44991859,4.22014173 3.68300488,4.15913144 C3.91609117,4.09812114 4.09812114,3.91609117 4.15913144,3.68300488 C4.22014173,3.44991859 4.15063772,3.20204965 3.97733333,3.03466667 L3.286,2.34333333 C3.02441408,2.09068519 2.60861015,2.09429842 2.35145428,2.35145428 C2.09429842,2.60861015 2.09068519,3.02441408 2.34333333,3.286 L3.03466667,3.97733333 Z" id="Path"></path>
                            <path d="M1.64466667,7.33333333 L0.666666667,7.33333333 C0.298476833,7.33333333 0,7.63181017 0,8 C0,8.36818983 0.298476833,8.66666667 0.666666667,8.66666667 L1.64466667,8.66666667 C2.0128565,8.66666667 2.31133333,8.36818983 2.31133333,8 C2.31133333,7.63181017 2.0128565,7.33333333 1.64466667,7.33333333 Z" id="Path"></path>
                            <path d="M3.03466667,12.0226667 L2.34333333,12.714 C2.17002894,12.881383 2.10052494,13.1292519 2.16153523,13.3623382 C2.22254552,13.5954245 2.4045755,13.7774545 2.63766178,13.8384648 C2.87074807,13.8994751 3.11861702,13.8299711 3.286,13.6566667 L3.97733333,12.9653333 C4.15063772,12.7979504 4.22014173,12.5500814 4.15913144,12.3169951 C4.09812114,12.0839088 3.91609117,11.9018789 3.68300488,11.8408686 C3.44991859,11.7798583 3.20204965,11.8493623 3.03466667,12.0226667 L3.03466667,12.0226667 Z" id="Path"></path>
                            <path d="M8,13.6886667 C7.63181017,13.6886667 7.33333333,13.9871435 7.33333333,14.3553333 L7.33333333,15.3333333 C7.33333333,15.7015232 7.63181017,16 8,16 C8.36818983,16 8.66666667,15.7015232 8.66666667,15.3333333 L8.66666667,14.3553333 C8.66666667,13.9871435 8.36818983,13.6886667 8,13.6886667 Z" id="Path"></path>
                            <path d="M12.9653333,12.0226667 C12.7037474,11.7700185 12.2879435,11.7736318 12.0307876,12.0307876 C11.7736318,12.2879435 11.7700185,12.7037474 12.0226667,12.9653333 L12.714,13.6566667 C12.9755859,13.9093148 13.3913899,13.9057016 13.6485457,13.6485457 C13.9057016,13.3913899 13.9093148,12.9755859 13.6566667,12.714 L12.9653333,12.0226667 Z" id="Path"></path>
                            <path d="M15.3333333,7.33333333 L14.3553333,7.33333333 C13.9871435,7.33333333 13.6886667,7.63181017 13.6886667,8 C13.6886667,8.36818983 13.9871435,8.66666667 14.3553333,8.66666667 L15.3333333,8.66666667 C15.7015232,8.66666667 16,8.36818983 16,8 C16,7.63181017 15.7015232,7.33333333 15.3333333,7.33333333 Z" id="Path"></path>
                            <path d="M12.494,4.17266667 C12.6707965,4.17262891 12.8403382,4.10236625 12.9653333,3.97733333 L13.6566667,3.286 C13.9093148,3.02441408 13.9057016,2.60861015 13.6485457,2.35145428 C13.3913899,2.09429842 12.9755859,2.09068519 12.714,2.34333333 L12.0226667,3.03466667 C11.8320614,3.2253295 11.7750521,3.51202441 11.8782147,3.76110304 C11.9813773,4.01018167 12.2244027,4.1726091 12.494,4.17266667 L12.494,4.17266667 Z" id="Path"></path>
                        </g>
                    </g>
                </g>
            </g>
        </g>
    </g>
</svg>