<?xml version="1.0" encoding="UTF-8"?>
<svg width="24px" height="24px" viewBox="0 0 24 24" version="1.1" xmlns="http://www.w3.org/2000/svg" xmlns:xlink="http://www.w3.org/1999/xlink">
    <title>icons/insta</title>
    <g id="Symbols" stroke="none" stroke-width="1" fill="none" fill-rule="evenodd" opacity="0.5">
        <g id="footer2" transform="translate(-451.000000, -242.000000)" fill="#000000">
            <g id="soc-icons" transform="translate(256.000000, 242.000000)">
                <g id="Group" transform="translate(195.000000, 0.000000)" opacity="0.301722935">
                    <g id="icons/insta">
                        <path d="M12,0 C18.627,0 24,5.373 24,12 C24,18.627 18.627,24 12,24 C5.373,24 0,18.62775 0,12 C0,5.37225 5.373,0 12,0 Z M17.2526843,6.80985278 L5.13420129,11.3947667 C4.30713902,11.712015 4.31966164,12.1676377 4.99360639,12.3740741 L8.09181696,13.3263817 L15.2883402,8.87646714 C15.6270202,8.65484328 15.9349629,8.77746765 15.6816644,8.99909151 L9.86035273,14.1645024 L9.63437632,17.3054862 C9.95768766,17.3054862 10.0977133,17.1682369 10.2656303,17.0034253 L11.7814368,15.5718702 L14.9223381,17.8449209 C15.4983787,18.1621693 15.9042255,17.9951077 16.0596199,17.3212361 L18.1212989,7.77453531 L18.1218681,7.77397282 C18.3045845,6.93247715 17.8139254,6.60341634 17.2526843,6.80985278 Z" id="Combined-Shape"></path>
                    </g>
                </g>
            </g>
        </g>
    </g>
</svg>